<?xml version="1.0" encoding="utf-8"?>
<!-- Generator: Adobe Illustrator 27.3.1, SVG Export Plug-In . SVG Version: 6.00 Build 0)  -->
<svg version="1.1" id="Glyph" xmlns="http://www.w3.org/2000/svg" xmlns:xlink="http://www.w3.org/1999/xlink" x="0px" y="0px"
	 viewBox="0 0 64 64" enable-background="new 0 0 64 64" xml:space="preserve">
<g>
	<path d="M44,53H20c-0.55231,0-1,0.44769-1,1v2c0,0.55225,0.44769,1,1,1h24c0.55231,0,1-0.44775,1-1v-2
		C45,53.44769,44.55231,53,44,53z"/>
	<path d="M25.88,47c-0.21002,1.40997-0.70001,2.76996-1.44,4h15.12c-0.73999-1.23004-1.22998-2.59003-1.44-4H25.88z"/>
	<path d="M35,37h22V17H35V37z M47,21c0-0.55225,0.44775-1,1-1h5c0.55225,0,1,0.44775,1,1v4c0,0.55225-0.44775,1-1,1h-5
		c-0.55225,0-1-0.44775-1-1V21z M47,29c0-0.55225,0.44775-1,1-1h5c0.55225,0,1,0.44775,1,1v4c0,0.55225-0.44775,1-1,1h-5
		c-0.55225,0-1-0.44775-1-1V29z M38,21c0-0.55225,0.44775-1,1-1h5c0.55225,0,1,0.44775,1,1v4c0,0.55225-0.44775,1-1,1h-5
		c-0.55225,0-1-0.44775-1-1V21z M38,29c0-0.55225,0.44775-1,1-1h5c0.55225,0,1,0.44775,1,1v4c0,0.55225-0.44775,1-1,1h-5
		c-0.55225,0-1-0.44775-1-1V29z"/>
	<path d="M33,17H7v20h26V17z M26,35h-2c-0.55225,0-1-0.44775-1-1v-6c0-0.55225,0.44775-1,1-1h2
		c0.32489,0,0.63635,0.04962,0.93896,0.12305C26.50537,23.67651,23.56226,21,20,21s-6.50537,2.67651-6.93896,6.12305
		C13.36365,27.04962,13.67511,27,14,27h2c0.55225,0,1,0.44775,1,1v6c0,0.55225-0.44775,1-1,1h-2c-2.20557,0-4-1.79443-4-4
		c0-1.00525,0.38544-1.91412,1-2.61761V28c0-4.9624,4.0376-9,9-9s9,4.0376,9,9v0.38239c0.61456,0.70349,1,1.61237,1,2.61761
		C30,33.20557,28.20557,35,26,35z"/>
	<rect x="40" y="30" width="3" height="2"/>
	<rect x="49" y="30" width="3" height="2"/>
	<rect x="40" y="22" width="3" height="2"/>
	<rect x="49" y="22" width="3" height="2"/>
	<path d="M7,44c0,0.55225,0.44775,1,1,1h48c0.55225,0,1-0.44775,1-1v-5H7V44z"/>
	<path d="M56,7H8C7.44775,7,7,7.44775,7,8v7h50V8C57,7.44775,56.55225,7,56,7z M11,12c-0.55231,0-1-0.44775-1-1
		c0-0.55231,0.44769-1,1-1s1,0.44769,1,1C12,11.55225,11.55231,12,11,12z M15,12c-0.55231,0-1-0.44775-1-1c0-0.55231,0.44769-1,1-1
		s1,0.44769,1,1C16,11.55225,15.55231,12,15,12z M19,12c-0.55231,0-1-0.44775-1-1c0-0.55231,0.44769-1,1-1s1,0.44769,1,1
		C20,11.55225,19.55231,12,19,12z M52,12H40c-0.55225,0-1-0.44775-1-1s0.44775-1,1-1h12c0.55225,0,1,0.44775,1,1S52.55225,12,52,12z
		"/>
	<path d="M26,29h-1v4h1c1.10303,0,2-0.89697,2-2S27.10303,29,26,29z"/>
	<path d="M12,31c0,1.10303,0.89697,2,2,2h1v-4h-1C12.89697,29,12,29.89697,12,31z"/>
</g>
</svg>
