<?xml version="1.0" encoding="utf-8"?>
<!-- Generator: Adobe Illustrator 27.3.1, SVG Export Plug-In . SVG Version: 6.00 Build 0)  -->
<svg version="1.1" id="Glyph" xmlns="http://www.w3.org/2000/svg" xmlns:xlink="http://www.w3.org/1999/xlink" x="0px" y="0px"
	 viewBox="0 0 64 64" enable-background="new 0 0 64 64" xml:space="preserve">
<g>
	<path d="M46,26c-1.10455,0-2,0.89539-2,2v18c0,0.7384,0.40472,1.37616,1,1.7226V48c0,2.75684-2.24316,5-5,5h-2.18427
		C37.40161,51.8385,36.30194,51,35,51h-6c-1.6543,0-3,1.3457-3,3s1.3457,3,3,3h6c1.30194,0,2.40161-0.8385,2.81573-2H40
		c3.85938,0,7-3.14062,7-7v-0.2774c0.59528-0.34644,1-0.98419,1-1.7226V28C48,26.89539,47.10455,26,46,26z"/>
	<path d="M55,31.72095V30C55,17.31787,44.68262,7,32,7S9,17.31787,9,30v1.72095C7.75659,33.12952,7,34.97693,7,37
		c0,4.07178,3.06006,7.43591,7,7.93054V29.06946c-1.08295,0.13599-2.09528,0.49506-3,1.01971V30
		c0-5.93854,2.48853-11.29779,6.46454-15.12115l2.14874,2.14801c0.36816,0.36914,0.95898,0.39209,1.35645,0.05322
		C24.05078,14.44922,27.96777,13,32,13c4.03214,0,7.94905,1.44916,11.03008,4.07991
		c0.37254,0.31809,0.97871,0.32583,1.35664-0.05305l2.14874-2.14801C50.51147,18.70221,53,24.06146,53,30v0.08917
		c-0.90472-0.52466-1.91705-0.88373-3-1.01971v15.86108c3.93994-0.49463,7-3.85876,7-7.93054
		C57,34.97693,56.24341,33.12952,55,31.72095z"/>
	<path d="M40,32v10c0,0.45898,0.31249,0.8584,0.75781,0.96973L42,43.78027V30.21924l-1.24219,0.81055
		C40.31249,31.14111,40,31.54102,40,32z"/>
	<path d="M18,26c-1.10455,0-2,0.89539-2,2v18c0,1.10455,0.89545,2,2,2s2-0.89545,2-2V28C20,26.89539,19.10455,26,18,26z"/>
	<path d="M23.24219,31.02979L22,30.21924v13.56104l1.24219-0.81055C23.68749,42.8584,24,42.45898,24,42V32
		C24,31.54102,23.68749,31.14111,23.24219,31.02979z"/>
	<path d="M41,18H23c-0.55273,0-1,0.44775-1,1s0.44727,1,1,1h18c0.55273,0,1-0.44775,1-1S41.55273,18,41,18z"/>
	<path d="M23,24h3c0.55273,0,1-0.44775,1-1s-0.44727-1-1-1h-3c-0.55273,0-1,0.44775-1,1S22.44727,24,23,24z"/>
	<path d="M41,22H30c-0.55273,0-1,0.44775-1,1s0.44727,1,1,1h11c0.55273,0,1-0.44775,1-1S41.55273,22,41,22z"/>
	<path d="M23,28h18c0.55273,0,1-0.44775,1-1s-0.44727-1-1-1H23c-0.55273,0-1,0.44775-1,1S22.44727,28,23,28z"/>
</g>
</svg>
