<?xml version="1.0" encoding="utf-8"?>
<!-- Generator: Adobe Illustrator 27.3.1, SVG Export Plug-In . SVG Version: 6.00 Build 0)  -->
<svg version="1.1" id="Glyph" xmlns="http://www.w3.org/2000/svg" xmlns:xlink="http://www.w3.org/1999/xlink" x="0px" y="0px"
	 viewBox="0 0 64 64" enable-background="new 0 0 64 64" xml:space="preserve">
<g>
	<rect x="13" y="45" width="38" height="2"/>
	<polygon points="36.38184,51 37.38184,49 26.61816,49 27.61816,51 	"/>
	<path d="M56,49H39.61816l-1.72363,3.44727C37.72461,52.78613,37.37891,53,37,53H27c-0.37891,0-0.72461-0.21387-0.89453-0.55273
		L24.38184,49H8c-0.55231,0-1,0.44769-1,1v2c0,0.26508,0.10535,0.51935,0.29279,0.70685l4.00037,4.00037
		C11.48059,56.89465,11.73486,57,12,57h40c0.26514,0,0.51941-0.10535,0.70685-0.29279l4.00018-4.00018
		C56.89459,52.51941,57,52.26501,57,51.99976V50C57,49.44769,56.55231,49,56,49z"/>
	<path d="M31,38v-2.97998c0-1.33594-0.89453-2.52344-2.1748-2.88818l-2.02435-0.5799C26.25714,31.82892,25.651,32,25,32
		c-0.65106,0-1.25714-0.17108-1.8009-0.44812l-2.02332,0.57947C19.89453,32.49658,19,33.68408,19,35.02002V38h2v-1
		c0-0.55225,0.44727-1,1-1s1,0.44775,1,1v1h4v-1c0-0.55225,0.44727-1,1-1s1,0.44775,1,1v1H31z"/>
	<path d="M25,30c1.10254,0,2-0.89697,2-2v-2c0-1.10303-0.89746-2-2-2s-2,0.89697-2,2v2C23,29.10303,23.89746,30,25,30z"/>
	<path d="M49,38v-7H36c-2.03003,0-3.84998-1.21002-4.62-3.09003c-0.78003-1.87-0.34998-4.01001,1.08002-5.45001L34.92969,20H15v18h2
		v-2.97998c0-2.22461,1.49121-4.20361,3.62598-4.81201l0.90289-0.25848C21.20209,29.37018,21,28.7113,21,28v-2
		c0-2.20557,1.79395-4,4-4s4,1.79443,4,4v2c0,0.71136-0.20209,1.37024-0.52893,1.94965L29.375,30.2085
		C31.50879,30.81641,33,32.79541,33,35.02002V38H49z"/>
	<path d="M55,31h-4v8c0,0.54999-0.45001,1-1,1H14c-0.54999,0-1-0.45001-1-1V19c0-0.54999,0.45001-1,1-1h21v-3H10
		c-0.54999,0-1,0.45001-1,1v27h46V31z"/>
	<path d="M56,7H40c-0.55273,0-1,0.44775-1,1v13.58594c0,0-3.68512,3.68506-3.70691,3.70691C34.67542,25.91052,35.12653,27,36,27h20
		c0.55273,0,1-0.44775,1-1V8C57,7.44775,56.55273,7,56,7z M46,24h-2c-0.55273,0-1-0.44775-1-1s0.44727-1,1-1h2
		c0.55273,0,1,0.44775,1,1S46.55273,24,46,24z M46,20h-2c-0.55273,0-1-0.44775-1-1s0.44727-1,1-1h2c0.55273,0,1,0.44775,1,1
		S46.55273,20,46,20z M46,16h-2c-0.55273,0-1-0.44775-1-1s0.44727-1,1-1h2c0.55273,0,1,0.44775,1,1S46.55273,16,46,16z M52,24h-2
		c-0.55273,0-1-0.44775-1-1s0.44727-1,1-1h2c0.55273,0,1,0.44775,1,1S52.55273,24,52,24z M52,20h-2c-0.55273,0-1-0.44775-1-1
		s0.44727-1,1-1h2c0.55273,0,1,0.44775,1,1S52.55273,20,52,20z M52,16h-2c-0.55273,0-1-0.44775-1-1s0.44727-1,1-1h2
		c0.55273,0,1,0.44775,1,1S52.55273,16,52,16z M52,12h-8c-0.55273,0-1-0.44775-1-1s0.44727-1,1-1h8c0.55273,0,1,0.44775,1,1
		S52.55273,12,52,12z"/>
</g>
</svg>
