<?xml version="1.0" encoding="utf-8"?>
<!-- Generator: Adobe Illustrator 27.3.1, SVG Export Plug-In . SVG Version: 6.00 Build 0)  -->
<svg version="1.1" id="Glyph" xmlns="http://www.w3.org/2000/svg" xmlns:xlink="http://www.w3.org/1999/xlink" x="0px" y="0px"
	 viewBox="0 0 64 64" enable-background="new 0 0 64 64" xml:space="preserve">
<g>
	<polygon points="21,7.58594 11.58594,17 21,17 	"/>
	<path d="M49,8c0-0.55225-0.44727-1-1-1H23v4h26V8z"/>
	<path d="M11,52c0,0.55225,0.44775,1,1,1h3V19h-4V52z"/>
	<circle cx="23" cy="47" r="1"/>
	<circle cx="23" cy="37" r="1"/>
	<circle cx="23" cy="27" r="1"/>
	<path d="M52,13H23v5c0,0.54999-0.45001,1-1,1h-5v37c0,0.54999,0.45001,1,1,1h34c0.54999,0,1-0.45001,1-1V14
		C53,13.45001,52.54999,13,52,13z M26,37c0,1.29999-0.84003,2.39996-2,2.82001v4.35999c1.15997,0.41998,2,1.52002,2,2.82001
		c0,1.64996-1.34998,3-3,3s-3-1.35004-3-3c0-1.29999,0.84003-2.40002,2-2.82001v-4.35999C20.84003,39.39996,20,38.29999,20,37
		s0.84003-2.40002,2-2.82001v-4.35999C20.84003,29.39996,20,28.29999,20,27c0-1.65002,1.34998-3,3-3s3,1.34998,3,3
		c0,1.29999-0.84003,2.39996-2,2.82001v4.35999C25.15997,34.59998,26,35.70001,26,37z M33,52h-4c-0.54999,0-1-0.45001-1-1
		s0.45001-1,1-1h4c0.54999,0,1,0.45001,1,1S33.54999,52,33,52z M41,52h-4c-0.54999,0-1-0.45001-1-1s0.45001-1,1-1h4
		c0.54999,0,1,0.45001,1,1S41.54999,52,41,52z M49,52h-4c-0.54999,0-1-0.45001-1-1s0.45001-1,1-1h4c0.54999,0,1,0.45001,1,1
		S49.54999,52,49,52z M49,48H29c-0.54999,0-1-0.45001-1-1s0.45001-1,1-1h20c0.54999,0,1,0.45001,1,1S49.54999,48,49,48z M33,24
		c0.54999,0,1,0.45001,1,1s-0.45001,1-1,1h-4c-0.54999,0-1-0.45001-1-1s0.45001-1,1-1H33z M31,20c0-0.54999,0.45001-1,1-1h12
		c0.54999,0,1,0.45001,1,1s-0.45001,1-1,1H32C31.45001,21,31,20.54999,31,20z M29,28h14c0.54999,0,1,0.45001,1,1s-0.45001,1-1,1H29
		c-0.54999,0-1-0.45001-1-1S28.45001,28,29,28z M42,37c0,0.54999-0.45001,1-1,1h-4c-0.54999,0-1-0.45001-1-1s0.45001-1,1-1h4
		C41.54999,36,42,36.45001,42,37z M29,36h4c0.54999,0,1,0.45001,1,1s-0.45001,1-1,1h-4c-0.54999,0-1-0.45001-1-1S28.45001,36,29,36z
		 M29,42h6c0.54999,0,1,0.45001,1,1s-0.45001,1-1,1h-6c-0.54999,0-1-0.45001-1-1S28.45001,42,29,42z M49,44H39
		c-0.54999,0-1-0.45001-1-1s0.45001-1,1-1h10c0.54999,0,1,0.45001,1,1S49.54999,44,49,44z M49,38h-4c-0.54999,0-1-0.45001-1-1
		s0.45001-1,1-1h4c0.54999,0,1,0.45001,1,1S49.54999,38,49,38z M49,30h-2c-0.54999,0-1-0.45001-1-1s0.45001-1,1-1h2
		c0.54999,0,1,0.45001,1,1S49.54999,30,49,30z M49,26H37c-0.54999,0-1-0.45001-1-1s0.45001-1,1-1h12c0.54999,0,1,0.45001,1,1
		S49.54999,26,49,26z M49,17H27c-0.54999,0-1-0.45001-1-1s0.45001-1,1-1h22c0.54999,0,1,0.45001,1,1S49.54999,17,49,17z"/>
</g>
</svg>
