<?xml version="1.0" encoding="utf-8"?>
<!-- Generator: Adobe Illustrator 27.3.1, SVG Export Plug-In . SVG Version: 6.00 Build 0)  -->
<svg version="1.1" id="Glyph" xmlns="http://www.w3.org/2000/svg" xmlns:xlink="http://www.w3.org/1999/xlink" x="0px" y="0px"
	 viewBox="0 0 64 64" enable-background="new 0 0 64 64" xml:space="preserve">
<g>
	<path d="M25.88,47c-0.21002,1.40997-0.70001,2.76996-1.44,4h15.12c-0.73999-1.23999-1.22998-2.59003-1.44-4H25.88z"/>
	<path d="M44,53H20c-0.55231,0-1,0.44769-1,1v2c0,0.55225,0.44769,1,1,1h24c0.55231,0,1-0.44775,1-1v-2
		C45,53.44769,44.55231,53,44,53z"/>
	<circle cx="24" cy="30" r="1"/>
	<path d="M45,8c0-0.55231-0.44769-1-1-1H20c-0.55231,0-1,0.44769-1,1v29h26V8z M23,11h18c0.55273,0,1,0.44775,1,1s-0.44727,1-1,1H23
		c-0.55225,0-1-0.44775-1-1S22.44775,11,23,11z M34,21h-4c-0.55225,0-1-0.44775-1-1s0.44775-1,1-1h4c0.55273,0,1,0.44775,1,1
		S34.55273,21,34,21z M35,24c0,0.55225-0.44727,1-1,1h-4c-0.55225,0-1-0.44775-1-1s0.44775-1,1-1h4C34.55273,23,35,23.44775,35,24z
		 M26,17c-0.55225,0-1-0.44775-1-1s0.44775-1,1-1h12c0.55273,0,1,0.44775,1,1s-0.44727,1-1,1H26z M24,33c-1.6543,0-3-1.3457-3-3
		s1.3457-3,3-3s3,1.3457,3,3S25.6543,33,24,33z M24,25c-1.6543,0-3-1.3457-3-3s1.3457-3,3-3s3,1.3457,3,3S25.6543,25,24,25z M36,33
		h-6c-0.55225,0-1-0.44775-1-1s0.44775-1,1-1h6c0.55273,0,1,0.44775,1,1S36.55273,33,36,33z M36,29h-6c-0.55225,0-1-0.44775-1-1
		s0.44775-1,1-1h6c0.55273,0,1,0.44775,1,1S36.55273,29,36,29z M42,33h-2c-0.55273,0-1-0.44775-1-1s0.44727-1,1-1h2
		c0.55273,0,1,0.44775,1,1S42.55273,33,42,33z M42,29h-2c-0.55273,0-1-0.44775-1-1s0.44727-1,1-1h2c0.55273,0,1,0.44775,1,1
		S42.55273,29,42,29z M42,25h-4c-0.55273,0-1-0.44775-1-1s0.44727-1,1-1h4c0.55273,0,1,0.44775,1,1S42.55273,25,42,25z M42,21h-4
		c-0.55273,0-1-0.44775-1-1s0.44727-1,1-1h4c0.55273,0,1,0.44775,1,1S42.55273,21,42,21z"/>
	<path d="M56,13h-9v24h10V14C57,13.44775,56.55273,13,56,13z M50,35c-0.55231,0-1-0.44775-1-1c0-0.55231,0.44769-1,1-1
		s1,0.44769,1,1C51,34.55225,50.55231,35,50,35z M50,31c-0.55231,0-1-0.44775-1-1c0-0.55231,0.44769-1,1-1s1,0.44769,1,1
		C51,30.55225,50.55231,31,50,31z M50,27c-0.55231,0-1-0.44775-1-1c0-0.55231,0.44769-1,1-1s1,0.44769,1,1
		C51,26.55225,50.55231,27,50,27z"/>
	<path d="M17,13H8c-0.55225,0-1,0.44775-1,1v23h10V13z M12,19c-0.55231,0-1-0.44775-1-1c0-0.55231,0.44769-1,1-1s1,0.44769,1,1
		C13,18.55225,12.55231,19,12,19z"/>
	<path d="M7,44c0,0.55225,0.44775,1,1,1h48c0.55273,0,1-0.44775,1-1v-5H7V44z"/>
	<circle cx="24" cy="22" r="1"/>
</g>
</svg>
