<?xml version="1.0" encoding="utf-8"?>
<!-- Generator: Adobe Illustrator 27.3.1, SVG Export Plug-In . SVG Version: 6.00 Build 0)  -->
<svg version="1.1" id="Glyph" xmlns="http://www.w3.org/2000/svg" xmlns:xlink="http://www.w3.org/1999/xlink" x="0px" y="0px"
	 viewBox="0 0 64 64" enable-background="new 0 0 64 64" xml:space="preserve">
<g>
	<path d="M41.65002,48.52997c-4.20998,3.86996-8.01995,5.98995-8.19001,6.09003c-0.8666,0.50998-2.05225,0.51069-2.92003-0.00001
		c-0.16999-0.10004-3.97998-2.22004-8.19-6.09003C20.17999,49.39996,19,50.58997,19,52c0,3.27997,6.53998,5,13,5s13-1.72003,13-5
		C45,50.58997,43.82001,49.39996,41.65002,48.52997z"/>
	<path d="M38,25c-0.55127,0-1,0.44824-1,1v10c0,0.55176,0.44873,1,1,1s1-0.44824,1-1V26C39,25.44824,38.55127,25,38,25z"/>
	<path d="M23,27c-2.20557,0-4,1.79395-4,4s1.79443,4,4,4V27z"/>
	<path d="M26,37c0.55127,0,1-0.44824,1-1V26c0-0.55176-0.44873-1-1-1s-1,0.44824-1,1v10C25,36.55176,25.44873,37,26,37z"/>
	<path d="M37.98486,16.60059l1.19409-1.19354C37.17413,13.90283,34.69354,13,32,13s-5.17413,0.90283-7.17896,2.40704
		l1.19409,1.19354C29.646,14.50098,34.354,14.50098,37.98486,16.60059z"/>
	<path d="M31.51416,52.87402c0.28628,0.1587,0.66905,0.16791,0.97168,0c0.18848-0.10449,4.67432-2.62012,9.22119-7.16699
		C47.78662,39.62793,51,32.81348,51,26c0-10.47656-8.52344-19-19-19s-19,8.52344-19,19c0,6.81348,3.21338,13.62793,9.29297,19.70703
		C26.83943,50.25349,31.32486,52.76907,31.51416,52.87402z M17,31c0-1.22278,0.36945-2.36005,1-3.30957V25
		c0-7.71973,6.28027-14,14-14s14,6.28027,14,14v2.69043c0.63055,0.94952,1,2.08679,1,3.30957c0,3.30859-2.69141,6-6,6h-0.18427
		C40.51367,37.84717,39.84717,38.51367,39,38.81573V39c0,2.20605-1.79443,4-4,4h-6c-0.55225,0-1-0.44727-1-1s0.44775-1,1-1h6
		c1.10303,0,2-0.89746,2-2v-0.18433C35.8385,38.40155,35,37.30194,35,36V26c0-1.6543,1.3457-3,3-3
		c1.30194,0,2.40161,0.8385,2.81573,2H41c1.09344,0,2.11627,0.29877,3,0.81177V25c0-3.20325-1.26904-6.11011-3.32129-8.26428
		c0,0-1.8418,1.84143-1.8419,1.84154c-0.33815,0.33805-0.87006,0.38971-1.26601,0.12197c-3.29785-2.22266-7.84375-2.22266-11.1416,0
		c-0.39844,0.26855-0.92773,0.21582-1.26611-0.12207l-1.8418-1.84143C21.26904,18.88989,20,21.79675,20,25v0.81177
		C20.88373,25.29877,21.90656,25,23,25h0.18427c0.41412-1.1615,1.51379-2,2.81573-2c1.6543,0,3,1.3457,3,3v10c0,1.6543-1.3457,3-3,3
		c-1.30194,0-2.40155-0.8385-2.81567-2H23C19.69141,37,17,34.30859,17,31z"/>
	<path d="M41,27v8c2.20557,0,4-1.79395,4-4S43.20557,27,41,27z"/>
</g>
</svg>
