<?xml version="1.0" encoding="utf-8"?>
<!-- Generator: Adobe Illustrator 27.3.1, SVG Export Plug-In . SVG Version: 6.00 Build 0)  -->
<svg version="1.1" id="Glyph" xmlns="http://www.w3.org/2000/svg" xmlns:xlink="http://www.w3.org/1999/xlink" x="0px" y="0px"
	 viewBox="0 0 64 64" enable-background="new 0 0 64 64" xml:space="preserve">
<g>
	<path d="M23,41v-8c-2.20605,0-4,1.79395-4,4S20.79395,41,23,41z"/>
	<path d="M32,19c-2.69366,0-5.17426,0.90277-7.17902,2.40692l1.19366,1.19366c3.63281-2.09961,8.33789-2.09961,11.9707,0
		l1.19366-1.19366C37.17426,19.90277,34.69366,19,32,19z"/>
	<path d="M38,31c-0.55176,0-1,0.44824-1,1v10c0,0.55176,0.44824,1,1,1s1-0.44824,1-1V32C39,31.44824,38.55176,31,38,31z"/>
	<path d="M36,13.33575c4.93261,2.37408,10.46815,3.49475,15.94585,3.19552C52.50834,16.50055,53,16.96732,53,17.5293V28h4
		c0,0,0-14.92604,0-14.99973c0-0.59982-0.57714-1.09926-1.19629-0.98074c-6.2334,1.24805-12.79492,0.37109-18.47656-2.47363
		L36,8.8822V13.33575z"/>
	<path d="M56.94965,30h-4c-0.06543,1.36359-0.24084,2.69885-0.521,4h4.08862C56.7569,32.69403,56.89374,31.35706,56.94965,30z"/>
	<path d="M26,43c0.55176,0,1-0.44824,1-1V32c0-0.55176-0.44824-1-1-1s-1,0.44824-1,1v10C25,42.55176,25.44824,43,26,43z"/>
	<path d="M41,41c2.20605,0,4-1.79395,4-4s-1.79395-4-4-4V41z"/>
	<path d="M28,52.04962C20.25574,49.59894,14.40198,43.54047,12.09229,36H7.9118C10.43054,45.72638,17.97711,53.5166,28,56.20532
		V52.04962z"/>
	<path d="M34,52.59857c-0.59125,0.13599-1.20984,0.25745-1.85255,0.35358c-0.09809,0.01373-0.1959,0.01373-0.29393,0
		C31.21649,52.85767,30.5976,52.73645,30,52.5993v4.08649c0.61017,0.11847,1.2326,0.22485,1.87402,0.3064
		c0.07502,0.00954,0.16972,0.00956,0.25195,0c0.64203-0.0816,1.26453-0.18811,1.87402-0.30652V52.59857z"/>
	<path d="M51.90894,36C49.60034,43.54474,43.7464,49.60382,36,52.04974v4.15497C46.0246,53.51385,53.56976,45.72467,56.0882,36
		H51.90894z"/>
	<path d="M11.05042,30H7.05035c0.05591,1.35706,0.19269,2.69403,0.43237,4h4.08929C11.29156,32.69885,11.11584,31.36359,11.05042,30
		z"/>
	<path d="M11,28c0,0,0-10.45006,0-10.4697c0-0.54611,0.48841-1.06268,1.05371-0.99808
		C17.51959,16.81635,23.06451,15.70917,28,13.33545V8.88184L26.67188,9.5459c-5.662,2.83784-12.3435,3.71286-18.47328,2.4737
		C7.59078,11.89673,7,12.384,7,13v15H11z"/>
	<path d="M51,28.80957V18.56934c-5.64648,0.1416-11.31641-1.13281-16.35742-3.65723L32,13.59082l-2.64062,1.32031
		C24.31738,17.4375,18.62402,18.71289,13,18.57031v10.23926c0,10.40723,7.06641,19.36523,17.18457,21.7832
		c0.58105,0.14258,1.18945,0.2627,1.81445,0.3584c0.63867-0.09863,1.25391-0.2207,1.83301-0.36328
		C43.94238,48.17285,51,39.2168,51,28.80957z M39,44.81573V45c0,2.20605-1.79395,4-4,4h-6c-0.55273,0-1-0.44727-1-1s0.44727-1,1-1h6
		c1.10254,0,2-0.89746,2-2v-0.18433C35.8385,44.40155,35,43.30194,35,42V32c0-1.6543,1.3457-3,3-3
		c1.30194,0,2.40161,0.8385,2.81573,2H41c1.09344,0,2.11627,0.29877,3,0.81177V31c0-3.20337-1.2691-6.11035-3.32141-8.26453
		c0,0-1.84167,1.84167-1.84171,1.84171c-0.33532,0.33529-0.87299,0.38829-1.26559,0.12204
		c-3.29883-2.22266-7.84375-2.22266-11.14258,0c-0.39551,0.26953-0.92676,0.2168-1.26562-0.12207l-1.84167-1.84167
		C21.2691,24.88965,20,27.79663,20,31v0.81177C20.88373,31.29877,21.90656,31,23,31h0.18427c0.41412-1.1615,1.51379-2,2.81573-2
		c1.6543,0,3,1.3457,3,3v10c0,1.6543-1.3457,3-3,3c-1.30194,0-2.40155-0.8385-2.81567-2H23c-3.30859,0-6-2.69141-6-6
		c0-1.22278,0.36945-2.36005,1-3.30957V31c0-7.71973,6.28027-14,14-14s14,6.28027,14,14v2.69043
		c0.63055,0.94952,1,2.08679,1,3.30957c0,3.30859-2.69141,6-6,6h-0.18427C40.51367,43.84717,39.84717,44.51367,39,44.81573z"/>
	<path d="M30,12.35425l1.55273-0.77612c0.28125-0.14062,0.61328-0.14062,0.89453,0L34,12.35425V7.88202l-1.55273-0.77655
		c-0.28125-0.14062-0.61328-0.14062-0.89453,0L30,7.88184V12.35425z"/>
</g>
</svg>
