<?xml version="1.0" encoding="utf-8"?>
<!-- Generator: Adobe Illustrator 27.3.1, SVG Export Plug-In . SVG Version: 6.00 Build 0)  -->
<svg version="1.1" id="Glyph" xmlns="http://www.w3.org/2000/svg" xmlns:xlink="http://www.w3.org/1999/xlink" x="0px" y="0px"
	 viewBox="0 0 64 64" enable-background="new 0 0 64 64" xml:space="preserve">
<g>
	<path d="M24.41455,22.15869L23,18.02393l-1.41455,4.13477c-0.13867,0.4043-0.51855,0.67627-0.94629,0.67627h-4.4292
		l3.53809,2.44141c0.36865,0.25439,0.52344,0.72314,0.37842,1.14697l-1.37939,4.03174l3.68506-2.54297
		c0.1709-0.11768,0.36914-0.17676,0.56787-0.17676s0.39697,0.05908,0.56787,0.17676l3.68506,2.54297l-1.37939-4.03174
		c-0.14502-0.42383,0.00977-0.89258,0.37842-1.14697l3.53809-2.44141h-4.4292
		C24.93311,22.83496,24.55322,22.56299,24.41455,22.15869z"/>
	<path d="M56.99219,8.12402c0.07862-0.63172-0.45087-1.17069-1.08057-1.12011C40.04452,8.41405,23.95573,8.41406,8.08863,7.00393
		c-0.63136-0.05611-1.15918,0.49519-1.08081,1.1201c1.31689,10.53467,1.31689,21.21729,0,31.75196
		c-0.07776,0.62012,0.44998,1.18616,1.08057,1.12011c1.69727-0.15039,3.52441-0.29102,5.54932-0.42676
		c0,0-2.56053,7.04183-2.57755,7.08863C10.82505,48.30451,11.31577,49,12,49h4.71924c0,0-1.6836,6.7344-1.68947,6.75789
		c-0.24299,0.97198,1.09745,1.65047,1.7383,0.88274c0,0,9.98856-11.98627,9.99999-11.99999C27.303,43.9987,26.83476,43,26,43
		h-6.4834l1.2124-2.8291c11.6932-0.48632,23.52654-0.21095,35.18214,0.82515c0.63094,0.05608,1.15979-0.49216,1.08104-1.12008
		C55.67532,29.34149,55.67529,18.65906,56.99219,8.12402z M33.56787,22.6582l-5.55664,3.83447c0,0,2.10617,6.15709,2.11521,6.18351
		c0.30106,0.88011-0.75129,1.673-1.51413,1.14706L23,29.9502c0,0-5.59739,3.86275-5.61227,3.87303
		c-0.33805,0.23329-0.84359,0.22254-1.17146-0.02639c-0.33995-0.25753-0.48116-0.71585-0.34273-1.12057
		c0.00001-0.00003,2.11523-6.18359,2.11523-6.18359s-5.54653-3.8275-5.55663-3.83446
		c-0.79119-0.54598-0.3899-1.82325,0.56786-1.82325h6.92432l2.12939-6.22412c0.13867-0.4043,0.51855-0.67627,0.94629-0.67627
		s0.80762,0.27197,0.94629,0.67627l2.12939,6.22412c0,0,6.91168,0,6.9243,0C33.96087,20.83496,34.35788,22.11333,33.56787,22.6582z
		 M51,33H37c-0.55225,0-1-0.44775-1-1s0.44775-1,1-1h14c0.55225,0,1,0.44775,1,1S51.55225,33,51,33z M51,29H37
		c-0.55225,0-1-0.44775-1-1s0.44775-1,1-1h14c0.55225,0,1,0.44775,1,1S51.55225,29,51,29z M51,25H37c-0.55225,0-1-0.44775-1-1
		s0.44775-1,1-1h14c0.55225,0,1,0.44775,1,1S51.55225,25,51,25z M36,20c0-0.55225,0.44775-1,1-1h5c0.55225,0,1,0.44775,1,1
		s-0.44775,1-1,1h-5C36.44775,21,36,20.55225,36,20z M51,21h-5c-0.55225,0-1-0.44775-1-1s0.44775-1,1-1h5c0.55225,0,1,0.44775,1,1
		S51.55225,21,51,21z M51,17H37c-0.55225,0-1-0.44775-1-1s0.44775-1,1-1h14c0.55225,0,1,0.44775,1,1S51.55225,17,51,17z"/>
</g>
</svg>
