<?xml version="1.0" encoding="utf-8"?>
<!-- Generator: Adobe Illustrator 27.3.1, SVG Export Plug-In . SVG Version: 6.00 Build 0)  -->
<svg version="1.1" id="Glyph" xmlns="http://www.w3.org/2000/svg" xmlns:xlink="http://www.w3.org/1999/xlink" x="0px" y="0px"
	 viewBox="0 0 64 64" enable-background="new 0 0 64 64" xml:space="preserve">
<g>
	<polygon points="21,7.58594 11.58594,17 21,17 	"/>
	<rect x="22" y="48" width="26" height="2"/>
	<path d="M15,19h-4v33c0,0.55273,0.44775,1,1,1h3V19z"/>
	<path d="M23,13v5c0,0.55228-0.44772,1-1,1h-5v37c0,0.55228,0.44772,1,1,1h34c0.55228,0,1-0.44772,1-1V14c0-0.55229-0.44772-1-1-1
		H23z M21,22h12c0.55225,0,1,0.44727,1,1s-0.44775,1-1,1H21c-0.55225,0-1-0.44727-1-1S20.44775,22,21,22z M21,26h17
		c0.55225,0,1,0.44727,1,1s-0.44775,1-1,1H21c-0.55225,0-1-0.44727-1-1S20.44775,26,21,26z M21,42h17c0.55225,0,1,0.44727,1,1
		s-0.44775,1-1,1H21c-0.55225,0-1-0.44727-1-1S20.44775,42,21,42z M20,39c0-0.55273,0.44775-1,1-1h12c0.55225,0,1,0.44727,1,1
		s-0.44775,1-1,1H21C20.44775,40,20,39.55273,20,39z M50,51c0,0.55273-0.44775,1-1,1H21c-0.55225,0-1-0.44727-1-1v-4
		c0-0.55273,0.44775-1,1-1h28c0.55225,0,1,0.44727,1,1V51z M50,35c0,0.55273-0.44775,1-1,1H21c-0.55225,0-1-0.44727-1-1v-4
		c0-0.55273,0.44775-1,1-1h28c0.55225,0,1,0.44727,1,1V35z M49,18H27c-0.55225,0-1-0.44727-1-1s0.44775-1,1-1h22
		c0.55225,0,1,0.44727,1,1S49.55225,18,49,18z"/>
	<rect x="22" y="32" width="26" height="2"/>
	<path d="M23,11h26V8c0-0.55273-0.44775-1-1-1H23V11z"/>
</g>
</svg>
