<?xml version="1.0" encoding="utf-8"?>
<!-- Generator: Adobe Illustrator 27.3.1, SVG Export Plug-In . SVG Version: 6.00 Build 0)  -->
<svg version="1.1" id="Glyph" xmlns="http://www.w3.org/2000/svg" xmlns:xlink="http://www.w3.org/1999/xlink" x="0px" y="0px"
	 viewBox="0 0 64 64" enable-background="new 0 0 64 64" xml:space="preserve">
<g>
	<path d="M26.08942,36.50348c0,0-6.02677,6.01982-6.03619,6.02924c-0.38941,0.38897-0.38964,1.02686-0.00049,1.41602
		c0.39062,0.39062,1.02539,0.39014,1.41504,0.00049l6.0376-6.02979L26.08942,36.50348z"/>
	<path d="M37,38c-1.08667,0-2.13464-0.16425-3.12683-0.45911c0,0-2.66169,2.66169-2.66613,2.66613
		c-0.36454,0.36454-1.01956,0.3945-1.41407,0l-0.87347-0.87347l-3.73407,3.72943C27.23431,44.33118,29.56665,45,32,45
		c6.18152,0,11.35913-4.34015,12.67035-10.13074C42.68701,36.80292,39.98218,38,37,38z"/>
	<path d="M31.86523,36.7207c-1.94995-1.03424-3.5517-2.63599-4.58594-4.58594L25.91406,33.5L30.5,38.08594L31.86523,36.7207z"/>
	<path d="M23.79297,34.20703c-0.39062-0.39062-0.39062-1.02344,0-1.41406l2.66614-2.66614C26.16425,29.13464,26,28.08667,26,27
		c0-2.98218,1.19708-5.68701,3.13074-7.67035C23.34015,20.64087,19,25.81848,19,32c0,2.43848,0.6687,4.77386,1.93652,6.82397
		l3.73883-3.73456L23.79297,34.20703z"/>
	<path d="M56.0415,28.00098c-1.33838-0.05566-2.05811-0.98242-2.28516-1.83057c-0.22754-0.84814-0.06738-2.01025,1.06396-2.72803
		c0.45264-0.28711,0.59863-0.87988,0.33057-1.34424l-3-5.19629c-0.26807-0.46338-0.854-0.63428-1.32959-0.38623
		c-1.18701,0.62109-2.27344,0.1792-2.89453-0.44238c-0.62109-0.62109-1.06348-1.70752-0.44238-2.89453
		c0.24854-0.4751,0.07812-1.06152-0.38623-1.32959l-5.19629-3c-0.46289-0.26807-1.05762-0.12158-1.34424,0.33057
		c-0.71826,1.13037-1.87793,1.2915-2.72803,1.06396c-0.84814-0.22705-1.7749-0.94678-1.83057-2.28516
		C35.97705,7.42285,35.53613,7,35,7h-6c-0.53613,0-0.97705,0.42285-0.99902,0.9585
		c-0.05566,1.33838-0.98242,2.05811-1.83057,2.28516c-0.84912,0.22705-2.01074,0.06738-2.72803-1.06396
		c-0.28662-0.45215-0.87891-0.59863-1.34424-0.33057l-5.19629,3c-0.46436,0.26807-0.63477,0.85449-0.38623,1.32959
		c0.62109,1.18701,0.17871,2.27344-0.44238,2.89453c-0.62158,0.62158-1.70703,1.06348-2.89453,0.44238
		c-0.47412-0.24805-1.06152-0.07715-1.32959,0.38623l-3,5.19629c-0.26807,0.46436-0.12207,1.05713,0.33057,1.34424
		c1.13135,0.71777,1.2915,1.87988,1.06396,2.72803c-0.22705,0.84814-0.94678,1.7749-2.28516,1.83057
		C7.42285,28.02295,7,28.46387,7,29v6c0,0.53613,0.42285,0.97705,0.9585,0.99902c1.33838,0.05566,2.05811,0.98242,2.28516,1.83057
		c0.22754,0.84814,0.06738,2.01025-1.06396,2.72803c-0.45264,0.28711-0.59863,0.87988-0.33057,1.34424l3,5.19629
		c0.26807,0.46387,0.85547,0.63428,1.32959,0.38623c1.1875-0.62207,2.27295-0.17969,2.89453,0.44238
		c0.62109,0.62109,1.06348,1.70752,0.44238,2.89453c-0.24854,0.4751-0.07812,1.06152,0.38623,1.32959l5.19629,3
		c0.46533,0.26904,1.05762,0.12256,1.34424-0.33057c0.71777-1.13135,1.87646-1.29248,2.72803-1.06396
		c0.84814,0.22705,1.7749,0.94678,1.83057,2.28516C28.02295,56.57715,28.46387,57,29,57h6c0.53613,0,0.97705-0.42285,0.99902-0.9585
		c0.05566-1.33838,0.98242-2.05811,1.83057-2.28516c0.84766-0.22656,2.01025-0.06787,2.72803,1.06396
		c0.28662,0.45312,0.88135,0.59961,1.34424,0.33057l5.19629-3c0.46436-0.26807,0.63477-0.85449,0.38623-1.32959
		c-0.62109-1.18701-0.17871-2.27344,0.44238-2.89453c0.62109-0.62207,1.70752-1.06445,2.89453-0.44238
		c0.47559,0.24805,1.06152,0.07764,1.32959-0.38623l3-5.19629c0.26807-0.46436,0.12207-1.05713-0.33057-1.34424
		c-1.13135-0.71777-1.2915-1.87988-1.06396-2.72803c0.22705-0.84814,0.94678-1.7749,2.28516-1.83057
		C56.57715,35.97705,57,35.53613,57,35v-6C57,28.46387,56.57715,28.02295,56.0415,28.00098z M46.98584,31.58514
		C46.99072,31.72241,47,31.85944,47,32c0,8.271-6.729,15-15,15c-2.96686,0-5.80145-0.86542-8.25922-2.49414
		c0,0-0.85905,0.85802-0.85944,0.8584c-1.13395,1.13258-3.07511,1.16694-4.24256-0.00135
		c-1.15411-1.15495-1.15081-3.09406,0.00135-4.24523l0.85223-0.85126C17.86469,37.80865,17,34.97162,17,32c0-8.271,6.729-15,15-15
		c0.14056,0,0.27759,0.00928,0.41486,0.01416C33.81274,16.36957,35.36237,16,37,16c6.06543,0,11,4.93457,11,11
		C48,28.63763,47.63043,30.18726,46.98584,31.58514z"/>
	<path d="M37,18c-4.9624,0-9,4.0376-9,9s4.0376,9,9,9s9-4.0376,9-9S41.9624,18,37,18z M37,33c-0.55231,0-1-0.44775-1-1
		c0-0.55231,0.44769-1,1-1s1,0.44769,1,1C38,32.55225,37.55231,33,37,33z M38.77246,26.42041
		C38.48389,26.63232,38,27.08398,38,27.7373V28c0,0.55225-0.44775,1-1,1s-1-0.44775-1-1v-0.2627
		c0-1.12158,0.57959-2.18945,1.59033-2.92969C37.85059,24.6167,38,24.32227,38,24c0-0.55127-0.44873-1-1-1s-1,0.44873-1,1
		c0,0.55225-0.44775,1-1,1s-1-0.44775-1-1c0-1.6543,1.3457-3,3-3s3,1.3457,3,3C40,24.95215,39.54102,25.85693,38.77246,26.42041z"/>
</g>
</svg>
