<?xml version="1.0" encoding="utf-8"?>
<!-- Generator: Adobe Illustrator 27.3.1, SVG Export Plug-In . SVG Version: 6.00 Build 0)  -->
<svg version="1.1" id="Glyph" xmlns="http://www.w3.org/2000/svg" xmlns:xlink="http://www.w3.org/1999/xlink" x="0px" y="0px"
	 viewBox="0 0 64 64" enable-background="new 0 0 64 64" xml:space="preserve">
<g>
	<path d="M56.65771,48.24658C47.09473,39.90088,36.22803,39,32,39c-12.69385,0-21.47266,6.46631-24.65771,9.24658
		c-0.25488,0.22266-0.38037,0.55957-0.33203,0.89502L7.27576,51h15.19269l0.38947-1.36328C26.49805,47.34863,30.12939,47,32,47
		c4.21191,0,7.43652,1.56982,9.14209,2.63721L41.53143,51h15.19281l0.2655-1.8584
		C57.03809,48.80615,56.9126,48.46924,56.65771,48.24658z"/>
	<path d="M8.01025,56.1416C8.08057,56.63428,8.50244,57,9,57h11c0.44629,0,0.83887-0.2959,0.96143-0.7251L21.89703,53H7.56146
		L8.01025,56.1416z"/>
	<path d="M43.03857,56.2749C43.16113,56.7041,43.55371,57,44,57h11c0.49756,0,0.91943-0.36572,0.98975-0.8584L56.43854,53H42.10291
		L43.03857,56.2749z"/>
	<path d="M22.81,13.14996l-0.71002,0.71002l0.32001,0.32001C20.81,15.39996,19.44,16.89996,18.38,18.62l-0.52002-0.52002
		L17.15002,18.81c-0.19,0.19-0.45001,0.28998-0.71002,0.28998c-0.25,0-0.51001-0.09998-0.70001-0.28998
		c-0.39001-0.39001-0.39001-1.03003,0-1.41998l5.65002-5.65002c0.39001-0.39001,1.02997-0.39001,1.41998,0
		S23.20001,12.76001,22.81,13.14996z"/>
	<path d="M41.90076,13.85925l-0.32074,0.32074C43.19,15.39996,44.56,16.89996,45.62,18.62l0.52075-0.52075l0.70837,0.70837
		c0.19531,0.19531,0.45117,0.29297,0.70703,0.29297s0.51172-0.09766,0.70703-0.29297c0.39062-0.39062,0.39062-1.02344,0-1.41406
		l-5.65674-5.65674c-0.39062-0.39062-1.02344-0.39062-1.41406,0s-0.39062,1.02344,0,1.41406L41.90076,13.85925z"/>
	<path d="M18,27c0,4.45001,2.09003,8.41998,5.33002,10.97998C25.97998,37.37,28.88,37,32,37c1.85999,0,4.94,0.16998,8.64001,1
		C43.90002,35.45001,46,31.45996,46,27c0-6.61951-4.62231-12.16718-10.80548-13.61804C35.6936,12.7146,36,11.89557,36,11
		c0-2.20557-1.79443-4-4-4s-4,1.79443-4,4c0,0.89557,0.3064,1.7146,0.80548,2.38196C22.62231,14.83282,18,20.38049,18,27z M22,29
		c-0.55231,0-1-0.44775-1-1c0-0.55231,0.44769-1,1-1s1,0.44769,1,1C23,28.55225,22.55231,29,22,29z M42,27c0.55231,0,1,0.44769,1,1
		c0,0.55225-0.44769,1-1,1s-1-0.44775-1-1C41,27.44769,41.44769,27,42,27z M33,18c0,0.55225-0.44769,1-1,1s-1-0.44775-1-1
		c0-0.55231,0.44769-1,1-1S33,17.44769,33,18z M37.70703,22.29297c0.39062,0.39062,0.39062,1.02344,0,1.41406l-3.00763,3.00763
		C34.88654,27.10577,35,27.53827,35,28c0,1.6543-1.3457,3-3,3s-3-1.3457-3-3s1.3457-3,3-3c0.46173,0,0.89423,0.11346,1.28534,0.3006
		l3.00763-3.00763C36.68359,21.90234,37.31641,21.90234,37.70703,22.29297z M30,11c0-1.10303,0.89697-2,2-2s2,0.89697,2,2
		s-0.89697,2-2,2S30,12.10303,30,11z"/>
	<circle cx="32" cy="28" r="1"/>
</g>
</svg>
