<svg fill="#000000" xmlns="http://www.w3.org/2000/svg"  viewBox="0 0 48 48" width="24px" height="24px"><path d="M 20.996094 5 A 4 4 0 0 0 20.996094 13 A 4 4 0 0 0 20.996094 5 z M 18.996094 15.021484 A 1.50015 1.50015 0 0 0 17.476562 16.574219 L 14.921875 27.111328 C 14.921875 29.759328 15.332031 32.06 15.332031 35 L 9.9003906 39.695312 A 1.50015 1.50015 0 1 0 11.669922 42.117188 L 18.556641 37.384766 A 1.50015 1.50015 0 0 0 19.181641 36.416016 L 20.34375 29.978516 L 26.996094 28.324219 L 29.326172 35.625 L 29.394531 35.929688 A 1.5891589 1.5891589 0 1 0 32.496094 35.242188 L 30.378906 25.708984 A 1.5891589 1.5891589 0 0 0 28.75 24.466797 A 1.5891589 1.5891589 0 0 0 28.652344 24.474609 L 22.050781 25.207031 L 23.722656 18.021484 L 33.996094 18.021484 A 1.50015 1.50015 0 1 0 33.996094 15.021484 L 18.996094 15.021484 z M 31.974609 38.029297 C 29.769029 38.029297 27.975752 39.724757 27.777344 41.878906 A 1.50015 1.50015 0 1 0 27.796875 44.878906 L 36.269531 44.878906 A 1.50015 1.50015 0 1 0 36.269531 41.878906 L 36.173828 41.878906 C 35.975459 39.724713 34.181164 38.029297 31.974609 38.029297 z"/></svg>