<?xml version="1.0" encoding="UTF-8"?>
<svg id="Capa_2" data-name="Capa 2" xmlns="http://www.w3.org/2000/svg" viewBox="0 0 263.33 58.91">
  <defs>
    <style>
      .cls-1 {
        fill: #fff;
      }

      .cls-1, .cls-2 {
        stroke-width: 0px;
      }

      .cls-2 {
        fill: #e83b49;
      }
    </style>
  </defs>
  <g id="Newfit_Horizontal" data-name="Newfit Horizontal">
    <g>
      <g>
        <path class="cls-2" d="M99.95,9.05s-22.41,30.34-30.87,40.04c-1.61,1.84-2.75,3.19-3.78,4.08-2.41,2.07-3.52,1.93-3.52,1.93,0,0,1.22,1.07,3.49,1.07,1.83,0,4.15-.73,6.52-3.21,9.75-10.23,34-43.91,34-43.91h-5.84Z"/>
        <path class="cls-1" d="M120.57,0l-21.11.03h-2.33c-2.2,0-4.27.99-5.61,2.69l-24.72,31.56.03.04-15.51,19.74h0s0,0,0,0l-.02-.03-14.91-18.97-2.9,4.09,14.19,17.89c.84,1.15,2.2,1.83,3.65,1.83s2.84-.7,3.68-1.87l2.06-2.88h.04s12.97-16.5,12.97-16.5l-.03-.04L95.73,4.75h21.13l-32.84,43.16c-1.22,1.48-2.32,2.78-3.25,3.82-5.41,6.09-8.64,7.13-8.64,7.13l4.77-.09c2.57,0,4.16-.69,6.55-3.16,9.25-9.54,31.82-40.42,34.48-44.07l5.11-6.75C124.56,2.82,123.11,0,120.57,0Z"/>
        <path class="cls-1" d="M56.28,25.41c-1.03-1.88-2.46-3.13-4.56-3.13h-.64c-2.07,0-3.51,1.47-4.53,3.05h-.01l-19.61,28.87H6.6L35.76,11.59c1.13-1.54,2.15-2.9,3.02-3.99C43.82,1.22,46.99,0,46.99,0l-4.76.35c-2.56.14-4.11.92-6.35,3.51C27.19,13.9.52,54.2.52,54.2c-.39.58-.55,1.21-.52,1.81-.07,1.49,1.12,2.9,2.84,2.9l23.5-.04c2.02,0,3.91-.99,5.02-2.63l20.02-29.45,14.64,21.13,3.17-3.4-12.92-19.12Z"/>
        <path class="cls-1" d="M57.63,10.83c-2.01-2.22-4.92-3.78-8.03-3.39-4.57.58-7.38,5.25-9.85,8.58-2.52,3.4-23.4,35.48-23.55,35.48l5.6.02c2.59-4.06,21.86-32.86,23.51-35.19,1.23-1.73,2.62-3.38,4.94-3.54.28-.02.57-.01.85.02,2.56.27,3.98,2.23,5.92,4.63l9.03,13.27,2.8-3.76s-7.94-12.49-11.23-16.11Z"/>
      </g>
      <g>
        <path class="cls-2" d="M164.53,53.89v4.65h-17.28v-25.4h17.04v4.65h-11.21v5.33h10.69v4.65h-10.69v6.11h11.44Z"/>
        <path class="cls-2" d="M186.85,42.31l-7.26,16.56h-2.52l-10.3-25.72h6.2l5.52,14.02,6.01-14.02h4.7l6.02,14.02,5.47-14.02h6.2l-10.25,25.72h-2.52l-7.29-16.56Z"/>
        <path class="cls-2" d="M227.33,33.14v4.65h-10.3v5.67h10.3v4.65h-10.3v10.42h-5.84v-25.4h16.14Z"/>
        <path class="cls-2" d="M237.07,33.14v25.4h-5.84v-25.4h5.84Z"/>
        <g>
          <path class="cls-1" d="M250.12,33.12h-10.03v4.69h7.67s-.27-.44-.31-1.39c-.06-1.62,1.14-2.97,2.67-3.3Z"/>
          <path class="cls-2" d="M253.74,33.26c-.63,0-1.23.11-1.79.33-.37.15-.73.34-1.07.58-1.27.9-1.9,2.11-1.9,3.62v20.78h5.86v-20.85h8.49v-4.47h-9.59Z"/>
        </g>
        <g>
          <rect class="cls-2" x="119.93" y="58.49" width="5.84" height=".05"/>
          <path class="cls-1" d="M119.93,49.54v8.95h5.84v-5.09s-.56.21-1.73.08c-2.33-.25-3.7-2.04-4.1-3.93Z"/>
          <path class="cls-2" d="M137.79,33.14v15.53l-12.14-15.07-.37-.46h-5.35v11.94c0,.81.14,1.57.43,2.29.19.47.43.93.74,1.37,1.16,1.62,2.7,2.44,4.64,2.44l-.03-8.89s.06,0,.06,0l12.94,16.27h4.93v-25.4h-5.84Z"/>
        </g>
      </g>
    </g>
  </g>
</svg>