<svg fill="#000000" xmlns="http://www.w3.org/2000/svg"  viewBox="0 0 48 48" width="24px" height="24px"><path d="M 24.5 4 A 6.5 6.5 0 0 0 24.5 17 A 6.5 6.5 0 0 0 24.5 4 z M 20.617188 20 L 24.5 27.763672 L 28.382812 20 L 20.617188 20 z M 18.396484 20.03125 C 17.445484 20.11025 16.614734 20.570578 16.052734 21.267578 C 16.038734 21.280578 16.021812 21.288734 16.007812 21.302734 L 7.1152344 29.966797 C 5.7482344 31.320797 5.6213594 33.476469 6.8183594 34.980469 C 6.8453594 35.014469 6.8742969 35.048031 6.9042969 35.082031 L 13.519531 42.347656 C 13.915531 42.779656 14.457953 43 15.001953 43 C 15.481953 43 15.963656 42.827516 16.347656 42.478516 C 17.163656 41.735516 17.222516 40.470297 16.478516 39.654297 L 16.351562 39.515625 L 11.914062 32.947266 L 16.210938 30.162109 L 17.835938 41.822266 C 17.929937 42.496266 18.507453 43 19.189453 43 L 29.810547 43 C 30.492547 43 31.070062 42.496313 31.164062 41.820312 L 32.779297 30.232422 L 37.128906 33.074219 L 32.689453 39.353516 L 32.416016 39.652344 C 31.672016 40.468344 31.731828 41.735516 32.548828 42.478516 C 32.931828 42.828516 33.411578 43 33.892578 43 C 34.436578 43 34.977094 42.780656 35.371094 42.347656 L 41.988281 35.080078 C 42.018281 35.047078 42.047219 35.015469 42.074219 34.980469 C 43.271219 33.477469 43.145391 31.320844 41.775391 29.964844 L 33.074219 21.375 C 33.037219 21.339 32.996031 21.312297 32.957031 21.279297 C 32.394031 20.575297 31.557563 20.11125 30.601562 20.03125 L 25.117188 31 L 26.025391 31 C 26.563391 31 27 31.435656 27 31.972656 L 27 35.025391 C 27 35.563391 26.564344 36 26.027344 36 L 22.974609 36 C 22.436609 36 22 35.564344 22 35.027344 L 22 31.974609 C 22 31.436609 22.435656 31 22.972656 31 L 23.880859 31 L 18.396484 20.03125 z"/></svg>