<svg fill="#000000" xmlns="http://www.w3.org/2000/svg"  viewBox="0 0 48 48" width="24px" height="24px"><path d="M43 15A4 4 0 1043 23 4 4 0 1043 15zM22.185 22.744l-1.324.321C19.235 23.366 18 24.787 18 26.5c0 .009.003.018.003.027L12.376 29.5 4.278 33H4.28l-.212.063c-.793.238-1.244 1.074-1.005 1.868C3.258 35.581 3.854 36 4.5 36c.143 0 .288-.021.432-.064l19.296-5.789L22.185 22.744zM44 32h-6.5v-8c0-.086-.011-.168-.025-.25.006-.084.025-.164.025-.25 0-1.932-1.568-3.5-3.5-3.5-.171 0-.334.027-.498.05L33.5 20l-9.371 2.272 2.014 7.301 8.357-2.507V33.5c0 .829.671 1.5 1.5 1.5h8c.829 0 1.5-.671 1.5-1.5S44.829 32 44 32z"/></svg>