<svg fill="#000000" xmlns="http://www.w3.org/2000/svg"  viewBox="0 0 48 48" width="24px" height="24px"><path d="M 24 2 A 4 4 0 0 0 24 10 A 4 4 0 0 0 24 2 z M 21 11.5 A 1.50015 1.50015 0 0 0 20.050781 11.839844 L 9.0507812 20.839844 A 1.50015 1.50015 0 1 0 10.949219 23.160156 L 19.042969 16.539062 C 19.042969 16.539062 19.042969 16.541016 19.042969 16.541016 C 19.013019 16.857973 19 17.179115 19 17.5 L 19 29 L 19 40.5 A 1.50015 1.50015 0 1 0 22 40.5 L 22 30 L 26 30 L 26 34.5 A 1.50015 1.50015 0 1 0 29 34.5 L 29 24.5 L 29 17.5 C 29 17.179115 28.986981 16.85602 28.957031 16.539062 L 37.050781 23.160156 A 1.50015 1.50015 0 1 0 38.949219 20.839844 L 27.949219 11.839844 A 1.50015 1.50015 0 0 0 27 11.5 L 21 11.5 z M 8.921875 24.478516 A 1.50015 1.50015 0 0 0 7.4375 25.660156 C 7.1507837 26.896002 7 28.183118 7 29.5 C 7 38.866806 14.633194 46.5 24 46.5 C 33.366806 46.5 41 38.866806 41 29.5 C 41 28.183118 40.849888 26.897164 40.564453 25.662109 A 1.5004542 1.5004542 0 0 0 37.640625 26.337891 C 37.87519 27.352836 38 28.410882 38 29.5 C 38 37.243194 31.743194 43.5 24 43.5 C 16.256806 43.5 10 37.243194 10 29.5 C 10 28.410882 10.124091 27.353998 10.359375 26.339844 A 1.50015 1.50015 0 0 0 8.921875 24.478516 z"/></svg>