<svg fill="#000000" xmlns="http://www.w3.org/2000/svg"  viewBox="0 0 48 48" width="24px" height="24px"><path d="M 23.498047 4 C 21.566047 4 20 5.5680469 20 7.4980469 C 20 9.4320469 21.566047 11 23.498047 11 C 25.435047 11 27 9.4320469 27 7.4980469 C 27 5.5680469 25.435047 4 23.498047 4 z M 20.748047 12 C 20.619054 12 20.496746 12.024405 20.371094 12.037109 C 20.239288 12.041935 20.114926 12.060212 19.990234 12.076172 C 19.923987 12.084651 19.852875 12.086236 19.789062 12.097656 L 19.871094 12.085938 L 12.318359 13.011719 A 1.50015 1.50015 0 0 0 11.300781 13.599609 L 8.3007812 17.599609 A 1.50015 1.50015 0 1 0 10.699219 19.400391 L 13.306641 15.923828 L 17 16 L 15.476562 20.626953 C 15.248431 21.111774 15.109375 21.647833 15.109375 22.21875 C 15.109375 23.435664 15.697929 24.505633 16.59375 25.193359 L 16.589844 25.199219 L 22.287109 29.914062 L 22.041016 37.138672 L 22.023438 37.234375 A 1.500264 1.500264 0 1 0 24.976562 37.765625 L 26.457031 29.535156 A 1.50015 1.50015 0 0 0 26.238281 28.455078 L 26.244141 28.414062 L 22.232422 23.125 L 23.339844 18.935547 L 25.662109 20.833984 L 25.669922 20.84375 A 1.50015 1.50015 0 0 0 26.677734 21.417969 L 31.316406 21.988281 A 1.50015 1.50015 0 1 0 31.683594 19.011719 L 27.666016 18.517578 L 24.146484 13.9375 L 24.240234 14.072266 C 23.930594 13.562095 23.543859 13.174058 23.125 12.869141 C 22.475515 12.334993 21.656018 12 20.748047 12 z M 40.488281 19 A 1.50015 1.50015 0 0 0 39.5625 19.328125 L 34.5625 23.328125 A 1.5007322 1.5007322 0 1 0 36.4375 25.671875 L 38.566406 23.96875 L 36.824219 38.251953 L 9.4199219 39.853516 C 8.0599219 39.935516 7 41.061828 7 42.423828 C 7 43.846828 8.1531719 45 9.5761719 45 L 37.605469 45 C 39.479469 45 41 43.479469 41 41.605469 C 41 40.546841 40.506802 39.618899 39.753906 38.998047 L 41.988281 20.681641 A 1.50015 1.50015 0 0 0 40.488281 19 z M 15.544922 26.833984 L 14.595703 30.169922 L 10.400391 31.003906 L 10.398438 31.003906 A 1.50015 1.50015 0 1 0 10.601562 33.996094 L 16.621094 33.585938 A 1.50015 1.50015 0 0 0 18.029297 32.269531 L 19.162109 29.505859 L 15.544922 26.833984 z"/></svg>