<?xml version="1.0" encoding="utf-8"?>
<!-- Generator: Adobe Illustrator 27.3.1, SVG Export Plug-In . SVG Version: 6.00 Build 0)  -->
<svg version="1.1" id="Outline" xmlns="http://www.w3.org/2000/svg" xmlns:xlink="http://www.w3.org/1999/xlink" x="0px" y="0px"
	 viewBox="0 0 64 64" enable-background="new 0 0 64 64" xml:space="preserve">
<g>
	<circle cx="32" cy="12" r="1"/>
	<path d="M52,7H12c-0.54999,0-1,0.45001-1,1v48c0,0.54999,0.45001,1,1,1h40c0.54999,0,1-0.45001,1-1V8C53,7.45001,52.54999,7,52,7z
		 M23,9h18v2h-5c-0.54999,0-1,0.45001-1,1c0,1.64996-1.34998,3-3,3s-3-1.35004-3-3c0-0.54999-0.45001-1-1-1h-5V9z M51,55H13V9h8v2
		h-5c-0.54999,0-1,0.45001-1,1v40c0,0.54999,0.45001,1,1,1h32c0.54999,0,1-0.45001,1-1V29c0-0.54999-0.45001-1-1-1s-1,0.45001-1,1
		v22H17V13h10.09998c0.47003,2.27997,2.48004,4,4.90002,4s4.42999-1.72003,4.90002-4H47v8c0,0.54999,0.45001,1,1,1s1-0.45001,1-1v-9
		c0-0.54999-0.45001-1-1-1h-5V9h8V55z"/>
	<path d="M26,35h2c0.55273,0,1-0.44727,1-1v-6c0-0.55273-0.44727-1-1-1h-2c-0.32489,0-0.63635,0.04956-0.93896,0.12299
		C25.49475,23.67682,28.43823,21,32,21s6.50525,2.67682,6.93896,6.12299C38.63635,27.04956,38.32489,27,38,27h-2
		c-0.55273,0-1,0.44727-1,1v6c0,0.55273,0.44727,1,1,1h2c2.20605,0,4-1.79395,4-4c0-1.00555-0.38538-1.91455-1-2.61798V28
		c0-4.96289-4.03711-9-9-9s-9,4.03711-9,9v0.38202C22.38538,29.08545,22,29.99445,22,31C22,33.20605,23.79395,35,26,35z M38,33h-1
		v-4h1c1.10254,0,2,0.89746,2,2S39.10254,33,38,33z M27,29v4h-1c-1.10254,0-2-0.89746-2-2s0.89746-2,2-2H27z"/>
	<path d="M24.54297,37.79297L22.25,40.08594l-0.79297-0.79297c-0.39062-0.39062-1.02344-0.39062-1.41406,0
		s-0.39062,1.02344,0,1.41406c0,0,1.5,1.5,1.50035,1.50035c0.39361,0.39323,1.02024,0.39312,1.41371-0.00035
		c0.00048-0.00048,3-3,3-3c0.39062-0.39062,0.39062-1.02344,0-1.41406S24.93359,37.40234,24.54297,37.79297z"/>
	<path d="M43,39H29c-0.55273,0-1,0.44727-1,1s0.44727,1,1,1h14c0.55273,0,1-0.44727,1-1S43.55273,39,43,39z"/>
	<path d="M24.54297,43.79297L22.25,46.08594l-0.79297-0.79297c-0.39062-0.39062-1.02344-0.39062-1.41406,0
		s-0.39062,1.02344,0,1.41406c0,0,1.5,1.5,1.50041,1.50041c0.39244,0.39199,1.02211,0.39113,1.41365-0.00041
		c0.00008-0.00008,3-3,3-3c0.39062-0.39062,0.39062-1.02344,0-1.41406S24.93359,43.40234,24.54297,43.79297z"/>
	<path d="M43,45H29c-0.55273,0-1,0.44727-1,1s0.44727,1,1,1h14c0.55273,0,1-0.44727,1-1S43.55273,45,43,45z"/>
	<circle cx="48" cy="25" r="1"/>
</g>
</svg>
