<?xml version="1.0" encoding="utf-8"?>
<!-- Generator: Adobe Illustrator 27.3.1, SVG Export Plug-In . SVG Version: 6.00 Build 0)  -->
<svg version="1.1" id="Outline" xmlns="http://www.w3.org/2000/svg" xmlns:xlink="http://www.w3.org/1999/xlink" x="0px" y="0px"
	 viewBox="0 0 64 64" enable-background="new 0 0 64 64" xml:space="preserve">
<g>
	<path d="M56,24c0.54999,0,1-0.45001,1-1V8c0-0.54999-0.45001-1-1-1H8C7.45001,7,7,7.45001,7,8v36c0,0.54999,0.45001,1,1,1h18
		v0.39001C26,47.38,25.46002,49.31,24.44,51H20c-0.54999,0-1,0.45001-1,1v4c0,0.54999,0.45001,1,1,1h24c0.54999,0,1-0.45001,1-1v-4
		c0-0.54999-0.45001-1-1-1h-4.44C38.53998,49.31,38,47.38,38,45.39001V45h18c0.54999,0,1-0.45001,1-1V31c0-0.54999-0.45001-1-1-1
		s-1,0.45001-1,1v6H35V17h20v6C55,23.54999,55.45001,24,56,24z M9,17h24v20H9V17z M43,53v2H21v-2H43z M37.28003,51H26.71997
		C27.56,49.26001,28,47.34998,28,45.39001V45h8v0.39001C36,47.34998,36.44,49.26001,37.28003,51z M55,39v4H9v-4H55z M9,15V9h46v6H9z
		"/>
	<path d="M11,31c0,2.20557,1.79443,4,4,4h2c0.55225,0,1-0.44775,1-1v-6c0-0.55225-0.44775-1-1-1h-2
		c-0.32489,0-0.63635,0.04962-0.93896,0.12305C14.49463,23.67651,17.43774,21,21,21s6.50537,2.67651,6.93896,6.12305
		C27.63635,27.04962,27.32489,27,27,27h-2c-0.55225,0-1,0.44775-1,1v6c0,0.55225,0.44775,1,1,1h2c2.20557,0,4-1.79443,4-4
		c0-1.00525-0.38544-1.91412-1-2.61761V28c0-4.9624-4.0376-9-9-9s-9,4.0376-9,9v0.38239C11.38544,29.08588,11,29.99475,11,31z
		 M27,33h-1v-4h1c1.10303,0,2,0.89697,2,2S28.10303,33,27,33z M16,29v4h-1c-1.10303,0-2-0.89697-2-2s0.89697-2,2-2H16z"/>
	<circle cx="12" cy="12" r="1"/>
	<circle cx="16" cy="12" r="1"/>
	<circle cx="20" cy="12" r="1"/>
	<path d="M52,11H40c-0.55225,0-1,0.44775-1,1s0.44775,1,1,1h12c0.55225,0,1-0.44775,1-1S52.55225,11,52,11z"/>
	<path d="M44,21c0-0.55225-0.44775-1-1-1h-5c-0.55225,0-1,0.44775-1,1v4c0,0.55225,0.44775,1,1,1h5c0.55225,0,1-0.44775,1-1V21z
		 M42,24h-3v-2h3V24z"/>
	<path d="M43,28h-5c-0.55225,0-1,0.44775-1,1v4c0,0.55225,0.44775,1,1,1h5c0.55225,0,1-0.44775,1-1v-4
		C44,28.44775,43.55225,28,43,28z M42,32h-3v-2h3V32z"/>
	<path d="M53,21c0-0.55225-0.44775-1-1-1h-5c-0.55225,0-1,0.44775-1,1v4c0,0.55225,0.44775,1,1,1h5c0.55225,0,1-0.44775,1-1V21z
		 M51,24h-3v-2h3V24z"/>
	<path d="M52,28h-5c-0.55225,0-1,0.44775-1,1v4c0,0.55225,0.44775,1,1,1h5c0.55225,0,1-0.44775,1-1v-4
		C53,28.44775,52.55225,28,52,28z M51,32h-3v-2h3V32z"/>
	<circle cx="56" cy="27" r="1"/>
</g>
</svg>
