<?xml version="1.0" encoding="utf-8"?>
<!-- Generator: Adobe Illustrator 27.3.1, SVG Export Plug-In . SVG Version: 6.00 Build 0)  -->
<svg version="1.1" id="Outline" xmlns="http://www.w3.org/2000/svg" xmlns:xlink="http://www.w3.org/1999/xlink" x="0px" y="0px"
	 viewBox="0 0 64 64" enable-background="new 0 0 64 64" xml:space="preserve">
<g>
	<path d="M56.6582,48.24707c-5.42218-4.73413-11.26355-7.06989-16.07825-8.20746C43.96906,37.39246,46,33.31677,46,28.8999
		c0-4.09563-1.82123-8.95003-5.41388-14.42794c-0.39988-0.60972-1.32359-0.58672-1.6955,0.03585l-4.46387,7.48975
		c-3.22988-3.78943-4.66544-8.86834-3.85945-13.83694c0.15883-0.97914-1.09842-1.56022-1.74455-0.81394
		C24.78076,12.03223,18,21.0625,18,28.8999c0,4.40631,2.02344,8.47534,5.39972,11.12042
		c-8.05298,1.9328-13.65082,6.12732-16.05695,8.22577c-0.25537,0.22266-0.38086,0.55957-0.33252,0.89551l1,7
		C8.08057,56.63379,8.50244,57,9,57h11c0.44629,0,0.83887-0.2959,0.96143-0.72559l1.89697-6.63867
		c1.6333-1.03223,3.42285-1.77344,5.32568-2.20703c0.47803-0.07422,0.84082-0.48828,0.84082-0.98828
		c0-0.62598-0.61182-1.11328-1.22363-0.97559c-2.28174,0.51172-4.41895,1.4209-6.35352,2.70117
		c-0.19873,0.13184-0.34375,0.33008-0.40918,0.55957L20.38861,51H9.29602l-0.22815-1.59766C12.38428,46.61621,20.49902,41,32,41
		c3.94336,0,13.98633,0.82812,22.93262,8.40137L54.70422,51H43.61151l-0.6496-2.27441
		c-0.06641-0.23047-0.21289-0.42969-0.41309-0.56152c-1.94922-1.27832-4.08398-2.18652-6.34766-2.69922
		c-0.61133-0.14062-1.22559,0.34863-1.22559,0.97559c0,0.4834,0.34766,0.8877,0.80469,0.98047
		c1.90234,0.43262,3.7041,1.17773,5.3623,2.2168l1.89551,6.63672C43.16113,56.7041,43.55371,57,44,57h11
		c0.49805,0,0.91992-0.36621,0.99023-0.8584l1-7C57.03809,48.80664,56.91309,48.46973,56.6582,48.24707z M19.81714,53l-0.57153,2
		H9.86719L9.5816,53H19.81714z M26.17804,39.47711C22.362,37.33649,20,33.31525,20,28.8999
		c0-6.12988,4.8833-13.42627,8.34814-17.83105c0.0459,4.94619,2.01262,9.74933,5.54228,13.29667
		c0.45654,0.45883,1.23808,0.3607,1.56856-0.19316l4.31641-7.24219C41.86719,20.36084,44,24.85303,44,28.8999
		c0,4.42145-2.36664,8.44678-6.19135,10.58881C35.37152,39.09454,33.34698,39,32,39
		C29.95129,39,28.01611,39.18256,26.17804,39.47711z M44.75391,55l-0.57123-2h10.23584l-0.28571,2H44.75391z"/>
	<path d="M34,29c0.55273,0,1-0.44775,1-1s-0.44727-1-1-1h-4c-0.55225,0-1,0.44775-1,1s0.44775,1,1,1h1v6h-1
		c-0.55225,0-1,0.44727-1,1s0.44775,1,1,1h4c0.55273,0,1-0.44727,1-1s-0.44727-1-1-1h-1v-6H34z"/>
	<circle cx="32" cy="46" r="1"/>
</g>
</svg>
