<?xml version="1.0" encoding="utf-8"?>
<!-- Generator: Adobe Illustrator 27.3.1, SVG Export Plug-In . SVG Version: 6.00 Build 0)  -->
<svg version="1.1" id="Outline" xmlns="http://www.w3.org/2000/svg" xmlns:xlink="http://www.w3.org/1999/xlink" x="0px" y="0px"
	 viewBox="0 0 64 64" enable-background="new 0 0 64 64" xml:space="preserve">
<g>
	<path d="M54,45c0.54999,0,1-0.45001,1-1V29h1c0.54999,0,1-0.45001,1-1V8c0-0.54999-0.45001-1-1-1H40c-0.54999,0-1,0.45001-1,1v7H10
		c-0.54999,0-1,0.45001-1,1v28c0,0.54999,0.45001,1,1,1h3v2H8c-0.54999,0-1,0.45001-1,1v4
		c0,0.26996,0.10999,0.51996,0.28998,0.70996l4,4C11.47998,56.89001,11.72998,57,12,57h6c0.54999,0,1-0.45001,1-1s-0.45001-1-1-1
		h-5.59003L9,51.58997V49h15.38l1.72998,3.45001C26.28003,52.78998,26.62,53,27,53h10c0.38,0,0.71997-0.21002,0.89001-0.54999
		L39.62,49H55v2.58997L51.59003,55H26c-0.54999,0-1,0.45001-1,1s0.45001,1,1,1h26c0.27002,0,0.52002-0.10999,0.71002-0.29004l4-4
		C56.89001,52.51996,57,52.26996,57,52v-4c0-0.54999-0.45001-1-1-1h-5v-2H54z M40.71002,24.70996
		C40.89001,24.51996,41,24.26996,41,24V9h14v18H38.40997L40.71002,24.70996z M29.38,31.20996l-0.91003-0.25995
		C28.79999,30.37,29,29.70996,29,29v-2c0-2.21002-1.78998-4-4-4s-4,1.78998-4,4v2c0,0.70996,0.20001,1.37,0.53003,1.95001
		L20.63,31.20996c-2.14001,0.61005-3.63,2.59003-3.63,4.81V39h-2V21h24v2.58997c0,0-3.70838,3.69838-3.71002,3.70001
		C34.66476,27.91351,35.12373,29,36,29h13v10H33v-2.98004C33,33.79999,31.51001,31.82001,29.38,31.20996z M28,37
		c-0.54999,0-1,0.45001-1,1v1h-4v-1c0-0.54999-0.45001-1-1-1s-1,0.45001-1,1v1h-2v-2.98004
		C19,34.67999,19.89001,33.5,21.17999,33.13l2.02002-0.58002C23.73999,32.82996,24.34998,33,25,33s1.26001-0.17004,1.79999-0.45001
		L28.83002,33.13C30.10999,33.5,31,34.67999,31,36.01996V39h-2v-1C29,37.45001,28.54999,37,28,37z M23,29v-2
		c0-1.10004,0.90002-2,2-2s2,0.89996,2,2v2c0,1.09998-0.90002,2-2,2S23,30.09998,23,29z M36.38,51H27.62l-1-2H37.38L36.38,51z
		 M49,47H15v-2h34V47z M11,43V17h28v2H14c-0.54999,0-1,0.45001-1,1v20c0,0.54999,0.45001,1,1,1h36c0.54999,0,1-0.45001,1-1V29h2v14
		H11z"/>
	<path d="M44,13h8c0.55273,0,1-0.44775,1-1s-0.44727-1-1-1h-8c-0.55273,0-1,0.44775-1,1S43.44727,13,44,13z"/>
	<path d="M44,17h2c0.55273,0,1-0.44775,1-1s-0.44727-1-1-1h-2c-0.55273,0-1,0.44775-1,1S43.44727,17,44,17z"/>
	<path d="M52,15h-2c-0.55273,0-1,0.44775-1,1s0.44727,1,1,1h2c0.55273,0,1-0.44775,1-1S52.55273,15,52,15z"/>
	<path d="M44,21h2c0.55273,0,1-0.44775,1-1s-0.44727-1-1-1h-2c-0.55273,0-1,0.44775-1,1S43.44727,21,44,21z"/>
	<path d="M52,19h-2c-0.55273,0-1,0.44775-1,1s0.44727,1,1,1h2c0.55273,0,1-0.44775,1-1S52.55273,19,52,19z"/>
	<path d="M44,25h2c0.55273,0,1-0.44775,1-1s-0.44727-1-1-1h-2c-0.55273,0-1,0.44775-1,1S43.44727,25,44,25z"/>
	<path d="M52,23h-2c-0.55273,0-1,0.44775-1,1s0.44727,1,1,1h2c0.55273,0,1-0.44775,1-1S52.55273,23,52,23z"/>
	<circle cx="22" cy="56" r="1"/>
</g>
</svg>
