<?xml version="1.0" encoding="utf-8"?>
<!-- Generator: Adobe Illustrator 27.3.1, SVG Export Plug-In . SVG Version: 6.00 Build 0)  -->
<svg version="1.1" id="Outline" xmlns="http://www.w3.org/2000/svg" xmlns:xlink="http://www.w3.org/1999/xlink" x="0px" y="0px"
	 viewBox="0 0 64 64" enable-background="new 0 0 64 64" xml:space="preserve">
<g>
	<path d="M39.42999,47.82996c0.75-0.64996,1.51001-1.35999,2.28003-2.12C47.78998,39.63,51,32.81,51,26c0-10.48004-8.52002-19-19-19
		s-19,8.51996-19,19c0,6.81,3.21002,13.63,9.28998,19.70996c0.77002,0.76001,1.53003,1.47003,2.28003,2.12
		C21,48.70001,19,50.17999,19,52c0,3.27997,6.53998,5,13,5s13-1.72003,13-5C45,50.17999,43,48.70001,39.42999,47.82996z M15,26
		c0-9.37,7.63-17,17-17s17,7.63,17,17c0,13.76996-14.16998,23.10999-17,24.83997C29.16998,49.10999,15,39.76996,15,26z M32,55
		c-7.12,0-11-1.98004-11-3c0-0.65002,1.78003-1.87,5.53998-2.53003c2.75,2.16003,4.85004,3.33002,4.97003,3.40002
		C31.66998,52.95996,31.83002,53,32,53s0.33002-0.04004,0.48999-0.13c0.12-0.07001,2.22003-1.23999,4.97003-3.40002
		C41.21997,50.13,43,51.34998,43,52C43,53.01996,39.12,55,32,55z"/>
	<path d="M46,27.69c0-0.5,0-2.69,0-2.69c0-6.01001-4-11.54004-9.75-13.33002c-0.52002-0.16998-1.09003,0.12-1.25,0.65002
		c-0.16998,0.52997,0.12,1.08997,0.65002,1.25c1.26996,0.39996,2.45996,1.02997,3.52997,1.83997l-1.20001,1.19
		c-3.63-2.09998-8.32996-2.09998-11.95996,0L24.81,15.39001c1.04999-0.78003,2.23999-1.40002,3.53998-1.82001
		c0.53003-0.16003,0.82001-0.73004,0.65002-1.25c-0.15997-0.53003-0.72998-0.82001-1.25-0.65002C21.91998,13.51001,18,18.87,18,25
		v2.69c-0.63,0.95001-1,2.08997-1,3.31c0,3.31,2.69,6,6,6h0.17999c0.41998,1.15997,1.52002,2,2.82001,2c1.65002,0,3-1.35004,3-3V26
		c0-1.65002-1.34998-3-3-3c-1.29999,0-2.40002,0.83997-2.82001,2H23c-1.09003,0-2.12,0.29999-3,0.81V25
		c0-3.17999,1.22998-6.10999,3.31-8.28003l1.84998,1.85999c0.34003,0.34003,0.87006,0.39001,1.27002,0.12006
		c3.29999-2.22003,7.84003-2.22003,11.14001,0c0.35999,0.23999,0.90997,0.22998,1.27002-0.12006l1.83997-1.84998
		C42.82001,18.97998,44,21.89996,44,25v0.81C43.12,25.29999,42.09003,25,41,25h-0.17999C40.40002,23.83997,39.29999,23,38,23
		c-1.65002,0-3,1.34998-3,3v10c0,1.29999,0.84003,2.39996,2,2.82001V39c0,1.09998-0.90002,2-2,2h-6c-0.54999,0-1,0.45001-1,1
		s0.45001,1,1,1h6c2.21002,0,4-1.79004,4-4v-0.17999c0.84998-0.31,1.51001-0.97003,1.82001-1.82001H41c3.31,0,6-2.69,6-6
		C47,29.77997,46.63,28.64001,46,27.69z M25,26c0-0.54999,0.45001-1,1-1s1,0.45001,1,1v10c0,0.54999-0.45001,1-1,1s-1-0.45001-1-1
		V26z M23,27v8c-2.21002,0-4-1.79004-4-4C19,28.78998,20.78998,27,23,27z M39,36c0,0.54999-0.45001,1-1,1s-1-0.45001-1-1V26
		c0-0.54999,0.45001-1,1-1s1,0.45001,1,1V36z M41,35v-8c2.21002,0,4,1.78998,4,4C45,33.20996,43.21002,35,41,35z"/>
	<circle cx="32" cy="12" r="1"/>
</g>
</svg>
