<?xml version="1.0" encoding="utf-8"?>
<!-- Generator: Adobe Illustrator 27.3.1, SVG Export Plug-In . SVG Version: 6.00 Build 0)  -->
<svg version="1.1" id="Outline" xmlns="http://www.w3.org/2000/svg" xmlns:xlink="http://www.w3.org/1999/xlink" x="0px" y="0px"
	 viewBox="0 0 64 64" enable-background="new 0 0 64 64" xml:space="preserve">
<g>
	<path d="M56.65997,48.25C53.47998,45.47998,50.16998,43.53998,47,42.16998V38h5c0.54999,0,1-0.45001,1-1v-8
		c0-0.54999-0.45001-1-1-1s-1,0.45001-1,1v7h-4V14h4v7c0,0.54999,0.45001,1,1,1s1-0.45001,1-1v-8c0-0.54999-0.45001-1-1-1h-5V8
		c0-0.54999-0.45001-1-1-1H18c-0.54999,0-1,0.45001-1,1v4h-5c-0.54999,0-1,0.45001-1,1v24c0,0.54999,0.45001,1,1,1h5v4.19
		c-4.64001,2.03998-7.96002,4.57001-9.65997,6.06c-0.25,0.21997-0.38,0.56-0.33002,0.89001l1,7C8.08002,56.63,8.5,57,9,57h11
		c0.45001,0,0.84003-0.29999,0.96002-0.73004l1.89996-6.62994C26.5,47.34998,30.13,47,32,47c4.21002,0,7.44,1.57001,9.14001,2.64001
		l1.89996,6.62994C43.15997,56.70001,43.54999,57,44,57h11c0.5,0,0.91998-0.37,0.98999-0.85999l1-7
		C57.03998,48.81,56.90997,48.46997,56.65997,48.25z M19,9h26v32.37C39.42999,39.33997,34.53003,39,32,39
		c-4.96997,0-9.33002,1-13,2.37V9z M13,36V14h4v22H13z M19.25,55H9.87l-0.28998-2h10.23999L19.25,55z M54.13,55h-9.38l-0.57001-2
		h10.23999L54.13,55z M54.70001,51H43.60999l-0.64996-2.27002c-0.06-0.22998-0.21002-0.42999-0.41003-0.56
		C40.76001,46.97998,37,45,32,45c-2.15002,0-6.37,0.40997-10.54999,3.16998c-0.20001,0.13-0.35004,0.33002-0.41003,0.56L20.39001,51
		H9.29999l-0.22998-1.60004C12.38,46.62,20.48999,41,32,41c3.94,0,13.97998,0.82996,22.92999,8.39996L54.70001,51z"/>
	<path d="M24,32c1.6543,0,3-1.3457,3-3s-1.3457-3-3-3h-2c-0.55273,0-1,0.44775-1,1s0.44727,1,1,1h2c0.55176,0,1,0.44873,1,1
		s-0.44824,1-1,1c-1.6543,0-3,1.3457-3,3v2c0,0.55225,0.44727,1,1,1h4c0.55273,0,1-0.44775,1-1s-0.44727-1-1-1h-3v-1
		C23,32.44873,23.44824,32,24,32z"/>
	<path d="M43,35c0-0.55225-0.44727-1-1-1H30c-0.55273,0-1,0.44775-1,1s0.44727,1,1,1h12C42.55273,36,43,35.55225,43,35z"/>
	<path d="M30,32h6c0.55273,0,1-0.44775,1-1s-0.44727-1-1-1h-6c-0.55273,0-1,0.44775-1,1S29.44727,32,30,32z"/>
	<path d="M30,28h12c0.55273,0,1-0.44775,1-1s-0.44727-1-1-1H30c-0.55273,0-1,0.44775-1,1S29.44727,28,30,28z"/>
	<path d="M30,23h12c0.55273,0,1-0.44775,1-1s-0.44727-1-1-1H30c-0.55273,0-1,0.44775-1,1S29.44727,23,30,23z"/>
	<path d="M30,19h6c0.55273,0,1-0.44775,1-1s-0.44727-1-1-1h-6c-0.55273,0-1,0.44775-1,1S29.44727,19,30,19z"/>
	<path d="M30,15h12c0.55273,0,1-0.44775,1-1s-0.44727-1-1-1H30c-0.55273,0-1,0.44775-1,1S29.44727,15,30,15z"/>
	<path d="M22,17c0.35059,0,0.68749-0.06055,1-0.17139V22c0,0.55225,0.44727,1,1,1s1-0.44775,1-1v-8c0-0.55225-0.44727-1-1-1
		s-1,0.44775-1,1c0,0.55127-0.44824,1-1,1c-0.55273,0-1,0.44775-1,1S21.44727,17,22,17z"/>
	<circle cx="52" cy="25" r="1"/>
</g>
</svg>
