<?xml version="1.0" encoding="utf-8"?>
<!-- Generator: Adobe Illustrator 27.3.1, SVG Export Plug-In . SVG Version: 6.00 Build 0)  -->
<svg version="1.1" id="Outline" xmlns="http://www.w3.org/2000/svg" xmlns:xlink="http://www.w3.org/1999/xlink" x="0px" y="0px"
	 viewBox="0 0 64 64" enable-background="new 0 0 64 64" xml:space="preserve">
<g>
	<path d="M56.62671,12.23575c-0.22412-0.18248-0.52319-0.2736-0.82299-0.21622c-6.2334,1.24805-12.79492,0.37109-18.47656-2.47363
		l-4.87988-2.44043c-0.28125-0.14062-0.61328-0.14062-0.89453,0L26.67188,9.5459
		c-5.66202,2.83785-12.34354,3.71286-18.47335,2.47369C7.58286,11.89513,7,12.37588,7,13v15.80957
		c0,13.19629,8.95117,24.55078,21.76172,27.6123c0.98242,0.24023,2.0293,0.43262,3.11231,0.57031
		c0.08386,0.00975,0.16807,0.01061,0.25195,0c1.08301-0.1377,2.12988-0.33008,3.10645-0.56934
		C48.04883,53.36035,57,42.00586,57,28.80957V24c0-0.55273-0.44727-1-1-1s-1,0.44727-1,1v4h-2c0,0,0-10.42838,0-10.4696
		c0-0.52278-0.47373-1.03881-1.04785-0.99915C46.47321,16.79462,40.93799,15.7074,36,13.33783v-2.21881l0.43164,0.21594
		C42.14648,14.19727,48.69043,15.19824,55,14.19531V16c0,0.55273,0.44727,1,1,1s1-0.44727,1-1c0,0,0-2.97816,0-2.99988
		C57,12.69207,56.85083,12.41823,56.62671,12.23575z M27.56738,11.33496L28,11.11859v2.21875
		c-4.93884,2.37009-10.47532,3.45627-15.95194,3.19392C11.51223,16.50559,11,16.94044,11,17.53027V28H9V14.19727
		C15.2373,15.19141,21.87695,14.18555,27.56738,11.33496z M9.05035,30h1.99939c0.06714,1.36011,0.24652,2.69592,0.53339,4H9.5271
		C9.26868,32.69586,9.11066,31.36041,9.05035,30z M10.00153,36h2.11035C14.44281,43.48724,20.30884,49.58936,28,52.04181v2.08539
		C19.11798,51.54993,12.42383,44.63275,10.00153,36z M32,54.99121c-0.68939-0.09088-1.35242-0.21283-2-0.34906V52.5932
		c0.62933,0.14209,1.2517,0.26691,1.85448,0.35602c0.09632,0.01424,0.19475,0.01376,0.29103,0
		C32.7475,52.86023,33.36963,52.73553,34,52.59326v2.04877C33.3537,54.7782,32.69043,54.90021,32,54.99121z M36,54.12659v-2.08386
		C43.68884,49.59344,49.55682,43.48987,51.88824,36h2.11023C51.57648,44.6311,44.88373,51.54749,36,54.12659z M52.41693,34
		c0.28687-1.30408,0.46619-2.63989,0.53333-4h1.99939c-0.0603,1.36041-0.21826,2.69586-0.47675,4H52.41693z M51,18.56934v10.24023
		c0,9.96777-6.69141,18.8291-16.26465,21.54688C33.79883,50.61328,32.87988,50.8125,32,50.94824
		c-0.87988-0.13574-1.79883-0.33496-2.72656-0.58984C19.69141,47.63867,13,38.77734,13,28.80957V18.56934
		c5.64648,0.13965,11.31348-1.13281,16.3584-3.65625L32,13.58887l2.64258,1.3252C39.68652,17.43555,45.36621,18.70312,51,18.56934z
		 M34,12.35449l-1.55176-0.77832c-0.28125-0.14258-0.61523-0.14258-0.89648,0L30,12.35425v-2.23584l2-1.00024l2,1.00043V12.35449z"
		/>
	<path d="M41.26477,20.53229C38.79321,18.34222,35.5542,17,32,17s-6.79321,1.34222-9.26477,3.53229
		c-0.03973,0.02936-0.08594,0.04498-0.12195,0.08099c-0.02222,0.02222-0.03033,0.05164-0.05005,0.07538
		C19.76685,23.25006,18,26.91791,18,31v2.69043C17.36945,34.63995,17,35.77722,17,37c0,3.30859,2.69141,6,6,6h0.18433
		c0.41412,1.1615,1.51373,2,2.81567,2c1.6543,0,3-1.3457,3-3V32c0-1.6543-1.3457-3-3-3c-1.30194,0-2.40161,0.8385-2.81573,2H23
		c-1.09344,0-2.11627,0.29877-3,0.81177V31c0-3.20337,1.2691-6.11035,3.32141-8.26453l1.84167,1.84167
		c0.33887,0.33887,0.87012,0.3916,1.26562,0.12207c3.29883-2.22266,7.84375-2.22266,11.14278,0.00014
		c0.39478,0.26758,0.92788,0.21533,1.26542-0.12221c0,0,1.84167-1.84167,1.84167-1.84167C42.7309,24.88965,44,27.79663,44,31
		v0.81177C43.11627,31.29877,42.09344,31,41,31h-0.18427C40.40161,29.8385,39.30194,29,38,29c-1.6543,0-3,1.3457-3,3v10
		c0,1.30194,0.8385,2.40155,2,2.81567V45c0,1.10254-0.89746,2-2,2h-6c-0.55273,0-1,0.44727-1,1s0.44727,1,1,1h6
		c2.20605,0,4-1.79395,4-4v-0.18427c0.84717-0.30206,1.51367-0.96857,1.81573-1.81573H41c3.30859,0,6-2.69141,6-6
		c0-1.22278-0.36945-2.36005-1-3.30957V31c0-4.08209-1.76685-7.74994-4.56323-10.31134
		c-0.01971-0.02374-0.02783-0.05316-0.05005-0.07538C41.35071,20.57727,41.3045,20.56165,41.26477,20.53229z M26,31
		c0.55176,0,1,0.44824,1,1v10c0,0.55176-0.44824,1-1,1s-1-0.44824-1-1V32C25,31.44824,25.44824,31,26,31z M23,33v8
		c-2.20605,0-4-1.79395-4-4S20.79395,33,23,33z M38,43c-0.55176,0-1-0.44824-1-1V32c0-0.55176,0.44824-1,1-1s1,0.44824,1,1v10
		C39,42.55176,38.55176,43,38,43z M41,41v-8c2.20605,0,4,1.79395,4,4S43.20605,41,41,41z M37.98535,22.60059
		c-3.63281-2.09961-8.33789-2.09961-11.9707,0l-1.19366-1.19366C26.82574,19.90277,29.30634,19,32,19
		s5.17426,0.90277,7.17902,2.40692L37.98535,22.60059z"/>
	<circle cx="56" cy="20" r="1"/>
</g>
</svg>
