<?xml version="1.0" encoding="utf-8"?>
<!-- Generator: Adobe Illustrator 27.3.1, SVG Export Plug-In . SVG Version: 6.00 Build 0)  -->
<svg version="1.1" id="Outline" xmlns="http://www.w3.org/2000/svg" xmlns:xlink="http://www.w3.org/1999/xlink" x="0px" y="0px"
	 viewBox="0 0 64 64" enable-background="new 0 0 64 64" xml:space="preserve">
<g>
	<path d="M56.99219,8.12353c0.07329-0.59143-0.42061-1.17178-1.08057-1.11963c-6.59766,0.58545-13.30127,0.92725-19.92529,1.01611
		C35.43408,8.02734,34.99268,8.48145,35,9.03369s0.47412,0.98828,1.01367,0.98633
		c6.26318-0.08447,12.59717-0.39307,18.84766-0.91797C54.28955,14.07764,54,19.0835,54,24
		c0,4.91699,0.28955,9.92285,0.86084,14.89844c-11.58496-0.97363-23.30078-1.20996-34.84521-0.69727
		c-0.3833,0.0166-0.72314,0.25195-0.87451,0.60449c0,0-2.04717,4.76978-2.06,4.79966C16.8001,44.26007,17.29346,45,18,45h5.86475
		l-5.83447,7.00195c0,0,0.93587-3.7435,0.93993-3.75971C19.12679,47.61589,18.64365,47,18,47h-4.57275
		c0,0,2.60235-7.15975,2.61276-7.18839c0.24648-0.67813-0.29579-1.37791-1.00339-1.33993
		c-2.15283,0.13672-4.09473,0.27734-5.89697,0.42676c1.14355-9.89258,1.14355-19.90381,0.00049-29.79639
		c6.25,0.5249,12.5835,0.8335,18.84619,0.91797C28.5293,10.01709,28.99219,9.58594,29,9.03369
		c0.00732-0.55225-0.43408-1.00635-0.98633-1.01367C21.38965,7.93115,14.68604,7.58936,8.08798,7.00387
		C7.45046,6.95382,6.92802,7.48742,7.00781,8.12451c1.31934,10.53418,1.31934,21.2168-0.00002,31.75161
		c-0.07827,0.62492,0.45085,1.17584,1.08059,1.11997c1.70605-0.15137,3.53271-0.29199,5.54883-0.42871
		c0,0-2.57024,7.07181-2.57713,7.09078C10.83738,48.27089,11.28939,49,12,49h4.71924c0,0-1.68433,6.73731-1.68944,6.75777
		c-0.24848,0.9939,1.07251,1.66611,1.73827,0.88286c0,0,9.97074-11.96488,9.99994-11.99992C27.30346,43.99816,26.83413,43,26,43
		h-6.48242l1.21338-2.82812c11.66298-0.48828,23.49442-0.20996,35.18046,0.8242c0.63752,0.05634,1.15938-0.48648,1.08077-1.11912
		C56.33398,34.58008,56,29.23877,56,24C56,18.76182,56.33397,13.42014,56.99219,8.12353z"/>
	<path d="M26.07568,20.83496l-2.12939-6.22412c-0.13867-0.4043-0.51855-0.67627-0.94629-0.67627s-0.80762,0.27197-0.94629,0.67627
		l-2.12939,6.22412c0,0-6.88772,0-6.92417,0c-0.96209,0-1.35886,1.27779-0.56802,1.82324l5.55664,3.83447
		c0,0-2.1034,6.14899-2.11518,6.18345c-0.3064,0.89573,0.73618,1.68354,1.51411,1.14712L23,29.9502
		c0,0,5.6123,3.87305,5.61248,3.87317c0.77456,0.53379,1.81832-0.25741,1.51398-1.14709
		c-0.00005-0.00014-2.11523-6.18359-2.11523-6.18359s5.53146-3.8171,5.55656-3.83441c0.79166-0.5463,0.39359-1.8233-0.56779-1.8233
		H26.07568z M26.25195,25.27637c-0.36865,0.25439-0.52344,0.72314-0.37842,1.14697l1.37939,4.03174
		c0,0-3.68506-2.54297-3.68511-2.54301c-0.34365-0.2366-0.79465-0.23479-1.13569,0.00004l-3.68506,2.54297l1.37939-4.03174
		c0.14502-0.42383-0.00977-0.89258-0.37842-1.14697l-3.53809-2.44141h4.4292c0.42773,0,0.80762-0.27197,0.94629-0.67627L23,18.02393
		l1.41455,4.13477c0.13867,0.4043,0.51855,0.67627,0.94629,0.67627h4.4292L26.25195,25.27637z"/>
	<path d="M37,21h5c0.55225,0,1-0.44775,1-1s-0.44775-1-1-1h-5c-0.55225,0-1,0.44775-1,1S36.44775,21,37,21z"/>
	<path d="M51,19h-5c-0.55225,0-1,0.44775-1,1s0.44775,1,1,1h5c0.55225,0,1-0.44775,1-1S51.55225,19,51,19z"/>
	<path d="M51,15H37c-0.55225,0-1,0.44775-1,1s0.44775,1,1,1h14c0.55225,0,1-0.44775,1-1S51.55225,15,51,15z"/>
	<path d="M37,25h14c0.55225,0,1-0.44775,1-1s-0.44775-1-1-1H37c-0.55225,0-1,0.44775-1,1S36.44775,25,37,25z"/>
	<path d="M37,29h14c0.55225,0,1-0.44775,1-1s-0.44775-1-1-1H37c-0.55225,0-1,0.44775-1,1S36.44775,29,37,29z"/>
	<path d="M37,33h14c0.55225,0,1-0.44775,1-1s-0.44775-1-1-1H37c-0.55225,0-1,0.44775-1,1S36.44775,33,37,33z"/>
	<circle cx="32" cy="9" r="1"/>
</g>
</svg>
