<?xml version="1.0" encoding="utf-8"?>
<!-- Generator: Adobe Illustrator 27.3.1, SVG Export Plug-In . SVG Version: 6.00 Build 0)  -->
<svg version="1.1" id="Outline" xmlns="http://www.w3.org/2000/svg" xmlns:xlink="http://www.w3.org/1999/xlink" x="0px" y="0px"
	 viewBox="0 0 64 64" enable-background="new 0 0 64 64" xml:space="preserve">
<g>
	<path d="M52,11h-3V8c0-0.55273-0.44775-1-1-1H22c-0.26514,0-0.51953,0.10547-0.70703,0.29297l-10,10
		C11.10547,17.48047,11,17.73438,11,18v34c0,0.55273,0.44775,1,1,1h3v3c0,0.55273,0.44775,1,1,1h36c0.55225,0,1-0.44727,1-1V12
		C53,11.44727,52.55225,11,52,11z M14.41406,17L21,10.41406V17H14.41406z M13,51V19h2v32H13z M51,55H17V19h5
		c0.55225,0,1-0.44727,1-1v-5h10c0.55225,0,1-0.44727,1-1s-0.44775-1-1-1H23V9h24v2h-6c-0.55225,0-1,0.44727-1,1s0.44775,1,1,1h10
		V55z"/>
	<path d="M26,16c-0.55225,0-1,0.44727-1,1s0.44775,1,1,1h22c0.55225,0,1-0.44727,1-1s-0.44775-1-1-1H26z"/>
	<path d="M20,28h17c0.55225,0,1-0.44727,1-1s-0.44775-1-1-1H20c-0.55225,0-1,0.44727-1,1S19.44775,28,20,28z"/>
	<path d="M20,24h12c0.55225,0,1-0.44727,1-1s-0.44775-1-1-1H20c-0.55225,0-1,0.44727-1,1S19.44775,24,20,24z"/>
	<path d="M48,30H20c-0.55225,0-1,0.44727-1,1v4c0,0.55273,0.44775,1,1,1h28c0.55225,0,1-0.44727,1-1v-4
		C49,30.44727,48.55225,30,48,30z M47,34H21v-2h26V34z"/>
	<path d="M20,44h17c0.55225,0,1-0.44727,1-1s-0.44775-1-1-1H20c-0.55225,0-1,0.44727-1,1S19.44775,44,20,44z"/>
	<path d="M20,40h12c0.55225,0,1-0.44727,1-1s-0.44775-1-1-1H20c-0.55225,0-1,0.44727-1,1S19.44775,40,20,40z"/>
	<path d="M48,46H20c-0.55225,0-1,0.44727-1,1v4c0,0.55273,0.44775,1,1,1h28c0.55225,0,1-0.44727,1-1v-4
		C49,46.44727,48.55225,46,48,46z M47,50H21v-2h26V50z"/>
	<circle cx="37" cy="12" r="1"/>
</g>
</svg>
