<?xml version="1.0" encoding="utf-8"?>
<!-- Generator: Adobe Illustrator 27.3.1, SVG Export Plug-In . SVG Version: 6.00 Build 0)  -->
<svg version="1.1" id="Outline" xmlns="http://www.w3.org/2000/svg" xmlns:xlink="http://www.w3.org/1999/xlink" x="0px" y="0px"
	 viewBox="0 0 64 64" enable-background="new 0 0 64 64" xml:space="preserve">
<g>
	<path d="M56.0415,28.00098c-1.33838-0.05566-2.05811-0.98242-2.28516-1.83057c-0.22754-0.84814-0.06738-2.01025,1.06396-2.72803
		c0.45264-0.28711,0.59863-0.87988,0.33057-1.34424l-3-5.19629c-0.26807-0.46338-0.854-0.63428-1.32959-0.38623
		c-1.18701,0.62109-2.27344,0.1792-2.89453-0.44238c-0.62109-0.62109-1.06348-1.70752-0.44238-2.89453
		c0.24854-0.4751,0.07812-1.06152-0.38623-1.32959l-5.19629-3c-0.46289-0.26807-1.05762-0.12158-1.34424,0.33057
		c-0.71826,1.13037-1.87793,1.2915-2.72803,1.06396c-0.84814-0.22705-1.7749-0.94678-1.83057-2.28516
		C35.97705,7.42285,35.53613,7,35,7h-6c-0.53613,0-0.97705,0.42285-0.99902,0.9585
		c-0.05566,1.33838-0.98242,2.05811-1.83057,2.28516c-0.84912,0.22705-2.01074,0.06738-2.72803-1.06396
		c-0.28662-0.45215-0.87891-0.59863-1.34424-0.33057l-5.19629,3c-0.46436,0.26807-0.63477,0.85449-0.38623,1.32959
		c0.62109,1.18701,0.17871,2.27344-0.44238,2.89453c-0.62158,0.62158-1.70703,1.06348-2.89453,0.44238
		c-0.47412-0.24805-1.06152-0.07715-1.32959,0.38623l-3,5.19629c-0.26807,0.46436-0.12207,1.05713,0.33057,1.34424
		c1.13135,0.71777,1.2915,1.87988,1.06396,2.72803c-0.22705,0.84814-0.94678,1.7749-2.28516,1.83057
		C7.42285,28.02295,7,28.46387,7,29v6c0,0.53613,0.42285,0.97705,0.9585,0.99902c1.33838,0.05566,2.05811,0.98242,2.28516,1.83057
		c0.22754,0.84814,0.06738,2.01025-1.06396,2.72803c-0.45264,0.28711-0.59863,0.87988-0.33057,1.34424l3,5.19629
		c0.26807,0.46387,0.85547,0.63428,1.32959,0.38623c1.1875-0.62207,2.27295-0.17969,2.89453,0.44238
		c0.62109,0.62109,1.06348,1.70752,0.44238,2.89453c-0.24854,0.4751-0.07812,1.06152,0.38623,1.32959l5.19629,3
		c0.46533,0.26904,1.05762,0.12256,1.34424-0.33057c0.71777-1.13135,1.87646-1.29248,2.72803-1.06396
		c0.84814,0.22705,1.7749,0.94678,1.83057,2.28516C28.02295,56.57715,28.46387,57,29,57h6c0.53613,0,0.97705-0.42285,0.99902-0.9585
		c0.05566-1.33838,0.98242-2.05811,1.83057-2.28516c0.84766-0.22656,2.01025-0.06787,2.72803,1.06396
		c0.28662,0.45312,0.88135,0.59961,1.34424,0.33057l5.19629-3c0.46436-0.26807,0.63477-0.85449,0.38623-1.32959
		c-0.62109-1.18701-0.17871-2.27344,0.44238-2.89453c0.62109-0.62207,1.70752-1.06445,2.89453-0.44238
		c0.47559,0.24805,1.06152,0.07764,1.32959-0.38623l3-5.19629c0.26807-0.46436,0.12207-1.05713-0.33057-1.34424
		c-1.13135-0.71777-1.2915-1.87988-1.06396-2.72803c0.22705-0.84814,0.94678-1.7749,2.28516-1.83057
		C56.57715,35.97705,57,35.53613,57,35v-6C57,28.46387,56.57715,28.02295,56.0415,28.00098z M55,34.14014
		c-1.54395,0.39209-2.74463,1.56348-3.17578,3.17188c-0.43066,1.6084,0.02344,3.22266,1.16455,4.33447l-2.14014,3.70654
		c-1.5332-0.43262-3.15869-0.01855-4.33643,1.15918c-1.17725,1.17773-1.59131,2.80322-1.15918,4.33643l-3.70654,2.14014
		c-1.11133-1.14111-2.7251-1.59424-4.33447-1.16455c-1.6084,0.43115-2.77979,1.63184-3.17188,3.17578h-4.28027
		c-0.39209-1.54395-1.56348-2.74463-3.17188-3.17578c-1.60938-0.43066-3.22266,0.02344-4.33447,1.16455l-3.70654-2.14014
		c0.43213-1.5332,0.01807-3.15869-1.15918-4.33643c-1.17773-1.17773-2.80273-1.5918-4.33643-1.15918l-2.14014-3.70654
		c1.14111-1.11182,1.59521-2.72607,1.16455-4.33447C11.74463,35.70361,10.54395,34.53223,9,34.14014v-4.28027
		c1.54395-0.39209,2.74463-1.56348,3.17578-3.17188c0.43066-1.6084-0.02344-3.22266-1.16455-4.33447l2.14014-3.70654
		c1.53076,0.43066,3.1582,0.01709,4.33643-1.15918c1.17725-1.17773,1.59131-2.80322,1.15918-4.33643l3.70654-2.14014
		c1.11182,1.1416,2.72607,1.59717,4.33447,1.16455c1.6084-0.43115,2.77979-1.63184,3.17188-3.17578h4.28027
		c0.39209,1.54395,1.56348,2.74463,3.17188,3.17578c1.6084,0.43164,3.22314-0.02393,4.33447-1.16455l3.70654,2.14014
		c-0.43213,1.5332-0.01807,3.15869,1.15918,4.33643c1.17725,1.17725,2.80127,1.59033,4.33643,1.15918l2.14014,3.70654
		c-1.14111,1.11182-1.59521,2.72607-1.16455,4.33447c0.43115,1.6084,1.63184,2.77979,3.17578,3.17188V34.14014z"/>
	<path d="M37,16c-1.63763,0-3.18726,0.36957-4.58514,1.01416C32.27759,17.00928,32.14056,17,32,17c-8.271,0-15,6.729-15,15
		c0,2.97162,0.86469,5.80865,2.49237,8.26642c0,0-0.85066,0.84968-0.85223,0.85125c-1.15414,1.15282-1.15184,3.09472-0.00149,4.2451
		c1.15597,1.15599,3.08555,1.15766,4.2427,0.00148l0.86371-0.86267c1.24689,0.82196,2.58807,1.46307,4.0098,1.88722
		c0.5233,0.15538,1.08682-0.1466,1.24368-0.67299c0.15771-0.5293-0.14355-1.08594-0.67285-1.24414
		c-1.10303-0.32867-2.15533-0.80115-3.14069-1.40826l3.7345-3.72986c0,0,0.8729,0.8729,0.87347,0.87347
		c0.38979,0.38979,1.0268,0.38726,1.41406,0l2.66614-2.66614C34.86536,37.83575,35.91333,38,37,38
		c2.97986,0,5.68262-1.19543,7.66559-3.12646c-1.03552,4.50507-4.43939,8.25867-8.98785,9.59717
		c-0.52979,0.15625-0.83301,0.71191-0.67724,1.24173c0.15584,0.5285,0.71473,0.83012,1.24169,0.67722
		C42.57617,44.52539,47,38.6084,47,32c0-0.14056-0.00928-0.27759-0.01416-0.41486C47.63043,30.18726,48,28.63763,48,27
		C48,20.93457,43.06543,16,37,16z M19,32c0-6.18152,4.34015-11.35913,10.13074-12.67035C27.19708,21.31299,26,24.01782,26,27
		c0,1.08667,0.16425,2.13464,0.45911,3.12683l-2.66614,2.66614c-0.39062,0.39062-0.39062,1.02344,0,1.41406l0.88239,0.88239
		l-3.73883,3.73456C19.6687,36.77386,19,34.43848,19,32z M21.46777,43.94922c-0.38959,0.38959-1.02421,0.39014-1.41486-0.00031
		c-0.38945-0.38925-0.38817-1.02772,0.00031-1.4162l6.03619-6.02924l1.41595,1.41595L21.46777,43.94922z M30.5,38.08594
		L25.91406,33.5l1.36523-1.36523c1.03424,1.94995,2.63599,3.5517,4.58594,4.58594L30.5,38.08594z M37,36c-4.9624,0-9-4.0376-9-9
		s4.0376-9,9-9s9,4.0376,9,9S41.9624,36,37,36z"/>
	<path d="M37,21c-1.6543,0-3,1.3457-3,3c0,0.55225,0.44775,1,1,1s1-0.44775,1-1c0-0.55127,0.44873-1,1-1s1,0.44873,1,1
		c0,0.32227-0.14941,0.6167-0.40967,0.80762C36.57959,25.54785,36,26.61572,36,27.7373V28c0,0.55225,0.44775,1,1,1s1-0.44775,1-1
		v-0.2627c0-0.65332,0.48389-1.10498,0.77246-1.31689C39.54102,25.85693,40,24.95215,40,24C40,22.3457,38.6543,21,37,21z"/>
	<circle cx="37" cy="32" r="1"/>
	<circle cx="32" cy="46" r="1"/>
</g>
</svg>
