<?xml version="1.0" encoding="utf-8"?>
<!-- Generator: Adobe Illustrator 27.3.1, SVG Export Plug-In . SVG Version: 6.00 Build 0)  -->
<svg version="1.1" id="Outline" xmlns="http://www.w3.org/2000/svg" xmlns:xlink="http://www.w3.org/1999/xlink" x="0px" y="0px"
	 viewBox="0 0 64 64" enable-background="new 0 0 64 64" xml:space="preserve">
<g>
	<path d="M55,31.72998V30C55,17.32001,44.67999,7,32,7S9,17.32001,9,30v1.72998C7.76001,33.14001,7,34.97998,7,37
		c0,4.07001,3.06,7.44,7,7.92999V45c0,1.64996,1.34998,3,3,3s3-1.35004,3-3V29c0-1.65002-1.34998-3-3-3s-3,1.34998-3,3v0.07001
		c-1.08002,0.13995-2.09998,0.48999-3,1.00995V30c0-5.94,2.48999-11.29999,6.46002-15.12l2.14996,2.14996
		c0.38,0.37,0.96002,0.39001,1.35999,0.04999c2.08002-1.77997,4.58002-3.03998,7.22003-3.64996
		c0.46997-0.08002,0.83002-0.48999,0.83002-0.98999c0-0.63-0.61005-1.11005-1.22003-0.97003
		c-2.67999,0.60999-5.21997,1.81-7.40997,3.51001L18.96997,13.56C22.56,10.70996,27.08002,9,32,9s9.44,1.70996,13.03003,4.56
		l-1.42004,1.41998c-2.19-1.70001-4.72998-2.90002-7.40997-3.51001C35.59003,11.32996,34.97998,11.81,34.97998,12.44
		c0,0.47998,0.34003,0.88995,0.80005,0.97998c2.64996,0.60999,5.15997,1.87,7.25,3.65997
		c0.39996,0.34003,0.98999,0.32001,1.35999-0.04999L46.53998,14.88C50.51001,18.70001,53,24.06,53,30v0.07996
		c-0.90002-0.51996-1.91998-0.87-3-1.00995V29c0-1.65002-1.34998-3-3-3s-3,1.34998-3,3v16c0,1.29999,0.84003,2.39996,2,2.82001V48
		c0,2.76001-2.23999,5-5,5h-3.17999C37.40002,51.83997,36.29999,51,35,51h-6c-1.65002,0-3,1.34998-3,3c0,1.64996,1.34998,3,3,3h6
		c1.29999,0,2.40002-0.84003,2.82001-2H41c3.85999,0,7-3.14001,7-7v-0.17999c1.15997-0.42004,2-1.52002,2-2.82001v-0.07001
		C53.94,44.44,57,41.07001,57,37C57,34.97998,56.23999,33.14001,55,31.72998z M16,29c0-0.54999,0.45001-1,1-1s1,0.45001,1,1v16
		c0,0.54999-0.45001,1-1,1s-1-0.45001-1-1V29z M14,31.07996v11.84003C11.16998,42.44,9,39.96997,9,37
		C9,34.02997,11.16998,31.56,14,31.07996z M35,55h-6c-0.54999,0-1-0.45001-1-1s0.45001-1,1-1h6c0.54999,0,1,0.45001,1,1
		S35.54999,55,35,55z M48,45c0,0.54999-0.45001,1-1,1s-1-0.45001-1-1V29c0-0.54999,0.45001-1,1-1s1,0.45001,1,1V45z M50,42.91998
		V31.07996C52.83002,31.56,55,34.02997,55,37C55,39.96997,52.83002,42.44,50,42.91998z"/>
	<path d="M22,37c0,0.55273,0.44775,1,1,1h18c0.55273,0,1-0.44727,1-1s-0.44727-1-1-1H23C22.44775,36,22,36.44727,22,37z"/>
	<path d="M23,42h3c0.55225,0,1-0.44727,1-1s-0.44775-1-1-1h-3c-0.55225,0-1,0.44727-1,1S22.44775,42,23,42z"/>
	<path d="M41,40H30c-0.55225,0-1,0.44727-1,1s0.44775,1,1,1h11c0.55273,0,1-0.44727,1-1S41.55273,40,41,40z"/>
	<path d="M42,45c0-0.55273-0.44727-1-1-1H23c-0.55225,0-1,0.44727-1,1s0.44775,1,1,1h18C41.55273,46,42,45.55273,42,45z"/>
	<path d="M23.46826,26.46973c-0.40186,0.30469-0.51465,0.86133-0.2627,1.29785l2,3.46484
		c0.25146,0.43652,0.79004,0.61816,1.25488,0.4209c0.53809-0.22461,1.13477-0.18848,1.63916,0.10254
		c0.50488,0.29102,0.83594,0.79004,0.9082,1.36816C29.07031,33.62402,29.49561,34,30,34h4c0.50391,0,0.92969-0.375,0.99219-0.87598
		c0.07227-0.57812,0.40332-1.07715,0.9082-1.36914c0.50391-0.29004,1.10059-0.32715,1.63867-0.10156
		c0.46094,0.19824,1.00195,0.01758,1.25488-0.4209l2-3.46484c0.25195-0.43652,0.13965-0.99316-0.2627-1.29688
		c-0.46484-0.35156-0.73047-0.8877-0.73047-1.4707s0.26562-1.11914,0.73047-1.4707c0.40234-0.30371,0.51465-0.86035,0.2627-1.29688
		l-2-3.46484c-0.25293-0.43848-0.79492-0.61719-1.25488-0.4209c-0.53809,0.22656-1.13477,0.18945-1.63867-0.10156
		c-0.50488-0.29199-0.83594-0.79102-0.9082-1.36914C34.92969,16.375,34.50391,16,34,16h-4
		c-0.50439,0-0.92969,0.37598-0.99219,0.87598c-0.07227,0.57812-0.40332,1.07715-0.9082,1.36816
		c-0.50439,0.29102-1.10107,0.32812-1.63916,0.10254c-0.46533-0.19824-1.00293-0.0166-1.25488,0.4209l-2,3.46484
		c-0.25195,0.43652-0.13916,0.99316,0.2627,1.29785c0.46484,0.35156,0.73096,0.88672,0.73096,1.46973
		S23.93311,26.11816,23.46826,26.46973z M25.32715,22.55859l1.22168-2.11719c0.86914,0.14844,1.76416-0.01074,2.55078-0.46484
		S30.4707,18.82617,30.77832,18h2.44336c0.30762,0.82617,0.89258,1.52246,1.67969,1.97656
		c0.78613,0.45508,1.68359,0.61328,2.5498,0.46484l1.22168,2.11719C38.11133,23.2373,37.80078,24.0918,37.80078,25
		s0.31055,1.7627,0.87207,2.44141l-1.22168,2.11719c-0.87109-0.15039-1.76368,0.00977-2.5498,0.46484
		C34.11426,30.47754,33.5293,31.17383,33.22168,32h-2.44336c-0.30762-0.82617-0.89209-1.52246-1.67871-1.97656
		s-1.68018-0.61426-2.55078-0.46484l-1.22168-2.11719C25.88867,26.7627,26.19922,25.9082,26.19922,25
		S25.88867,23.2373,25.32715,22.55859z"/>
	<path d="M32,29c2.20605,0,4-1.79395,4-4s-1.79395-4-4-4c-2.20557,0-4,1.79395-4,4S29.79443,29,32,29z M32,23
		c1.10254,0,2,0.89746,2,2s-0.89746,2-2,2c-1.10303,0-2-0.89746-2-2S30.89697,23,32,23z"/>
	<circle cx="32" cy="12" r="1"/>
</g>
</svg>
