<?xml version="1.0" encoding="utf-8"?>
<!-- Generator: Adobe Illustrator 27.3.1, SVG Export Plug-In . SVG Version: 6.00 Build 0)  -->
<svg version="1.1" id="Outline" xmlns="http://www.w3.org/2000/svg" xmlns:xlink="http://www.w3.org/1999/xlink" x="0px" y="0px"
	 viewBox="0 0 64 64" enable-background="new 0 0 64 64" xml:space="preserve">
<g>
	<path d="M56.65997,48.25c-5.31995-4.65002-11.03998-6.98004-15.79999-8.14001C44.69,37.31,47,32.87,47,28
		c0-3.04999-0.91998-5.89001-2.48999-8.26001l1.63-1.64001c0,0,0.7091,0.70916,0.70996,0.71002
		c0.36158,0.36161,1.0132,0.39684,1.41003,0c0.39001-0.39001,0.39001-1.03003,0-1.41998l-5.65002-5.65002
		c-0.39001-0.39001-1.02997-0.39001-1.41998,0s-0.39001,1.02002,0,1.40997l0.71002,0.71002l-1.64001,1.63
		c-1.51001-1-3.21002-1.72998-5.04004-2.13C35.70001,12.69,36,11.88,36,11c0-2.21002-1.78998-4-4-4s-4,1.78998-4,4
		c0,0.88,0.29999,1.69,0.78003,2.35999c-1.83002,0.40002-3.53003,1.13-5.04004,2.13l-1.64001-1.63L22.81,13.14996
		c0.39001-0.38995,0.39001-1.01996,0-1.40997s-1.02997-0.39001-1.41998,0l-5.65002,5.65002
		c-0.39001,0.38995-0.39001,1.02997,0.00019,1.42017C16.33552,19.4052,16.59873,18.81,17.15002,18.81l0.70996-0.71002l1.63,1.64001
		C17.91998,22.10999,17,24.95001,17,28c0,4.85999,2.29999,9.28998,6.13,12.08997C15.21997,42.04999,9.71997,46.16998,7.34003,48.25
		c-0.25,0.21997-0.38,0.56-0.33002,0.89001l1,7C8.08002,56.63,8.5,57,9,57h11c0.45001,0,0.84003-0.29999,0.96002-0.73004
		l1.89996-6.62994c1.63-1.04004,3.42004-1.78003,5.32001-2.21002c0.47998-0.08002,0.84003-0.48999,0.84003-0.98999
		c0.01001-0.63-0.61005-1.11005-1.22003-0.98004c-2.27997,0.52002-4.41998,1.43005-6.34998,2.71002
		c-0.20001,0.13-0.35004,0.33002-0.41003,0.56L20.39001,51H9.29999l-0.22998-1.60004C12.38,46.62,20.5,41,32,41
		c3.94,0,13.98999,0.82996,22.92999,8.39996L54.70001,51H43.60999l-0.64996-2.27002c-0.06-0.23999-0.21002-0.42999-0.41003-0.57001
		c-1.95001-1.27997-4.08997-2.17999-6.34998-2.70001C35.59003,45.32001,34.97998,45.81,34.97998,46.44
		c0,0.47998,0.34003,0.88995,0.80005,0.97998c1.89996,0.42999,3.69995,1.17999,5.35999,2.22003l1.89996,6.62994
		C43.15997,56.70001,43.54999,57,44,57h11c0.5,0,0.91998-0.37,0.98999-0.85999l1-7C57.03998,48.81,56.90997,48.46997,56.65997,48.25
		z M19.82001,53L19.25,55H9.87l-0.28998-2H19.82001z M43.31,15.26996L44.72998,16.69L43.31,18.09998L41.90002,16.69L43.31,15.26996z
		 M32,9c1.09998,0,2,0.89996,2,2c0,1.09998-0.90002,2-2,2s-2-0.90002-2-2C30,9.89996,30.90002,9,32,9z M19.27002,16.69
		L20.69,15.26996L22.09998,16.69L20.69,18.09998L19.27002,16.69z M32,39c-2.12,0-4.13,0.19-6.03003,0.51001
		C21.66998,37.25,19,32.87,19,28c0-7.17004,5.83002-13,13-13s13,5.82996,13,13c0,4.88-2.66998,9.26996-6.97998,11.52997
		C35.48999,39.09998,33.38,39,32,39z M54.13,55h-9.38l-0.57001-2h10.23999L54.13,55z"/>
	<circle cx="32" cy="18" r="1"/>
	<circle cx="42" cy="28" r="1"/>
	<circle cx="22" cy="28" r="1"/>
	<path d="M37.70703,22.29297c-0.39062-0.39062-1.02344-0.39062-1.41406,0l-3.00763,3.00763C32.89423,25.11346,32.46173,25,32,25
		c-1.6543,0-3,1.3457-3,3s1.3457,3,3,3s3-1.3457,3-3c0-0.46173-0.11346-0.89423-0.3006-1.28534l3.00763-3.00763
		C38.09766,23.31641,38.09766,22.68359,37.70703,22.29297z M32,29c-0.55127,0-1-0.44873-1-1s0.44873-1,1-1
		c0.27094,0,0.51556,0.11029,0.69586,0.28595c0.00317,0.00323,0.00403,0.00769,0.00726,0.01093s0.00769,0.00409,0.01093,0.00726
		C32.88971,27.48444,33,27.72906,33,28C33,28.55127,32.55127,29,32,29z"/>
	<circle cx="32" cy="46" r="1"/>
</g>
</svg>
