<svg xmlns="http://www.w3.org/2000/svg" xmlns:xlink="http://www.w3.org/1999/xlink" width="150" zoomAndPan="magnify" viewBox="0 8 112.5 86.999996" height="116" preserveAspectRatio="xMidYMid meet" version="1.0">
<style>
    path { fill: #010101; }
    @media (prefers-color-scheme: dark) {
        path { fill: #FFFFFF; }
    }
</style>
<defs><clipPath id="ce303adb3f"><path d="M 30 20.738281 L 111.980469 20.738281 L 111.980469 74 L 30 74 Z M 30 20.738281 " clip-rule="nonzero"/></clipPath><clipPath id="12df6bfd9e"><path d="M 0 20.738281 L 63 20.738281 L 63 75 L 0 75 Z M 0 20.738281 " clip-rule="nonzero"/></clipPath></defs><path d="M 90.453125 28.917969 C 90.453125 28.917969 70.1875 56.359375 62.53125 65.128906 C 61.082031 66.796875 60.042969 68.015625 59.113281 68.816406 C 56.9375 70.6875 55.9375 70.566406 55.9375 70.566406 C 55.9375 70.566406 57.035156 71.53125 59.097656 71.53125 C 60.75 71.53125 62.851562 70.875 64.992188 68.621094 C 73.808594 59.371094 95.738281 28.917969 95.738281 28.917969 Z M 90.453125 28.917969 " fill-rule="nonzero"/><g clip-path="url(#ce303adb3f)"><path d="M 109.09375 20.738281 L 90.003906 20.769531 L 87.902344 20.769531 C 85.914062 20.769531 84.042969 21.664062 82.832031 23.199219 L 60.476562 51.734375 L 60.503906 51.773438 L 46.476562 69.625 L 46.453125 69.601562 L 32.972656 52.445312 L 30.355469 56.148438 L 43.1875 72.324219 C 43.949219 73.363281 45.175781 73.984375 46.484375 73.984375 C 47.792969 73.984375 49.050781 73.347656 49.8125 72.292969 L 51.675781 69.683594 L 51.710938 69.683594 C 51.710938 69.683594 63.445312 54.757812 63.445312 54.757812 L 63.421875 54.726562 L 86.640625 25.039062 L 105.746094 25.039062 L 76.050781 64.066406 C 74.945312 65.40625 73.957031 66.582031 73.113281 67.523438 C 68.222656 73.035156 65.296875 73.976562 65.296875 73.976562 L 69.613281 73.894531 C 71.9375 73.894531 73.367188 73.265625 75.535156 71.039062 C 83.902344 62.40625 104.308594 34.476562 106.710938 31.183594 L 111.324219 25.074219 C 112.707031 23.289062 111.390625 20.738281 109.09375 20.738281 Z M 109.09375 20.738281 " fill-rule="nonzero"/></g><g clip-path="url(#12df6bfd9e)"><path d="M 50.957031 43.710938 C 50.027344 42.015625 48.734375 40.886719 46.835938 40.886719 L 46.253906 40.886719 C 44.375 40.886719 43.082031 42.207031 42.15625 43.644531 L 42.148438 43.644531 L 24.410156 69.75 L 6.046875 69.75 L 32.402344 31.222656 C 33.429688 29.824219 34.355469 28.597656 35.132812 27.609375 C 39.703125 21.835938 42.558594 20.738281 42.558594 20.738281 L 38.25 21.050781 C 35.933594 21.179688 34.535156 21.882812 32.507812 24.230469 C 24.65625 33.308594 0.542969 69.757812 0.542969 69.757812 C 0.183594 70.28125 0.046875 70.851562 0.078125 71.398438 C 0.0117188 72.742188 1.085938 74.023438 2.644531 74.015625 L 23.894531 73.976562 C 25.71875 73.976562 27.425781 73.078125 28.433594 71.597656 L 46.535156 44.96875 L 59.78125 64.074219 L 62.644531 61 L 50.964844 43.710938 Z M 50.957031 43.710938 " fill-rule="nonzero"/></g><path d="M 52.191406 30.535156 C 50.371094 28.53125 47.742188 27.109375 44.921875 27.46875 C 40.785156 28 38.25 32.210938 36.015625 35.230469 C 33.742188 38.304688 14.855469 67.3125 14.71875 67.3125 L 19.789062 67.335938 C 22.128906 63.664062 39.554688 37.617188 41.046875 35.507812 C 42.15625 33.945312 43.417969 32.449219 45.519531 32.308594 C 45.773438 32.292969 46.035156 32.292969 46.289062 32.320312 C 48.609375 32.5625 49.886719 34.332031 51.644531 36.511719 L 59.808594 48.503906 L 62.34375 45.101562 C 62.34375 45.101562 55.167969 33.808594 52.191406 30.535156 Z M 52.191406 30.535156 " fill-rule="nonzero"/></svg>