<svg xmlns="http://www.w3.org/2000/svg" xmlns:xlink="http://www.w3.org/1999/xlink" width="150" zoomAndPan="magnify" viewBox="0 0 112.5 86.999996" height="116" preserveAspectRatio="xMidYMid meet" version="1.0"><defs><clipPath id="deb7727a49"><path d="M 30 11.09375 L 111.980469 11.09375 L 111.980469 65 L 30 65 Z M 30 11.09375 " clip-rule="nonzero"/></clipPath><clipPath id="98c8065f78"><path d="M 0 11.09375 L 63 11.09375 L 63 65 L 0 65 Z M 0 11.09375 " clip-rule="nonzero"/></clipPath></defs><path fill="#010101" d="M 90.453125 19.277344 C 90.453125 19.277344 70.1875 46.714844 62.53125 55.484375 C 61.082031 57.152344 60.042969 58.371094 59.113281 59.171875 C 56.9375 61.042969 55.9375 60.921875 55.9375 60.921875 C 55.9375 60.921875 57.035156 61.886719 59.097656 61.886719 C 60.75 61.886719 62.851562 61.230469 64.992188 58.976562 C 73.808594 49.726562 95.738281 19.277344 95.738281 19.277344 Z M 90.453125 19.277344 " fill-opacity="1" fill-rule="nonzero"/><g clip-path="url(#deb7727a49)"><path fill="#010101" d="M 109.09375 11.09375 L 90.003906 11.125 L 87.902344 11.125 C 85.914062 11.125 84.042969 12.019531 82.832031 13.554688 L 60.476562 42.09375 L 60.503906 42.128906 L 46.476562 59.980469 L 46.453125 59.957031 L 32.972656 42.800781 L 30.355469 46.503906 L 43.1875 62.679688 C 43.949219 63.71875 45.175781 64.339844 46.484375 64.339844 C 47.792969 64.339844 49.050781 63.703125 49.8125 62.648438 L 51.675781 60.039062 L 51.710938 60.039062 C 51.710938 60.039062 63.445312 45.113281 63.445312 45.113281 L 63.421875 45.082031 L 86.640625 15.394531 L 105.746094 15.394531 L 76.050781 54.425781 C 74.945312 55.761719 73.957031 56.9375 73.113281 57.878906 C 68.222656 63.390625 65.296875 64.332031 65.296875 64.332031 L 69.613281 64.25 C 71.9375 64.25 73.367188 63.621094 75.535156 61.394531 C 83.902344 52.765625 104.308594 24.832031 106.710938 21.542969 L 111.324219 15.429688 C 112.707031 13.644531 111.390625 11.09375 109.09375 11.09375 Z M 109.09375 11.09375 " fill-opacity="1" fill-rule="nonzero"/></g><g clip-path="url(#98c8065f78)"><path fill="#010101" d="M 50.957031 34.066406 C 50.027344 32.371094 48.734375 31.242188 46.835938 31.242188 L 46.253906 31.242188 C 44.375 31.242188 43.082031 32.566406 42.15625 34 L 42.148438 34 L 24.410156 60.109375 L 6.046875 60.109375 L 32.402344 21.578125 C 33.429688 20.179688 34.355469 18.953125 35.132812 17.964844 C 39.703125 12.191406 42.558594 11.09375 42.558594 11.09375 L 38.25 11.40625 C 35.933594 11.535156 34.535156 12.238281 32.507812 14.585938 C 24.65625 23.664062 0.542969 60.113281 0.542969 60.113281 C 0.183594 60.636719 0.046875 61.207031 0.078125 61.753906 C 0.0117188 63.097656 1.085938 64.378906 2.644531 64.371094 L 23.894531 64.332031 C 25.71875 64.332031 27.425781 63.433594 28.433594 61.953125 L 46.535156 35.324219 L 59.78125 54.429688 L 62.644531 51.359375 L 50.964844 34.066406 Z M 50.957031 34.066406 " fill-opacity="1" fill-rule="nonzero"/></g><path fill="#010101" d="M 52.191406 20.890625 C 50.371094 18.886719 47.742188 17.464844 44.921875 17.824219 C 40.785156 18.355469 38.25 22.566406 36.015625 25.585938 C 33.742188 28.660156 14.855469 57.667969 14.71875 57.667969 L 19.789062 57.691406 C 22.128906 54.019531 39.554688 27.972656 41.046875 25.863281 C 42.15625 24.300781 43.417969 22.804688 45.519531 22.664062 C 45.773438 22.648438 46.035156 22.648438 46.289062 22.679688 C 48.609375 22.917969 49.886719 24.691406 51.644531 26.867188 L 59.808594 38.863281 L 62.34375 35.457031 C 62.34375 35.457031 55.167969 24.167969 52.191406 20.890625 Z M 52.191406 20.890625 " fill-opacity="1" fill-rule="nonzero"/></svg>