<svg fill="#000000" xmlns="http://www.w3.org/2000/svg"  viewBox="0 0 48 48" width="24px" height="24px"><path d="M 10.998047 2 A 4 4 0 0 0 10.998047 10 A 4 4 0 0 0 10.998047 2 z M 24.537109 7 C 24.248365 6.9922656 23.954734 7.067875 23.693359 7.234375 L 18.419922 10.589844 L 11.839844 12 L 6.8046875 12 C 5.7466875 12 4.8287969 12.730719 4.5917969 13.761719 C 3.7717969 17.313719 1.9980469 25 1.9980469 25 L 4.8242188 34.5 L 3.8769531 39.294922 L 3.0585938 42.076172 A 1.5005517 1.5005517 0 1 0 5.9375 42.923828 L 8.4375 34.423828 A 1.50015 1.50015 0 0 0 8.4980469 34 L 8.4980469 33.998047 A 1.50015 1.50015 0 0 0 8.4980469 33.996094 A 1.50015 1.50015 0 0 0 8.4570312 33.650391 L 7.6796875 27.181641 L 11.498047 34.5 L 11.998047 42.5 A 1.50015 1.50015 0 1 0 14.998047 42.5 L 14.998047 33.5 A 1.50015 1.50015 0 0 0 14.869141 32.890625 L 11.339844 24.947266 C 11.352095 24.903974 11.676268 23.757668 12.142578 22.107422 L 9.7402344 21.466797 C 9.5502344 21.415797 9.3790469 21.309156 9.2480469 21.160156 L 6.1660156 17.660156 C 5.8020156 17.246156 5.8418594 16.615 6.2558594 16.25 C 6.6698594 15.885 7.3019687 15.923844 7.6679688 16.339844 L 10.550781 19.611328 L 15.517578 20.9375 L 19.705078 21.773438 C 19.804078 21.793437 19.903953 21.804688 20.001953 21.804688 C 20.701953 21.804688 21.327703 21.311656 21.470703 20.597656 C 21.633703 19.785656 21.107922 18.994031 20.294922 18.832031 L 13.503906 17.474609 L 13.460938 17.445312 C 13.715938 16.541313 13.963594 15.664672 14.183594 14.888672 C 14.214594 14.778672 14.222328 14.666688 14.236328 14.554688 L 19.314453 13.466797 C 19.488453 13.428797 19.656641 13.361625 19.806641 13.265625 L 25.306641 9.765625 C 26.002641 9.321625 26.207672 8.3943125 25.763672 7.6953125 C 25.484922 7.2578125 25.01835 7.0128906 24.537109 7 z M 27.736328 7.1796875 C 27.903328 7.5876875 27.998047 8.032 27.998047 8.5 C 27.998047 9.112 27.827781 9.6796875 27.550781 10.179688 C 29.371781 10.372687 31.295563 10.726156 32.226562 11.285156 C 33.260562 11.906156 34.359875 13.245062 35.421875 14.539062 C 36.617875 15.996063 37.854906 17.502734 39.253906 18.302734 C 40.614906 19.081734 42.439469 19.977 44.480469 20 L 44.498047 20 C 45.319047 20 45.989047 19.339578 45.998047 18.517578 C 46.007047 17.688578 45.343625 17.009 44.515625 17 C 43.447625 16.988 42.318187 16.598266 40.742188 15.697266 C 39.822187 15.172266 38.763234 13.883719 37.740234 12.636719 C 36.516234 11.144719 35.250531 9.6028437 33.769531 8.7148438 C 32.259531 7.8088438 29.736328 7.3816875 27.736328 7.1796875 z M 23.433594 19.71875 C 23.521594 20.20975 23.516906 20.725281 23.378906 21.238281 C 23.236906 21.768281 22.970813 22.228187 22.632812 22.617188 C 24.227812 23.206187 26.130578 24.137672 27.392578 25.513672 C 28.954578 27.216672 30.372 29.2665 31.875 31.4375 C 33.6 33.9305 35.3855 36.508547 37.4375 38.560547 C 39.5335 40.656547 42.538062 41.001953 44.289062 41.001953 C 44.370063 41.001953 44.448438 40.999047 44.523438 40.998047 C 45.351438 40.983047 46.012047 40.301656 45.998047 39.472656 C 45.983047 38.654656 45.313047 38 44.498047 38 L 44.472656 38 C 43.214656 38.024 40.967594 37.848453 39.558594 36.439453 C 37.698594 34.578453 35.99375 32.113469 34.34375 29.730469 C 32.84975 27.572469 31.303516 25.340328 29.603516 23.486328 C 27.884516 21.612328 25.408594 20.42675 23.433594 19.71875 z"/></svg>