<svg fill="#000000" xmlns="http://www.w3.org/2000/svg"  viewBox="0 0 48 48" width="24px" height="24px"><path d="M 24 2 A 4 4 0 0 0 24 10 A 4 4 0 0 0 24 2 z M 21.007812 12 C 18.804842 12 17.025855 13.908834 17.183594 16.107422 L 17.181641 16.099609 L 17.898438 27 L 11 27 L 11 23 C 11 22.448 10.552 22 10 22 L 7 22 C 6.448 22 6 22.448 6 23 L 6 27 A 1.0001 1.0001 0 1 0 6 29 L 6 33 C 6 33.552 6.448 34 7 34 L 10 34 C 10.552 34 11 33.552 11 33 L 11 29 L 18.082031 29 A 1.50015 1.50015 0 0 0 19.488281 30.021484 L 18.009766 43.333984 A 1.50015 1.50015 0 1 0 20.990234 43.666016 L 21.054688 43.087891 L 23.712891 29 L 24.451172 29 L 27.59375 42.884766 L 27.71875 43.722656 A 1.50015 1.50015 0 1 0 30.685547 43.277344 L 28.697266 30.037109 A 1.50015 1.50015 0 0 0 29.925781 29 L 37 29 L 37 33 C 37 33.552 37.448 34 38 34 L 41 34 C 41.552 34 42 33.552 42 33 L 42 29 A 1.0001 1.0001 0 1 0 42 27 L 42 23 C 42 22.448 41.552 22 41 22 L 38 22 C 37.448 22 37 22.448 37 23 L 37 27 L 30.101562 27 L 30.818359 16.109375 L 30.818359 16.105469 C 30.973738 13.908866 29.194552 12 26.992188 12 L 21.007812 12 z"/></svg>