<svg fill="#000000" xmlns="http://www.w3.org/2000/svg"  viewBox="0 0 48 48" width="24px" height="24px"><path d="M 8.3984375 4.9628906 A 1.50015 1.50015 0 0 0 7.4980469 7.59375 L 19.607422 18.427734 C 18.439698 20.435187 17.736323 22.559033 17.505859 24.794922 C 17.967859 24.607922 18.469047 24.5 18.998047 24.5 C 19.537047 24.5 20.049531 24.609734 20.519531 24.802734 C 20.713117 23.300101 21.182354 21.864805 21.904297 20.484375 L 26.498047 24.59375 A 1.50015 1.50015 0 0 0 27.498047 24.976562 L 44.498047 24.976562 A 1.50015 1.50015 0 1 0 44.498047 21.976562 L 28.072266 21.976562 L 9.5 5.3574219 A 1.50015 1.50015 0 0 0 8.5488281 4.9628906 A 1.50015 1.50015 0 0 0 8.3984375 4.9628906 z M 18.998047 26.5 A 2 2 0 0 0 17.888672 26.837891 C 17.886259 26.839506 17.881311 26.842125 17.878906 26.84375 A 2 2 0 0 0 17.599609 27.074219 C 17.593362 27.080355 17.586245 27.08558 17.580078 27.091797 A 2 2 0 0 0 17.357422 27.361328 C 17.348828 27.373674 17.340352 27.385891 17.332031 27.398438 A 2 2 0 0 0 17.169922 27.697266 C 17.16355 27.711728 17.156427 27.725595 17.150391 27.740234 A 2 2 0 0 0 17.048828 28.066406 C 17.044898 28.084089 17.040567 28.101285 17.037109 28.119141 A 2 2 0 0 0 17.001953 28.462891 C 17.001716 28.475567 16.998047 28.487268 16.998047 28.5 C 16.998047 28.508054 16.999903 28.515408 17 28.523438 A 2 2 0 0 0 18.646484 30.466797 C 18.651843 30.46779 18.656735 30.469755 18.662109 30.470703 A 2 2 0 0 0 18.998047 30.5 A 2 2 0 0 0 20.117188 30.158203 C 20.117188 30.158203 20.119141 30.15625 20.119141 30.15625 A 2 2 0 0 0 20.412109 29.914062 C 20.414046 29.912126 20.41604 29.910147 20.417969 29.908203 A 2 2 0 0 0 20.640625 29.638672 C 20.649219 29.626326 20.657695 29.614109 20.666016 29.601562 A 2 2 0 0 0 20.828125 29.302734 C 20.834496 29.288272 20.84162 29.274405 20.847656 29.259766 A 2 2 0 0 0 20.949219 28.933594 C 20.953011 28.91653 20.957584 28.900037 20.960938 28.882812 A 2 2 0 0 0 20.996094 28.515625 C 20.996136 28.510261 20.998047 28.505374 20.998047 28.5 C 20.998047 28.496682 20.998063 28.493549 20.998047 28.490234 A 2 2 0 0 0 20.960938 28.126953 C 20.957966 28.111287 20.95646 28.095613 20.953125 28.080078 A 2 2 0 0 0 20.849609 27.75 C 20.844069 27.736372 20.839815 27.722461 20.833984 27.708984 A 2 2 0 0 0 20.675781 27.414062 C 20.664738 27.397075 20.654118 27.379908 20.642578 27.363281 A 2 2 0 0 0 20.427734 27.103516 C 20.417725 27.093271 20.40671 27.084248 20.396484 27.074219 A 2 2 0 0 0 20.144531 26.863281 C 20.124772 26.84942 20.104259 26.837374 20.083984 26.824219 A 2 2 0 0 0 19.791016 26.666016 C 19.781108 26.661729 19.771709 26.656474 19.761719 26.652344 A 2 2 0 0 0 19.425781 26.548828 C 19.408898 26.545148 19.392039 26.542313 19.375 26.539062 A 2 2 0 0 0 18.998047 26.5 z M 6.4980469 27 C 5.6690469 27 4.9980469 27.672 4.9980469 28.5 L 4.9980469 38 L 4.4980469 38 A 1.50015 1.50015 0 1 0 4.4980469 41 L 6.4980469 41 L 8.4980469 41 A 1.50015 1.50015 0 1 0 8.4980469 38 L 7.9980469 38 L 7.9980469 30 L 15.296875 30 C 15.108875 29.536 14.998047 29.031 14.998047 28.5 C 14.998047 27.969 15.108875 27.464 15.296875 27 L 6.4980469 27 z M 22.701172 27 C 22.889172 27.464 22.998047 27.969 22.998047 28.5 C 22.998047 29.031 22.889172 29.536 22.701172 30 L 38.998047 30 L 38.998047 38 L 38.498047 38 A 1.50015 1.50015 0 1 0 38.498047 41 L 40.498047 41 L 42.498047 41 A 1.50015 1.50015 0 1 0 42.498047 38 L 41.998047 38 L 41.998047 28.5 C 41.998047 27.672 41.327047 27 40.498047 27 L 22.701172 27 z M 21.322266 31.744141 C 20.666266 32.215141 19.867047 32.5 18.998047 32.5 C 18.792047 32.5 18.596438 32.469453 18.398438 32.439453 C 18.729437 33.486453 19.135672 34.548859 19.638672 35.630859 C 19.892672 36.178859 20.434 36.5 21 36.5 C 21.211 36.5 21.426859 36.454375 21.630859 36.359375 C 22.381859 36.010375 22.708375 35.119187 22.359375 34.367188 C 21.944375 33.471187 21.603266 32.599141 21.322266 31.744141 z"/></svg>