<svg fill="#000000" xmlns="http://www.w3.org/2000/svg"  viewBox="0 0 48 48" width="24px" height="24px"><path d="M 36.480469 3.4589844 C 36.111703 3.456743 35.748095 3.4697648 35.392578 3.4941406 C 32.548444 3.6891472 30.097656 4.6347656 30.097656 4.6347656 A 1.50015 1.50015 0 0 0 29.621094 4.9238281 C 27.786404 6.5829868 27.288054 8.6966438 27.158203 10.619141 L 25.25 13.492188 A 1.50015 1.50015 0 0 0 25.738281 15.615234 L 26.998047 16.357422 L 26.998047 17.951172 C 26.998047 18.758766 27.319001 19.535798 27.890625 20.107422 C 28.462281 20.679078 29.241234 21 30.048828 21 L 30.998047 21 L 30.998047 22.537109 C 30.447442 22.851406 29.914171 23.151943 29.369141 23.134766 C 28.634465 23.111616 27.772455 22.820474 26.798828 22.222656 A 1.50015 1.50015 0 0 0 26.611328 22.125 C 26.611328 22.125 25.459163 21.640075 23.933594 21.724609 C 22.817825 21.786439 21.427637 22.350498 20.023438 23.28125 C 19.283182 22.443856 17.970863 21.62131 16.095703 21.464844 C 14.950476 21.369084 13.973208 21.684821 13.099609 22.050781 C 13.172819 21.349201 13.259766 21.148996 13.259766 20.453125 C 13.259766 19.382086 13.647366 18.695442 14.109375 18.119141 C 14.924479 18.625409 15.821219 18.915846 16.623047 18.873047 C 17.310327 18.836367 17.939664 18.679289 18.494141 18.453125 C 19.047787 18.2273 19.528473 18.002781 19.980469 17.414062 C 20.679483 16.503262 20.730068 15.609004 20.757812 14.738281 C 20.785563 13.867558 20.834042 13.167708 20.294922 12.244141 C 19.20054 10.370528 17.19437 9.8360579 15.742188 9.7753906 C 14.290003 9.7147234 13.097656 10.054687 13.097656 10.054688 A 1.50015 1.50015 0 0 0 12.941406 10.107422 C 12.941406 10.107422 10.609012 11.061719 8.2871094 13.550781 C 5.9652065 16.039844 3.544924 20.144801 3.0039062 26.369141 A 1.50015 1.50015 0 0 0 3.2226562 27.289062 C 6.6555748 32.834547 10.852316 35.159183 14.460938 35.783203 C 17.395529 36.290666 19.603406 35.732573 21.142578 35.140625 C 21.563649 35.561855 22.25181 36.294532 23.021484 37.363281 C 23.914833 38.603761 24.759109 39.920398 25.269531 40.767578 L 26.042969 43.863281 A 1.5006891 1.5006891 0 0 0 28.955078 43.136719 L 28.119141 39.796875 A 1.50015 1.50015 0 0 0 27.953125 39.392578 C 27.550443 38.716347 26.919755 37.74943 26.238281 36.75 C 27.453251 35.706055 28.242551 34.210762 28.919922 32.679688 C 31.126089 34.811341 33.720223 36.005482 36.306641 36.123047 C 39.553035 36.27061 42.709104 34.744249 44.728516 31.859375 A 1.50015 1.50015 0 1 0 42.269531 30.140625 C 40.788943 32.255751 38.695012 33.22939 36.441406 33.126953 C 34.295962 33.029434 31.96529 31.900315 29.998047 29.462891 L 29.998047 26.019531 C 31.191015 25.905723 32.381536 25.51118 33.433594 24.671875 A 1.50015 1.50015 0 0 0 33.998047 23.5 L 33.998047 19.5 A 1.50015 1.50015 0 0 0 32.498047 18 L 30.048828 18 C 30.034418 18 30.022059 17.994705 30.011719 17.984375 C 30.003319 17.975975 29.998047 17.965572 29.998047 17.951172 L 29.998047 15.5 A 1.50015 1.50015 0 0 0 29.259766 14.207031 L 28.625 13.832031 L 29.8125 12.044922 A 1.50015 1.50015 0 0 0 30.0625 11.257812 C 30.10964 9.640449 30.399571 8.4640796 31.486328 7.3691406 C 31.769972 7.2675198 33.473797 6.6339027 35.597656 6.4882812 C 36.744339 6.4096592 37.89249 6.5048711 38.751953 6.8398438 C 39.611416 7.1748166 40.195568 7.649131 40.585938 8.6523438 C 42.240294 12.903201 38.296875 18.601563 38.296875 18.601562 A 1.50015 1.50015 0 0 0 37.998047 19.5 L 37.998047 23.5 A 1.50015 1.50015 0 0 0 39.498047 25 L 43.498047 25 A 1.50015 1.50015 0 1 0 43.498047 22 L 40.998047 22 L 40.998047 19.871094 C 41.577381 19.10592 45.694545 13.50945 43.380859 7.5644531 C 42.691229 5.7921658 41.313896 4.6186678 39.841797 4.0449219 C 38.737722 3.6146124 37.586766 3.4657085 36.480469 3.4589844 z M 15.615234 12.771484 C 16.5328 12.809814 17.276507 13.025476 17.703125 13.755859 C 17.530009 13.459292 17.776526 14.116801 17.759766 14.642578 C 17.747602 15.024401 17.622655 15.40737 17.589844 15.544922 C 17.537019 15.582294 17.465458 15.633303 17.361328 15.675781 C 17.117024 15.775431 16.775188 15.860388 16.464844 15.876953 C 15.844155 15.910083 15.586518 15.872554 15.365234 15.382812 A 1.50015 1.50015 0 0 0 12.916016 14.960938 C 12.669668 15.217631 10.259766 17.255359 10.259766 20.453125 C 10.259766 21.901389 9.8554687 24.429687 9.8554688 24.429688 A 1.50015 1.50015 0 0 0 12.220703 25.888672 C 12.220703 25.888672 12.769665 25.489571 13.552734 25.097656 C 14.335804 24.705742 15.324208 24.411472 15.845703 24.455078 C 17.039697 24.554708 17.50547 24.952147 17.785156 25.271484 C 18.064843 25.590822 18.082031 25.742188 18.082031 25.742188 A 1.50015 1.50015 0 0 0 20.605469 26.474609 C 22.010784 25.073128 23.215929 24.769669 24.099609 24.720703 C 24.959222 24.673067 25.375494 24.858698 25.398438 24.869141 C 25.918111 25.173558 26.452685 25.430239 26.998047 25.636719 L 26.998047 29.689453 C 26.259159 31.537422 25.311601 33.288805 24.441406 34.242188 C 23.814092 33.429197 23.184404 32.714538 22.460938 32.207031 A 1.50015 1.50015 0 0 0 20.908203 32.103516 C 20.211117 32.465131 17.775785 33.310902 14.972656 32.826172 C 12.261336 32.357318 9.0623988 30.70782 6.0800781 26.121094 C 6.6505717 20.87033 8.6235135 17.588298 10.480469 15.597656 C 12.326687 13.618525 13.849971 12.987215 13.972656 12.9375 C 14.035996 12.9212 14.736362 12.734768 15.615234 12.771484 z"/></svg>