<svg fill="#000000" xmlns="http://www.w3.org/2000/svg"  viewBox="0 0 48 48" width="24px" height="24px"><path d="M 26.994141 4 C 24.786141 4 22.996094 5.7920469 22.996094 7.9980469 C 22.996094 10.208047 24.786141 12 26.994141 12 C 29.207141 12 30.996094 10.208047 30.996094 7.9980469 C 30.996094 5.7920469 29.207141 4 26.994141 4 z M 23.994141 14 C 23.288066 14 22.636267 14.200048 22.060547 14.521484 C 21.924021 14.575498 21.785444 14.613302 21.650391 14.679688 L 14.816406 18.164062 C 14.627406 18.260063 14.459172 18.3965 14.326172 18.5625 L 10.326172 23.5625 C 9.8081719 24.2095 9.9145469 25.151922 10.560547 25.669922 C 11.210547 26.188922 12.150969 26.0835 12.667969 25.4375 L 16.433594 20.730469 L 19.316406 19.957031 L 18.101562 26.117188 C 18.088978 26.17287 18.078591 26.228624 18.068359 26.285156 L 18.039062 26.435547 L 18.052734 26.439453 C 18.026678 26.623728 17.996094 26.806639 17.996094 26.998047 C 17.996094 28.292855 18.621266 29.432551 19.574219 30.164062 L 19.570312 30.169922 L 19.705078 30.271484 C 19.730373 30.289253 19.753577 30.30898 19.779297 30.326172 L 25.996094 35 L 30.167969 43.222656 L 30.177734 43.173828 C 30.437457 43.682051 30.944619 44 31.496094 44 C 31.671094 44 31.851438 43.970297 32.023438 43.904297 C 32.799438 43.613297 33.191391 42.747656 32.900391 41.972656 L 29.900391 33.972656 C 29.844302 33.822338 29.758207 33.688499 29.658203 33.564453 L 29.65625 33.552734 L 25.880859 28.423828 L 27.263672 21.361328 L 28.910156 23.791016 L 29.222656 24.292969 C 29.369656 24.528969 29.578172 24.717797 29.826172 24.841797 L 35.826172 27.841797 C 36.042172 27.948797 36.270094 28 36.496094 28 C 37.046094 28 37.575844 27.695875 37.839844 27.171875 C 38.209844 26.429875 37.910922 25.529203 37.169922 25.158203 L 31.548828 22.347656 L 27.779297 16.289062 C 27.539415 15.894684 27.239279 15.567756 26.914062 15.277344 C 26.184019 14.495802 25.15014 14 23.994141 14 z M 9.1972656 26.65625 L 4.0742188 42.025391 C 3.8122187 42.811391 4.2354844 43.660875 5.0214844 43.921875 C 5.1794844 43.975875 5.3390937 44 5.4960938 44 C 6.1240938 44 6.7109219 43.602609 6.9199219 42.974609 L 12.052734 27.580078 C 11.931734 27.591078 11.811406 27.599609 11.691406 27.599609 C 10.866406 27.599609 10.067594 27.327281 9.4335938 26.863281 C 9.3465938 26.799281 9.2762656 26.72425 9.1972656 26.65625 z M 37.996094 29.400391 C 37.897094 29.443391 37.807125 29.500156 37.703125 29.535156 C 37.353125 29.653156 36.912672 29.744141 36.388672 29.744141 C 35.976672 29.744141 35.508094 29.680156 34.996094 29.535156 L 34.996094 42.5 C 34.996094 43.328 35.668094 44 36.496094 44 C 37.324094 44 37.996094 43.328 37.996094 42.5 L 37.996094 29.400391 z M 18.460938 31.908203 L 17.560547 36.201172 L 13.501953 41.373047 L 13.435547 41.439453 C 12.849547 42.025453 12.849547 42.974547 13.435547 43.560547 C 13.728547 43.853547 14.112094 44 14.496094 44 C 14.880094 44 15.264641 43.853547 15.556641 43.560547 L 20.556641 38.560547 C 20.77886 38.338328 20.915068 38.064374 20.96875 37.777344 L 22.308594 34.751953 L 18.460938 31.908203 z"/></svg>