<svg fill="#000000" xmlns="http://www.w3.org/2000/svg"  viewBox="0 0 48 48" width="24px" height="24px"><path d="M 12.998047 12 C 10.790047 12 9 13.792047 9 15.998047 C 9 18.208047 10.790047 20 12.998047 20 C 15.211047 20 17 18.208047 17 15.998047 C 17 13.792047 15.211047 12 12.998047 12 z M 30.476562 13.990234 A 1.50015 1.50015 0 0 0 29.800781 14.171875 L 13.226562 22.896484 A 1.50015 1.50015 0 0 0 12.96875 23.0625 C 12.708636 23.227413 12.459265 23.417688 12.232422 23.644531 C 10.637993 25.239922 10.593527 27.783546 12.068359 29.451172 L 12.042969 29.488281 L 20.226562 37.644531 C 20.228909 37.646889 20.230068 37.64999 20.232422 37.652344 C 20.234773 37.654697 20.237879 37.655857 20.240234 37.658203 L 20.412109 37.830078 L 20.429688 37.8125 C 20.504054 37.878518 20.580497 37.9401 20.658203 38 L 10.5 38 A 1.50015 1.50015 0 1 0 10.5 41 L 36.5 41 A 1.50015 1.50015 0 1 0 36.5 38 L 25.820312 38 C 25.963819 37.889332 26.110676 37.785808 26.242188 37.654297 C 26.287352 37.609132 26.318617 37.556414 26.361328 37.509766 L 42.892578 23.363281 A 1.50015 1.50015 0 0 0 42.005859 20.710938 A 1.50015 1.50015 0 0 0 40.943359 21.083984 L 40.865234 21.150391 L 25.240234 30.638672 L 19.285156 24.683594 L 30.880859 16.996094 L 31.199219 16.828125 A 1.50015 1.50015 0 0 0 30.476562 13.990234 z"/></svg>