<svg fill="#000000" xmlns="http://www.w3.org/2000/svg"  viewBox="0 0 48 48" width="24px" height="24px"><path d="M 6 20 A 4 4 0 0 0 6 28 A 4 4 0 0 0 6 20 z M 15.044922 23.980469 A 4 4 0 0 0 11.783203 30.292969 L 13.455078 35.214844 L 9.5625 38.328125 A 1.50015 1.50015 0 0 0 10.302734 41 L 2.5 41 A 1.50015 1.50015 0 1 0 2.5 44 L 45.5 44 A 1.50015 1.50015 0 1 0 45.521484 41 A 1.50015 1.50015 0 0 0 45.757812 38.191406 L 35.279297 33.173828 A 1.50015 1.50015 0 0 0 35.275391 33.171875 L 29.878906 30.605469 A 3.5 3.5 0 0 0 27.640625 28.193359 L 27.642578 28.181641 L 16.761719 24.367188 L 16.761719 24.369141 A 4 4 0 0 0 15.044922 23.980469 z M 16.261719 32.488281 C 22.500765 34.379162 33.871624 37.578623 44.117188 40.734375 L 44.460938 40.898438 A 1.50015 1.50015 0 0 0 44.728516 41 L 10.673828 41 A 1.50015 1.50015 0 0 0 11.4375 40.671875 L 16.4375 36.671875 A 1.50015 1.50015 0 0 0 16.896484 34.953125 L 16.777344 34.648438 L 16.261719 32.488281 z"/></svg>