<svg fill="#000000" xmlns="http://www.w3.org/2000/svg"  viewBox="0 0 48 48" width="24px" height="24px"><path d="M 38.498047 4 A 4.5 4.5 0 0 0 38.498047 13 A 4.5 4.5 0 0 0 38.498047 4 z M 23.515625 7 C 23.280125 6.997125 23.043172 7.04825 22.826172 7.15625 L 16.826172 10.15625 C 16.085172 10.52725 15.78625 11.427922 16.15625 12.169922 C 16.52725 12.910922 17.427922 13.210797 18.169922 12.841797 L 23.478516 10.185547 L 27.193359 12.152344 C 27.159359 12.185344 27.130656 12.225766 27.097656 12.259766 C 25.886656 13.540766 20.272109 19.508875 19.662109 20.796875 C 19.589109 20.906875 19.534656 21.028484 19.472656 21.146484 C 19.401656 21.248484 19.339922 21.356516 19.294922 21.478516 L 15.705078 31.169922 L 9.4375 37.439453 C 8.8515 38.025453 8.8515 38.974547 9.4375 39.560547 C 9.7315 39.854547 10.114047 40 10.498047 40 C 10.882047 40 11.267547 39.853547 11.560547 39.560547 L 18.060547 33.060547 C 18.186547 32.934547 18.281469 32.783094 18.355469 32.621094 L 22.308594 26.986328 L 28.703125 30.824219 L 22.611328 35.291016 C 21.943328 35.781016 21.799063 36.720672 22.289062 37.388672 C 22.582062 37.788672 23.039 38 23.5 38 C 23.808 38 24.119719 37.905937 24.386719 37.710938 L 31.886719 32.210938 C 32.224719 31.962937 32.443234 31.583969 32.490234 31.167969 C 32.537234 30.750969 32.406813 30.333578 32.132812 30.017578 L 27.1875 24.310547 L 32.738281 17.964844 L 33.376953 17.412109 L 36.291016 21.386719 C 36.583016 21.786719 37.038 22 37.5 22 C 37.787 22 38.075078 21.918047 38.330078 21.748047 L 44.330078 17.748047 C 45.020078 17.288047 45.206094 16.356969 44.746094 15.667969 C 44.286094 14.978969 43.357969 14.790953 42.667969 15.251953 L 37.859375 18.455078 L 34.402344 13.742188 C 33.488344 12.495188 32.282062 11.453516 30.914062 10.728516 L 24.199219 7.1738281 C 23.985219 7.0603281 23.751125 7.002875 23.515625 7 z M 4.3769531 36.003906 C 4.0889473 36.027262 3.80475 36.133875 3.5625 36.328125 C 2.9155 36.846125 2.810125 37.7905 3.328125 38.4375 L 5.3789062 41 L 3.4980469 41 C 2.6690469 41 1.9980469 41.672 1.9980469 42.5 C 1.9980469 43.328 2.6690469 44 3.4980469 44 L 15.498047 44 C 16.327047 44 16.998047 43.328 16.998047 42.5 C 16.998047 41.672 16.327047 41 15.498047 41 L 9.2207031 41 L 5.6699219 36.5625 C 5.3467969 36.15875 4.8569629 35.96498 4.3769531 36.003906 z"/></svg>