<svg fill="#000000" xmlns="http://www.w3.org/2000/svg"  viewBox="0 0 48 48" width="24px" height="24px"><path d="M 11.478516 10.011719 C 8.9945156 10.016719 6.9813281 12.033719 6.9863281 14.511719 C 6.9913281 16.989719 9.0120937 18.997188 11.496094 18.992188 C 11.890094 18.991187 12.264906 18.924125 12.628906 18.828125 L 13.269531 17.632812 L 9.7246094 16.628906 C 9.1936094 16.478906 8.8841563 15.925531 9.0351562 15.394531 C 9.1841562 14.861531 9.7425313 14.551078 10.269531 14.705078 L 10.962891 14.900391 A 1.50015 1.50015 0 0 0 11.083984 14.941406 L 16.246094 16.416016 L 14.583984 19.324219 C 12.466611 19.42161 10.771447 21.152589 10.765625 23.294922 C 10.763643 24.024179 10.97259 24.699338 11.3125 25.289062 L 11.283203 25.308594 L 17.578125 35.044922 C 18.275597 36.207393 19.53265 36.99605 20.986328 37 C 22.011457 37.002786 22.938834 36.607729 23.648438 35.974609 L 23.652344 36 L 29.996094 30 L 36.34375 36.462891 L 36.326172 36.439453 A 1.5010199 1.5010199 0 0 0 38.681641 34.578125 L 31.681641 25.578125 A 1.50015 1.50015 0 0 0 30.511719 25 A 1.50015 1.50015 0 0 0 29.826172 25.158203 L 22.9375 28.603516 L 18.306641 21.484375 C 18.086706 21.058415 17.798608 20.677293 17.447266 20.357422 L 19.798828 16.244141 A 1.50015 1.50015 0 0 0 18.908203 14.058594 L 15.759766 13.158203 C 15.183575 11.336675 13.494316 10.007663 11.478516 10.011719 z M 3.4960938 38 A 1.50015 1.50015 0 1 0 3.4960938 41 L 44.496094 41 A 1.50015 1.50015 0 1 0 44.496094 38 L 3.4960938 38 z"/></svg>