<svg fill="#000000" xmlns="http://www.w3.org/2000/svg"  viewBox="0 0 48 48" width="24px" height="24px"><path d="M 22.998047 5 C 20.790047 5 19 6.7920469 19 8.9980469 C 19 11.208047 20.790047 13 22.998047 13 C 25.211047 13 27 11.208047 27 8.9980469 C 27 6.7920469 25.211047 5 22.998047 5 z M 19.998047 15 C 18.288846 15 16.841373 16.079469 16.269531 17.587891 L 16.244141 17.585938 L 11.990234 27.216797 C 11.989604 27.218141 11.988911 27.219358 11.988281 27.220703 C 11.987388 27.222611 11.987218 27.224654 11.986328 27.226562 L 11.970703 27.261719 L 11.972656 27.263672 C 11.056475 29.280733 11.92963 31.659245 13.935547 32.597656 C 14.256798 32.747965 14.58865 32.837081 14.921875 32.898438 L 14.919922 32.904297 L 15.015625 32.912109 C 15.110547 32.927275 15.205768 32.942893 15.300781 32.951172 A 1.50015 1.50015 0 0 0 15.701172 33 L 16.169922 33 L 23.669922 33.574219 L 21.212891 41.681641 L 21.238281 41.662109 L 21.148438 41.849609 A 1.50015 1.50015 0 1 0 23.851562 43.150391 L 29.138672 32.150391 A 1.50015 1.50015 0 0 0 28.259766 30.076172 L 28.265625 30.064453 L 20.423828 27.921875 L 24.365234 19.103516 L 37.759766 18 L 38.5 18 A 1.50015 1.50015 0 1 0 38.5 15 L 20.361328 15 A 1.50015 1.50015 0 0 0 20.142578 15.015625 C 20.093423 15.01384 20.047644 15 19.998047 15 z"/></svg>