<svg fill="#000000" xmlns="http://www.w3.org/2000/svg"  viewBox="0 0 48 48" width="24px" height="24px"><path d="M 23 4 A 4 4 0 0 0 23 12 A 4 4 0 0 0 23 4 z M 21.277344 14 C 19.279344 14 17.461094 15.159656 16.621094 16.972656 C 15.095094 20.262656 12.669203 25.494422 11.283203 28.482422 C 11.22569 28.606296 11.189263 28.735908 11.167969 28.867188 A 4 4 0 0 0 15 34 A 4 4 0 0 0 15.408203 33.978516 C 16.839436 33.942944 18.510192 33.783026 20.289062 33.515625 L 17.121094 40.908203 A 1.5005351 1.5005351 0 1 0 19.878906 42.091797 L 23.833984 32.861328 C 24.391315 32.742844 24.952794 32.632842 25.5 32.5 L 22.212891 40.712891 L 22.228516 40.691406 L 22.158203 40.830078 A 1.50015 1.50015 0 1 0 24.841797 42.169922 L 30.841797 30.169922 A 1.50015 1.50015 0 0 0 29.5 28 L 21 28 L 26.5 17 L 38.5 17 A 1.50015 1.50015 0 1 0 38.5 14 L 28 14 L 21.277344 14 z"/></svg>