<svg fill="#000000" xmlns="http://www.w3.org/2000/svg"  viewBox="0 0 48 48" width="24px" height="24px"><path d="M 35.482422 3.4589844 C 35.113656 3.456743 34.750048 3.4697648 34.394531 3.4941406 C 31.550397 3.6891472 29.097656 4.6347656 29.097656 4.6347656 A 1.50015 1.50015 0 0 0 28.623047 4.9238281 C 26.788563 6.582801 26.287432 8.6958548 26.158203 10.619141 L 24.25 13.492188 A 1.50015 1.50015 0 0 0 24.738281 15.615234 L 25.998047 16.357422 L 25.998047 17.949219 C 25.998047 18.759246 26.322353 19.535237 26.890625 20.105469 A 1.50015 1.50015 0 0 0 26.892578 20.107422 C 27.464187 20.679031 28.241267 21 29.048828 21 L 29.998047 21 L 29.998047 22.570312 C 27.774568 22.608755 25.193497 22.777795 22.259766 24.017578 C 18.921284 24.45276 15.727728 24.115537 12.453125 23.349609 C 12.590446 22.571108 12.618237 21.864424 12.664062 21.310547 C 12.730132 20.51196 13.096603 19.465088 14.099609 17.894531 C 14.952818 18.173997 15.801737 18.287432 16.527344 18.097656 C 17.689314 17.793753 18.507314 17.113779 19.060547 16.560547 C 19.540338 16.080756 19.64663 15.619049 19.730469 15.207031 C 19.814309 14.795013 19.833068 14.39882 19.822266 14.005859 C 19.800656 13.219938 19.765576 12.55042 19.294922 11.744141 C 18.178056 9.830772 16.075838 9.375698 14.578125 9.3808594 C 13.080412 9.3860194 11.853516 9.7851563 11.853516 9.7851562 A 1.50015 1.50015 0 0 0 11.539062 9.9257812 C 11.539062 9.9257812 9.5661649 11.123778 7.6152344 13.796875 C 5.6643039 16.469972 3.6220689 20.701017 3.0859375 26.869141 A 1.50015 1.50015 0 0 0 3.5820312 28.119141 C 10.226445 34.04272 20.326446 33.506597 23.693359 33.148438 L 25.009766 43.685547 A 1.5007717 1.5007717 0 1 0 27.988281 43.314453 L 27.246094 37.378906 C 28.552325 36.191613 29.46141 34.923765 30.203125 33.615234 C 32.233181 35.676706 34.428544 36.752399 36.65625 36.623047 C 39.447856 36.460952 41.827991 34.57441 43.728516 31.859375 A 1.50015 1.50015 0 0 0 42.503906 29.482422 A 1.50015 1.50015 0 0 0 41.269531 30.140625 C 39.670055 32.42559 37.996316 33.539048 36.482422 33.626953 C 34.968528 33.714853 33.166339 32.870873 31.087891 30.099609 A 1.50015 1.50015 0 0 0 31.085938 30.097656 L 30.59375 25.539062 C 30.887745 25.536866 31.209546 25.5 31.498047 25.5 A 1.50015 1.50015 0 0 0 32.998047 24 L 32.998047 19.5 A 1.50015 1.50015 0 0 0 31.498047 18 L 29.048828 18 C 29.037228 18 29.025425 17.995198 29.015625 17.986328 L 29.013672 17.984375 C 29.003502 17.973165 28.998047 17.960439 28.998047 17.949219 L 28.998047 15.5 A 1.50015 1.50015 0 0 0 28.259766 14.207031 L 27.625 13.832031 L 28.8125 12.044922 A 1.50015 1.50015 0 0 0 29.0625 11.257812 C 29.10876 9.6414308 29.399314 8.4642503 30.486328 7.3691406 C 30.768543 7.2680112 32.474785 6.6339687 34.599609 6.4882812 C 35.746292 6.4096592 36.894443 6.5048711 37.753906 6.8398438 C 38.613369 7.1748166 39.195567 7.649131 39.585938 8.6523438 C 41.240235 12.903049 37.296875 18.601562 37.296875 18.601562 A 1.50015 1.50015 0 0 0 36.998047 19.5 L 36.998047 23.5 A 1.50015 1.50015 0 0 0 38.498047 25 L 42.498047 25 A 1.50015 1.50015 0 1 0 42.498047 22 L 39.998047 22 L 39.998047 19.871094 C 40.577513 19.105922 44.696554 13.509593 42.382812 7.5644531 C 41.693182 5.7921658 40.31585 4.6186678 38.84375 4.0449219 C 37.739675 3.6146124 36.588719 3.4657085 35.482422 3.4589844 z M 14.587891 12.380859 C 15.556678 12.377559 16.299991 12.565228 16.703125 13.255859 C 16.598474 13.07658 16.81233 13.655562 16.824219 14.087891 C 16.829319 14.271647 16.813195 14.421652 16.796875 14.53125 C 16.477444 14.821858 16.10017 15.108837 15.769531 15.195312 C 15.393502 15.293662 15.087208 15.326043 14.412109 14.808594 A 1.50015 1.50015 0 0 0 12.294922 15.105469 C 10.3243 17.758433 9.7893808 19.667824 9.6738281 21.064453 C 9.5582755 22.461082 9.7499801 22.833366 9.2128906 23.728516 A 1.50015 1.50015 0 0 0 10.09375 25.943359 C 14.28374 27.120789 18.45153 27.574688 22.828125 26.972656 A 1.50015 1.50015 0 0 0 23.226562 26.859375 C 24.768442 26.180692 26.21588 25.841928 27.589844 25.671875 L 28.181641 31.150391 C 27.80375 31.998362 27.365972 32.793611 26.767578 33.556641 L 26.488281 31.314453 A 1.50015 1.50015 0 0 0 24.783203 30.015625 C 24.783203 30.015625 12.767902 31.443943 6.2011719 26.304688 C 6.7952958 21.168005 8.4719177 17.711701 10.039062 15.564453 C 11.552069 13.491385 12.708643 12.750437 12.917969 12.621094 C 13.050223 12.583034 13.703912 12.383906 14.587891 12.380859 z"/></svg>