<svg fill="#000000" xmlns="http://www.w3.org/2000/svg"  viewBox="0 0 48 48" width="24px" height="24px"><path d="M 32.361328 4.8300781 C 31.073328 4.8613281 29.819516 5.0802187 28.978516 5.2617188 C 28.398516 5.3867188 28.058234 5.9730625 28.240234 6.5390625 C 28.766234 8.1780625 29.993266 11.319266 31.947266 12.447266 C 33.891266 13.570266 36.36475 12.928625 37.46875 11.015625 C 38.57375 9.102625 37.891266 6.6405781 35.947266 5.5175781 C 34.970266 4.9540781 33.649328 4.7988281 32.361328 4.8300781 z M 17.228516 12 C 16.190322 12 15.205204 12.462739 14.541016 13.259766 L 10.140625 18.539062 A 1.5004324 1.5004324 0 1 0 12.445312 20.460938 L 16.791016 15.244141 L 22.404297 15.931641 L 17.597656 22.617188 C 17.099441 23.284089 16.792969 24.102489 16.792969 24.998047 C 16.792969 26.458138 17.583018 27.722923 18.75 28.421875 L 18.748047 28.425781 L 18.826172 28.462891 C 19.007716 28.566344 19.192745 28.659998 19.390625 28.734375 L 27.53125 32.638672 L 28.824219 41.878906 L 28.835938 41.871094 A 1.50015 1.50015 0 0 0 31.792969 41.5 L 31.792969 30.5 A 1.50015 1.50015 0 0 0 31.080078 29.224609 L 28.550781 27.664062 L 25.224609 25.564453 L 29.207031 19.832031 L 31.123047 22.441406 L 31.126953 22.439453 A 1.50015 1.50015 0 0 0 32.292969 23 L 39.292969 23 A 1.50015 1.50015 0 1 0 39.292969 20 L 33.228516 20 L 30.505859 14.457031 A 1.50015 1.50015 0 0 0 30.447266 14.347656 C 30.413492 14.291067 30.375534 14.239814 30.339844 14.185547 C 29.677124 12.893987 28.346069 12 26.791016 12 C 26.664064 12 26.543849 12.025523 26.419922 12.037109 C 25.977368 11.999733 25.570005 12 25.220703 12 L 17.228516 12 z M 17.039062 29.814453 L 15.994141 32.974609 L 8.171875 34.003906 A 1.50015 1.50015 0 0 0 8.2929688 37 L 17.292969 37 A 1.50015 1.50015 0 0 0 18.441406 36.486328 A 1.50015 1.50015 0 0 0 18.701172 36.070312 A 1.50015 1.50015 0 0 0 18.705078 36.0625 L 21.324219 31.871094 C 20.152219 31.393094 18.196063 30.404453 17.039062 29.814453 z"/></svg>