<?xml version="1.0" encoding="utf-8"?>
<!-- Generator: Adobe Illustrator 27.3.1, SVG Export Plug-In . SVG Version: 6.00 Build 0)  -->
<svg version="1.1" id="Glyph" xmlns="http://www.w3.org/2000/svg" xmlns:xlink="http://www.w3.org/1999/xlink" x="0px" y="0px"
	 viewBox="0 0 64 64" enable-background="new 0 0 64 64" xml:space="preserve">
<g>
	<path d="M20.58594,15l3.70703-3.70703C24.48047,11.10547,24.73438,11,25,11h32V8c0-0.55273-0.44727-1-1-1H8
		C7.44727,7,7,7.44727,7,8v7H20.58594z M19,10c0.55231,0,1,0.44769,1,1c0,0.55225-0.44769,1-1,1s-1-0.44775-1-1
		C18,10.44769,18.44769,10,19,10z M15,10c0.55231,0,1,0.44769,1,1c0,0.55225-0.44769,1-1,1s-1-0.44775-1-1
		C14,10.44769,14.44769,10,15,10z M11,10c0.55231,0,1,0.44769,1,1c0,0.55225-0.44769,1-1,1s-1-0.44775-1-1
		C10,10.44769,10.44769,10,11,10z"/>
	<path d="M38,36c-0.55176,0-1,0.44824-1,1v10c0,0.55176,0.44824,1,1,1s1-0.44824,1-1V37C39,36.44824,38.55176,36,38,36z"/>
	<path d="M41,38v8c2.20605,0,4-1.79395,4-4S43.20605,38,41,38z"/>
	<path d="M20,48c0.55176,0,1-0.44824,1-1V37c0-0.55176-0.44824-1-1-1s-1,0.44824-1,1v10C19,47.55176,19.44824,48,20,48z"/>
	<path d="M13,42c0,2.20605,1.79395,4,4,4v-8C14.79395,38,13,39.79395,13,42z"/>
	<path d="M7,17v39c0,0.55273,0.44727,1,1,1h48c0.55273,0,1-0.44727,1-1V17H7z M53,34
		c-0.00004,0.79827-0.95773,1.29905-1.59961,0.7998L47.66699,32h-3.4743C44.72437,33.61371,45,35.2887,45,37v0.54047
		c1.22424,1.09918,2,2.68848,2,4.45953c0,3.30859-2.69141,6-6,6h-0.18427C40.51367,48.84717,39.84717,49.51367,39,49.81573V50
		c0,2.20605-1.79395,4-4,4h-6c-0.55273,0-1-0.44727-1-1s0.44727-1,1-1h6c1.10254,0,2-0.89746,2-2v-0.18433
		C35.8385,49.40155,35,48.30194,35,47V37c0-1.6543,1.3457-3,3-3c1.30194,0,2.40161,0.8385,2.81573,2H41
		c0.68939,0,1.34918,0.12268,1.96625,0.33765c-0.0697-1.48871-0.37347-2.94147-0.90717-4.33765H36c-0.55273,0-1-0.44727-1-1
		v-6.62659C33.11432,23.47693,31.10333,23,29,23c-7.49615,0-13.61719,5.92645-13.96643,13.33771C15.6507,36.12274,16.31055,36,17,36
		h0.18427c0.41412-1.1615,1.51379-2,2.81573-2c1.6543,0,3,1.3457,3,3v10c0,1.6543-1.3457,3-3,3c-1.30194,0-2.40155-0.8385-2.81567-2
		H17c-3.30859,0-6-2.69141-6-6c0-1.77106,0.77576-3.36035,2-4.45953V37c0-8.82227,7.17773-16,16-16
		c2.05353,0,4.09784,0.40704,6,1.17395V21c0-0.55273,0.44727-1,1-1h16c0.55273,0,1,0.44727,1,1C53,21,53,33.97173,53,34z"/>
	<polygon points="23.41406,15 57,15 57,13 25.41406,13 	"/>
	<path d="M37,30h5.73749c0.00208-0.00006,0.00403,0,0.0061,0H48c0.2168,0,0.42676,0.07031,0.59961,0.2002L51,32V22H37V30z M48,24
		c0.55231,0,1,0.44769,1,1c0,0.55225-0.44769,1-1,1s-1-0.44775-1-1C47,24.44769,47.44769,24,48,24z M44,25c0.55231,0,1,0.44769,1,1
		c0,0.55225-0.44769,1-1,1s-1-0.44775-1-1C43,25.44769,43.44769,25,44,25z M40,25c0.55231,0,1,0.44769,1,1c0,0.55225-0.44769,1-1,1
		s-1-0.44775-1-1C39,25.44769,39.44769,25,40,25z"/>
</g>
</svg>
