<?xml version="1.0" encoding="utf-8"?>
<!-- Generator: Adobe Illustrator 27.3.1, SVG Export Plug-In . SVG Version: 6.00 Build 0)  -->
<svg version="1.1" id="Glyph" xmlns="http://www.w3.org/2000/svg" xmlns:xlink="http://www.w3.org/1999/xlink" x="0px" y="0px"
	 viewBox="0 0 64 64" enable-background="new 0 0 64 64" xml:space="preserve">
<g>
	<path d="M43.03809,56.27441C43.16113,56.7041,43.55371,57,44,57h11c0.49805,0,0.91992-0.36621,0.99023-0.8584L56.43903,53H42.10242
		L43.03809,56.27441z"/>
	<path d="M8.00977,56.1416C8.08008,56.63379,8.50195,57,9,57h11c0.44629,0,0.83887-0.2959,0.96191-0.72559L21.89746,53H7.56097
		L8.00977,56.1416z"/>
	<path d="M56.65723,48.24609C47.09473,39.90137,36.22852,39,32,39c-12.69336,0-21.47266,6.4668-24.65723,9.24707
		c-0.25586,0.22266-0.38086,0.55859-0.33301,0.89453L7.27527,51h15.1936l0.38953-1.36328C26.49707,47.34863,30.12891,47,32,47
		c4.21387,0,7.43749,1.56934,9.1416,2.6377L41.53088,51h15.19385l0.2655-1.8584
		C57.03809,48.80566,56.91309,48.46973,56.65723,48.24609z"/>
	<path d="M20.42999,38.76996c1.65845-0.51855,3.43585-0.95142,5.32062-1.26031C21.16327,35.20831,18,30.47229,18,25
		c0-7.71973,6.28027-14,14-14s14,6.28027,14,14c0,5.48737-3.18097,10.23401-7.78888,12.52814
		c1.63495,0.26727,3.44141,0.66046,5.35889,1.24182C47.5,35.46997,50,30.51996,50,25c0-9.92004-8.08002-18-18-18s-18,8.07996-18,18
		C14,30.51996,16.5,35.46997,20.42999,38.76996z"/>
	<path d="M32,13c-6.61719,0-12,5.38281-12,12s5.38281,12,12,12s12-5.38281,12-12S38.61719,13,32,13z M27.38477,27.69238
		c0.55273,0,1,0.44727,1,1s-0.44727,1-1,1h-3.69238c-0.55273,0-1-0.44727-1-1V26.8457c0-1.56934,1.27637-2.8457,2.8457-2.8457
		c0.4668,0,0.84668-0.37891,0.84668-0.8457s-0.37988-0.84668-0.84668-0.84668h-1.8457c-0.55273,0-1-0.44727-1-1s0.44727-1,1-1
		h1.8457c1.56934,0,2.84668,1.27734,2.84668,2.84668S27.10742,26,25.53809,26c-0.4668,0-0.8457,0.37891-0.8457,0.8457v0.84668
		H27.38477z M34.8457,28.69238c0,0.55273-0.44727,1-1,1s-1-0.44727-1-1V26H30.1543c-0.55273,0-1-0.44727-1-1v-3.69238
		c0-0.55273,0.44727-1,1-1s1,0.44727,1,1V24h1.69141v-2.69238c0-0.55273,0.44727-1,1-1s1,0.44727,1,1V28.69238z M40.30762,29.69238
		c-0.55273,0-1-0.44727-1-1V26.8457c0-0.4668-0.37891-0.8457-0.8457-0.8457s-0.84668,0.37891-0.84668,0.8457v1.84668
		c0,0.55273-0.44727,1-1,1c-0.55274,0-1-0.44727-1-1v-7.38477c0-0.55273,0.44726-1,1-1c0.55273,0,1,0.44727,1,1v2.82129
		C37.88281,24.04492,38.16699,24,38.46191,24c1.56934,0,2.8457,1.27637,2.8457,2.8457v1.84668
		C41.30762,29.24512,40.86035,29.69238,40.30762,29.69238z"/>
</g>
</svg>
