<?xml version="1.0" encoding="utf-8"?>
<!-- Generator: Adobe Illustrator 27.3.1, SVG Export Plug-In . SVG Version: 6.00 Build 0)  -->
<svg version="1.1" id="Glyph" xmlns="http://www.w3.org/2000/svg" xmlns:xlink="http://www.w3.org/1999/xlink" x="0px" y="0px"
	 viewBox="0 0 64 64" enable-background="new 0 0 64 64" xml:space="preserve">
<g>
	<path d="M24.20605,29.5c0.2649,0.45815,0.90751,0.63117,1.36621,0.36621l1.3728-0.7926l-0.10718,0.39954
		c-0.14355,0.5332,0.17383,1.08154,0.70704,1.22461c0.52612,0.14187,1.08313-0.18086,1.2246-0.70704l0.62506-2.33148L31,26.7323
		v1.85364l-1.70703,1.70703c-0.39062,0.39062-0.39062,1.02344,0,1.41406s1.02344,0.39062,1.41406,0L31,31.41406V33
		c0,0.55225,0.44727,1,1,1s1-0.44775,1-1v-1.58594c0,0,0.29294,0.29294,0.29297,0.29297c0.37761,0.37761,1.02394,0.39012,1.41406,0
		c0.39062-0.39062,0.39062-1.02344,0-1.41406L33,28.58594V26.7323l1.60541,0.92694c0,0,0.6241,2.32789,0.62506,2.33148
		c0.14056,0.52428,0.7013,0.84815,1.22461,0.70704c0.5332-0.14307,0.85059-0.69141,0.70703-1.22461l-0.10718-0.39954l1.3728,0.7926
		C38.58496,29.95703,38.75684,30,38.92676,30c0.3457,0,0.68164-0.1792,0.86719-0.5c0.27637-0.47803,0.1123-1.08984-0.36621-1.36621
		l-1.37292-0.79272l0.40027-0.10718c0.5332-0.14258,0.84961-0.69092,0.70703-1.22461
		c-0.1416-0.53369-0.68945-0.85059-1.22462-0.70703l-2.33196,0.62463L34.00024,25l1.60529-0.92688
		c0,0,2.33055,0.62425,2.33197,0.62463c0.51033,0.1367,1.08197-0.17214,1.22461-0.70703
		c0.14258-0.53369-0.17383-1.08203-0.70703-1.22461l-0.40027-0.10718l1.37292-0.79272
		c0.47852-0.27637,0.64258-0.88818,0.36621-1.36621c-0.27734-0.47949-0.88965-0.64209-1.36621-0.36621l-1.3728,0.7926
		l0.10718-0.39954c0.14355-0.5332-0.17383-1.08154-0.70703-1.22461c-0.53223-0.1416-1.08105,0.17383-1.22461,0.70703
		l-0.62506,2.33148L33,23.2677v-1.85364l1.70703-1.70703c0.39062-0.39062,0.39062-1.02344,0-1.41406s-1.02344-0.39062-1.41406,0
		L33,18.58594V17c0-0.55225-0.44727-1-1-1s-1,0.44775-1,1v1.58594l-0.29297-0.29297c-0.39062-0.39062-1.02344-0.39062-1.41406,0
		s-0.39062,1.02344,0,1.41406L31,21.41406v1.85364l-1.60541-0.92694l-0.62506-2.33148
		c-0.14355-0.53418-0.69141-0.84912-1.22461-0.70703c-0.5332,0.14307-0.85059,0.69141-0.70703,1.22461l0.10718,0.39954
		l-1.3728-0.7926c-0.47852-0.27588-1.08984-0.11328-1.36621,0.36621c-0.27637,0.47803-0.1123,1.08984,0.36621,1.36621
		l1.37292,0.79272l-0.40027,0.10718c-0.53317,0.14257-0.84957,0.69085-0.70706,1.2245
		c0.1385,0.51863,0.70618,0.84694,1.22463,0.70714l2.33198-0.62463L29.99976,25l-1.60529,0.92688l-2.33198-0.62463
		c-0.5332-0.14307-1.08202,0.17334-1.2246,0.70703s0.17383,1.08203,0.70703,1.22461l0.40027,0.10718l-1.37292,0.79272
		C24.09383,28.41011,23.92975,29.02176,24.20605,29.5z"/>
	<path d="M22,37c0,0.55225,0.44727,1,1,1h18c0.55273,0,1-0.44775,1-1s-0.44727-1-1-1H23C22.44727,36,22,36.44775,22,37z"/>
	<path d="M23,42h3c0.55273,0,1-0.44775,1-1s-0.44727-1-1-1h-3c-0.55273,0-1,0.44775-1,1S22.44727,42,23,42z"/>
	<path d="M41,40H30c-0.55273,0-1,0.44775-1,1s0.44727,1,1,1h11c0.55273,0,1-0.44775,1-1S41.55273,40,41,40z"/>
	<path d="M42,45c0-0.55225-0.44727-1-1-1H23c-0.55273,0-1,0.44775-1,1s0.44727,1,1,1h18C41.55273,46,42,45.55225,42,45z"/>
	<path d="M18,26c-1.10455,0-2,0.89539-2,2v18c0,1.10455,0.89545,2,2,2s2-0.89545,2-2V28C20,26.89539,19.10455,26,18,26z"/>
	<path d="M55,31.72095V30C55,17.31787,44.68213,7,32,7S9,17.31787,9,30v1.72095C7.75659,33.12952,7,34.97693,7,37
		c0,4.07178,3.06006,7.43591,7,7.93054V29.06946c-1.08295,0.13599-2.09528,0.49506-3,1.01971V30
		c0-5.93866,2.48853-11.29797,6.4646-15.12134l2.14819,2.14819c0.36816,0.36768,0.95898,0.39209,1.35645,0.05322
		C24.05078,14.44922,27.96826,13,32,13s7.94922,1.44922,11.03082,4.08014c0.39618,0.3385,0.9884,0.3147,1.35638-0.05328
		l2.14819-2.14819C50.51147,18.70203,53,24.06134,53,30v0.08917c-0.90472-0.52466-1.91705-0.88373-3-1.01971v15.86108
		c3.93994-0.49463,7-3.85876,7-7.93054C57,34.97693,56.24341,33.12952,55,31.72095z"/>
	<path d="M46,26c-1.10455,0-2,0.89539-2,2v18c0,0.7384,0.40472,1.37616,1,1.7226V48c0,2.75684-2.24316,5-5,5h-2.18427
		C37.40161,51.8385,36.30194,51,35,51h-6c-1.6543,0-3,1.3457-3,3s1.3457,3,3,3h6c1.30194,0,2.40161-0.8385,2.81573-2H40
		c3.85986,0,7-3.14014,7-7v-0.2774c0.59528-0.34644,1-0.98419,1-1.7226V28C48,26.89539,47.10455,26,46,26z"/>
</g>
</svg>
