<?xml version="1.0" encoding="utf-8"?>
<!-- Generator: Adobe Illustrator 27.3.1, SVG Export Plug-In . SVG Version: 6.00 Build 0)  -->
<svg version="1.1" id="Glyph" xmlns="http://www.w3.org/2000/svg" xmlns:xlink="http://www.w3.org/1999/xlink" x="0px" y="0px"
	 viewBox="0 0 64 64" enable-background="new 0 0 64 64" xml:space="preserve">
<g>
	<path d="M22,12h5.10059c0.46484,2.2793,2.48438,4,4.89941,4s4.43457-1.7207,4.89941-4H42c0.55273,0,1-0.44727,1-1V8
		c0-0.55273-0.44727-1-1-1H22c-0.55273,0-1,0.44727-1,1v3C21,11.55273,21.44727,12,22,12z M32,11c0.55231,0,1,0.44769,1,1
		c0,0.55225-0.44769,1-1,1s-1-0.44775-1-1C31,11.44769,31.44769,11,32,11z"/>
	<path d="M37,30v4h1c1.10254,0,2-0.89746,2-2s-0.89746-2-2-2H37z"/>
	<path d="M17,51h30V13h-2.78314C43.66681,13.60883,42.88013,14,42,14h-3.67999C37.17999,16.39001,34.73999,18,32,18
		s-5.17999-1.60999-6.32001-4H22c-0.88013,0-1.66681-0.39117-2.21686-1H17V51z M43,48H29c-0.55273,0-1-0.44727-1-1s0.44727-1,1-1h14
		c0.55273,0,1,0.44727,1,1S43.55273,48,43,48z M43,40c0.55273,0,1,0.44727,1,1s-0.44727,1-1,1H29c-0.55273,0-1-0.44727-1-1
		s0.44727-1,1-1H43z M23,29.38202V29c0-4.96289,4.03711-9,9-9s9,4.03711,9,9v0.38202c0.61462,0.70343,1,1.61243,1,2.61798
		c0,2.20605-1.79395,4-4,4h-2c-0.55273,0-1-0.44727-1-1v-6c0-0.55273,0.44727-1,1-1h2c0.32489,0,0.63635,0.04956,0.93896,0.12299
		C38.50525,24.67682,35.56177,22,32,22s-6.50525,2.67682-6.93896,6.12299C25.36365,28.04956,25.67511,28,26,28h2
		c0.55273,0,1,0.44727,1,1v6c0,0.55273-0.44727,1-1,1h-2c-2.20605,0-4-1.79395-4-4C22,30.99445,22.38538,30.08545,23,29.38202z
		 M20.04297,40.29297c0.39062-0.39062,1.02344-0.39062,1.41406,0L22.25,41.08594l2.29297-2.29297
		c0.39062-0.39062,1.02344-0.39062,1.41406,0s0.39062,1.02344,0,1.41406c0,0-2.98828,2.98828-2.99994,2.99994
		c-0.36261,0.36261-1.02039,0.3938-1.41412,0.00006l-1.5-1.5C19.65234,41.31641,19.65234,40.68359,20.04297,40.29297z
		 M20.04297,46.29297c0.39062-0.39062,1.02344-0.39062,1.41406,0L22.25,47.08594l2.29297-2.29297
		c0.39062-0.39062,1.02344-0.39062,1.41406,0s0.39062,1.02344,0,1.41406c0,0-2.97955,2.97955-2.99988,2.99988
		c-0.37341,0.37335-1.04254,0.37177-1.41418,0.00012l-1.5-1.5C19.65234,47.31641,19.65234,46.68359,20.04297,46.29297z"/>
	<path d="M26,34h1v-4h-1c-1.10254,0-2,0.89746-2,2S24.89746,34,26,34z"/>
	<path d="M52,7h-7v4h3c0.55273,0,1,0.44727,1,1v40c0,0.55273-0.44727,1-1,1H16c-0.55273,0-1-0.44727-1-1V12c0-0.55273,0.44727-1,1-1
		h3V7h-7c-0.54999,0-1,0.45001-1,1v48c0,0.54999,0.45001,1,1,1h40c0.54999,0,1-0.45001,1-1V8C53,7.45001,52.54999,7,52,7z"/>
</g>
</svg>
