<?xml version="1.0" encoding="utf-8"?>
<!-- Generator: Adobe Illustrator 27.3.1, SVG Export Plug-In . SVG Version: 6.00 Build 0)  -->
<svg version="1.1" id="Glyph" xmlns="http://www.w3.org/2000/svg" xmlns:xlink="http://www.w3.org/1999/xlink" x="0px" y="0px"
	 viewBox="0 0 64 64" enable-background="new 0 0 64 64" xml:space="preserve">
<g>
	<path d="M24.57001,20.15576l1.44513,1.44482c3.63086-2.09961,8.33887-2.09961,11.96973,0l1.44513-1.44482
		C37.27362,18.7981,34.73102,18,32,18S26.72638,18.7981,24.57001,20.15576z"/>
	<path d="M16,37c0,2.20605,1.79443,4,4,4v-8C17.79443,33,16,34.79395,16,37z"/>
	<path d="M23,43c0.55127,0,1-0.44824,1-1V32c0-0.55176-0.44873-1-1-1s-1,0.44824-1,1v10C22,42.55176,22.44873,43,23,43z"/>
	<path d="M41,31c-0.55127,0-1,0.44824-1,1v10c0,0.55176,0.44873,1,1,1s1-0.44824,1-1V32C42,31.44824,41.55127,31,41,31z"/>
	<path d="M44,33v8c2.20557,0,4-1.79395,4-4S46.20557,33,44,33z"/>
	<path d="M56.0415,28.00098c-1.33838-0.05566-2.05811-0.98242-2.28516-1.83105c-0.22754-0.84766-0.06738-2.01074,1.06396-2.72754
		c0.45264-0.28711,0.59863-0.88086,0.33057-1.34473l-3-5.19531c-0.26904-0.46484-0.854-0.63672-1.32959-0.38574
		c-1.18701,0.62012-2.27344,0.17871-2.89502-0.44336c-0.62061-0.62109-1.06299-1.70801-0.44189-2.89355
		c0.24854-0.47559,0.07812-1.06152-0.38623-1.33008l-5.19629-3c-0.46387-0.26758-1.05615-0.12109-1.34424,0.33008
		c-0.71777,1.13184-1.87891,1.28906-2.72852,1.06445c-0.84814-0.22754-1.77441-0.94727-1.83008-2.28613
		C35.97705,7.42285,35.53613,7,35,7h-6c-0.53613,0-0.97705,0.42285-0.99902,0.95801
		c-0.05566,1.33887-0.98193,2.05859-1.83008,2.28613c-0.84863,0.22461-2.01123,0.06738-2.72852-1.06445
		c-0.28711-0.45117-0.87939-0.59766-1.34424-0.33008l-5.19629,3c-0.46436,0.26855-0.63477,0.85449-0.38623,1.33008
		c0.62109,1.18555,0.17871,2.27246-0.44189,2.89355c-0.62158,0.62207-1.70947,1.06348-2.89502,0.44336
		c-0.47705-0.25098-1.06104-0.0791-1.32959,0.38574l-3,5.19531c-0.26807,0.46387-0.12207,1.05762,0.33057,1.34473
		c1.13135,0.7168,1.2915,1.87988,1.06396,2.72754c-0.22705,0.84863-0.94678,1.77539-2.28516,1.83105
		C7.42285,28.02344,7,28.46387,7,29v6c0,0.53613,0.42285,0.97656,0.9585,0.99902c1.33838,0.05566,2.05811,0.98242,2.28516,1.83105
		c0.22754,0.84766,0.06738,2.01074-1.06396,2.72754c-0.45264,0.28711-0.59863,0.88086-0.33057,1.34473l3,5.19531
		c0.26855,0.46484,0.85254,0.63672,1.32959,0.38574c1.18701-0.62109,2.27344-0.17773,2.89502,0.44336
		c0.62061,0.62109,1.06299,1.70801,0.44189,2.89355c-0.24854,0.47559-0.07813,1.06152,0.38623,1.33008l5.19629,3
		c0.46484,0.26855,1.05713,0.12207,1.34424-0.33008c0.71729-1.13184,1.88037-1.28906,2.72852-1.06445
		c0.84814,0.22754,1.77441,0.94727,1.83008,2.28613C28.02295,56.57715,28.46387,57,29,57h6
		c0.53613,0,0.97705-0.42285,0.99902-0.95801c0.05566-1.33887,0.98193-2.05859,1.83008-2.28613
		c0.84912-0.22461,2.01074-0.06738,2.72852,1.06445c0.28809,0.45215,0.88037,0.59863,1.34424,0.33008l5.19629-3
		c0.46435-0.26855,0.63477-0.85449,0.38623-1.33008c-0.62109-1.18555-0.17871-2.27246,0.44189-2.89355
		c0.62158-0.62109,1.70947-1.06445,2.89502-0.44336c0.47559,0.25098,1.06055,0.0791,1.32959-0.38574l3-5.19531
		c0.26807-0.46387,0.12207-1.05762-0.33057-1.34473c-1.13135-0.7168-1.2915-1.87988-1.06396-2.72754
		c0.22705-0.84863,0.94678-1.77539,2.28516-1.83105C56.57715,35.97656,57,35.53613,57,35v-6
		C57,28.46387,56.57715,28.02344,56.0415,28.00098z M44,43h-0.18427C43.51367,43.84717,42.84717,44.51367,42,44.81573V45
		c0,2.20605-1.79443,4-4,4h-6c-0.55225,0-1-0.44727-1-1s0.44775-1,1-1h6c1.10303,0,2-0.89746,2-2v-0.18433
		C38.8385,44.40155,38,43.30194,38,42V32c0-1.6543,1.3457-3,3-3c1.30194,0,2.40161,0.8385,2.81573,2H44
		c0.68945,0,1.3493,0.12274,1.96643,0.33771c-0.18817-3.99353-2.04547-7.55267-4.90228-9.98779c0,0-2.22638,2.22638-2.22723,2.22723
		c-0.32049,0.32049-0.86253,0.39498-1.26611,0.12207c-3.29785-2.22266-7.84375-2.22266-11.1416,0
		c-0.39746,0.26953-0.92773,0.2168-1.26611-0.12207l-2.22723-2.22723c-2.85681,2.43512-4.71411,5.99426-4.90228,9.98779
		C18.6507,31.12274,19.31055,31,20,31h0.18427c0.41412-1.1615,1.51379-2,2.81573-2c1.6543,0,3,1.3457,3,3v10c0,1.6543-1.3457,3-3,3
		c-1.30194,0-2.40155-0.8385-2.81567-2H20c-3.30859,0-6-2.69141-6-6c0-1.77106,0.77576-3.36035,2-4.45953V32
		c0-8.82227,7.17773-16,16-16s16,7.17773,16,16v0.54047c1.22424,1.09918,2,2.68848,2,4.45953C50,40.30859,47.30859,43,44,43z"/>
</g>
</svg>
