<?xml version="1.0" encoding="utf-8"?>
<!-- Generator: Adobe Illustrator 27.3.1, SVG Export Plug-In . SVG Version: 6.00 Build 0)  -->
<svg version="1.1" id="Glyph" xmlns="http://www.w3.org/2000/svg" xmlns:xlink="http://www.w3.org/1999/xlink" x="0px" y="0px"
	 viewBox="0 0 64 64" enable-background="new 0 0 64 64" xml:space="preserve">
<g>
	<path d="M56.65723,48.24609C47.09473,39.90137,36.22852,39,32,39c-12.69385,0-21.47266,6.4668-24.65771,9.24707
		c-0.25488,0.22266-0.38037,0.55859-0.33203,0.89453L7.27576,51h15.19263l0.38953-1.36328C26.49805,47.34863,30.12939,47,32,47
		c4.21387,0,7.4375,1.56934,9.1416,2.6377L41.53088,51h15.19385l0.2655-1.8584
		C57.03809,48.80566,56.91309,48.46973,56.65723,48.24609z"/>
	<path d="M8.01025,56.1416C8.08057,56.63379,8.50244,57,9,57h11c0.44629,0,0.83887-0.2959,0.96143-0.72559L21.89697,53H7.56146
		L8.01025,56.1416z"/>
	<path d="M43.03809,56.27441C43.16113,56.7041,43.55371,57,44,57h11c0.49805,0,0.91992-0.36621,0.99023-0.8584L56.43903,53H42.10242
		L43.03809,56.27441z"/>
	<path d="M32,37c2.13,0,5.89001,0.21997,10.33002,1.41998C44.60999,35.90997,46,32.57001,46,28.89996
		c0-4.08997-1.82001-8.94995-5.41998-14.42999c-0.17999-0.28998-0.5-0.45001-0.85004-0.45001
		c-0.34998,0.01001-0.65997,0.19-0.83997,0.49005L34.42999,22c-3.22998-3.79999-4.66998-8.88-3.85999-13.84003
		c0.07001-0.44-0.16003-0.88-0.57001-1.07001c-0.40002-0.19-0.88-0.07996-1.17999,0.26001
		C24.78003,12.03998,18,21.07996,18,28.89996c0,3.66003,1.39001,7,3.65997,9.5C24.75,37.54999,28.21002,37,32,37z M30,27
		c-0.55225,0-1-0.44775-1-1s0.44775-1,1-1h4c0.55273,0,1,0.44775,1,1s-0.44727,1-1,1h-1v6h1c0.55273,0,1,0.44727,1,1s-0.44727,1-1,1
		h-4c-0.55225,0-1-0.44727-1-1s0.44775-1,1-1h1v-6H30z"/>
</g>
</svg>
