<?xml version="1.0" encoding="utf-8"?>
<!-- Generator: Adobe Illustrator 27.3.1, SVG Export Plug-In . SVG Version: 6.00 Build 0)  -->
<svg version="1.1" id="Glyph" xmlns="http://www.w3.org/2000/svg" xmlns:xlink="http://www.w3.org/1999/xlink" x="0px" y="0px"
	 viewBox="0 0 64 64" enable-background="new 0 0 64 64" xml:space="preserve">
<g>
	<path d="M43.03809,56.2749C43.16113,56.7041,43.55371,57,44,57h11c0.49805,0,0.91992-0.36572,0.99023-0.8584L56.43903,53H42.10291
		L43.03809,56.2749z"/>
	<path d="M8.00977,56.1416C8.08008,56.63428,8.50195,57,9,57h11c0.44629,0,0.83887-0.2959,0.96191-0.7251L21.89752,53H7.56097
		L8.00977,56.1416z"/>
	<path d="M56.65723,48.24658C47.09473,39.90088,36.22852,39,32,39c-12.69336,0-21.47266,6.46631-24.65723,9.24658
		c-0.25586,0.22266-0.38086,0.55957-0.33301,0.89502L7.27527,51h15.19366l0.38947-1.36328C26.49707,47.34814,30.12891,47,32,47
		c4.21191,0,7.43652,1.56982,9.14258,2.63721L41.53174,51h15.19299l0.2655-1.8584
		C57.03809,48.80615,56.91309,48.46924,56.65723,48.24658z"/>
	<path d="M47,39.98999V8c0-0.54999-0.45001-1-1-1H18c-0.54999,0-1,0.45001-1,1v32c4.12-1.70001,9.16998-3,15-3
		C34.85999,37,40.59003,37.39001,47,39.98999z M30,11h12c0.54999,0,1,0.45001,1,1s-0.45001,1-1,1H30c-0.54999,0-1-0.45001-1-1
		S29.45001,11,30,11z M30,15h6c0.54999,0,1,0.45001,1,1s-0.45001,1-1,1h-6c-0.54999,0-1-0.45001-1-1S29.45001,15,30,15z M30,19h12
		c0.54999,0,1,0.45001,1,1s-0.45001,1-1,1H30c-0.54999,0-1-0.45001-1-1S29.45001,19,30,19z M30,24h12c0.54999,0,1,0.45001,1,1
		s-0.45001,1-1,1H30c-0.54999,0-1-0.45001-1-1S29.45001,24,30,24z M30,28h6c0.54999,0,1,0.45001,1,1s-0.45001,1-1,1h-6
		c-0.54999,0-1-0.45001-1-1S29.45001,28,30,28z M22,13c0.54999,0,1-0.45001,1-1s0.45001-1,1-1s1,0.45001,1,1v8
		c0,0.54999-0.45001,1-1,1s-1-0.45001-1-1v-5.17004C22.69,14.94,22.34998,15,22,15c-0.54999,0-1-0.45001-1-1S21.45001,13,22,13z
		 M26,32c0.54999,0,1,0.45001,1,1s-0.45001,1-1,1h-4c-0.54999,0-1-0.45001-1-1v-2c0-1.65002,1.34998-3,3-3c0.54999,0,1-0.45001,1-1
		s-0.45001-1-1-1h-2c-0.54999,0-1-0.45001-1-1s0.45001-1,1-1h2c1.65002,0,3,1.34998,3,3c0,1.64996-1.34998,3-3,3
		c-0.54999,0-1,0.45001-1,1v1H26z M29,33c0-0.54999,0.45001-1,1-1h12c0.54999,0,1,0.45001,1,1s-0.45001,1-1,1H30
		C29.45001,34,29,33.54999,29,33z"/>
	<path d="M53,37V13c0-0.54999-0.45001-1-1-1h-3v26h3C52.54999,38,53,37.54999,53,37z"/>
	<path d="M12,38h3V12h-3c-0.54999,0-1,0.45001-1,1v24C11,37.54999,11.45001,38,12,38z"/>
</g>
</svg>
