<?xml version="1.0" encoding="utf-8"?>
<!-- Generator: Adobe Illustrator 27.3.1, SVG Export Plug-In . SVG Version: 6.00 Build 0)  -->
<svg version="1.1" id="Glyph" xmlns="http://www.w3.org/2000/svg" xmlns:xlink="http://www.w3.org/1999/xlink" x="0px" y="0px"
	 viewBox="0 0 64 64" enable-background="new 0 0 64 64" xml:space="preserve">
<g>
	<path d="M22,37c0,0.55273,0.44775,1,1,1h18c0.55273,0,1-0.44727,1-1s-0.44727-1-1-1H23C22.44775,36,22,36.44727,22,37z"/>
	<path d="M23,42h3c0.55225,0,1-0.44727,1-1s-0.44775-1-1-1h-3c-0.55225,0-1,0.44727-1,1S22.44775,42,23,42z"/>
	<path d="M41,40H30c-0.55225,0-1,0.44727-1,1s0.44775,1,1,1h11c0.55273,0,1-0.44727,1-1S41.55273,40,41,40z"/>
	<path d="M42,45c0-0.55273-0.44727-1-1-1H23c-0.55225,0-1,0.44727-1,1s0.44775,1,1,1h18C41.55273,46,42,45.55273,42,45z"/>
	<circle cx="32" cy="25" r="2"/>
	<path d="M23.46826,26.46973c-0.40186,0.30469-0.51465,0.86133-0.2627,1.29785l2,3.46484
		c0.25146,0.43652,0.79004,0.61816,1.25488,0.4209c0.53809-0.22461,1.13477-0.18848,1.63916,0.10254
		c0.50488,0.29102,0.83594,0.79004,0.9082,1.36816C29.07031,33.62402,29.49561,34,30,34h4c0.50391,0,0.92969-0.375,0.99219-0.87598
		c0.07227-0.57812,0.40332-1.07715,0.9082-1.36914c0.50391-0.29004,1.10059-0.32715,1.63867-0.10156
		c0.46094,0.19824,1.00195,0.01758,1.25488-0.4209l2-3.46484c0.25195-0.43652,0.13965-0.99316-0.2627-1.29688
		c-0.46484-0.35156-0.73047-0.8877-0.73047-1.4707s0.26562-1.11914,0.73047-1.4707c0.40234-0.30371,0.51465-0.86035,0.2627-1.29688
		l-2-3.46484c-0.25293-0.43848-0.79492-0.61719-1.25488-0.4209c-0.53809,0.22656-1.13477,0.18945-1.63867-0.10156
		c-0.50488-0.29199-0.83594-0.79102-0.9082-1.36914C34.92969,16.375,34.50391,16,34,16h-4
		c-0.50439,0-0.92969,0.37598-0.99219,0.87598c-0.07227,0.57812-0.40332,1.07715-0.9082,1.36816
		c-0.50439,0.29102-1.10107,0.32812-1.63916,0.10254c-0.46533-0.19824-1.00293-0.0166-1.25488,0.4209l-2,3.46484
		c-0.25195,0.43652-0.13916,0.99316,0.2627,1.29785c0.46484,0.35156,0.73096,0.88672,0.73096,1.46973
		S23.93311,26.11816,23.46826,26.46973z M32,21c2.20605,0,4,1.79395,4,4s-1.79395,4-4,4c-2.20557,0-4-1.79395-4-4S29.79443,21,32,21
		z"/>
	<path d="M18,26c-1.10455,0-2,0.89539-2,2v18c0,1.10455,0.89545,2,2,2s2-0.89545,2-2V28C20,26.89539,19.10455,26,18,26z"/>
	<path d="M55,31.72095V30C55,17.31787,44.68213,7,32,7S9,17.31787,9,30v1.72095C7.75659,33.12952,7,34.97693,7,37
		c0,4.07178,3.06006,7.43591,7,7.93054V29.06946c-1.08295,0.13599-2.09528,0.49506-3,1.01971V30
		c0-5.93866,2.48853-11.29797,6.4646-15.12134l2.14819,2.14819c0.36816,0.36768,0.95898,0.39209,1.35645,0.05322
		C24.05078,14.44922,27.96826,13,32,13s7.94922,1.44922,11.03082,4.08014c0.39618,0.3385,0.9884,0.3147,1.35638-0.05328
		l2.14819-2.14819C50.51147,18.70203,53,24.06134,53,30v0.08917c-0.90472-0.52466-1.91705-0.88373-3-1.01971v15.86108
		c3.93994-0.49463,7-3.85876,7-7.93054C57,34.97693,56.24341,33.12952,55,31.72095z"/>
	<path d="M46,26c-1.10455,0-2,0.89539-2,2v18c0,0.7384,0.40472,1.37616,1,1.7226V48c0,2.75684-2.24316,5-5,5h-2.18427
		C37.40161,51.8385,36.30194,51,35,51h-6c-1.6543,0-3,1.3457-3,3s1.3457,3,3,3h6c1.30194,0,2.40161-0.8385,2.81573-2H40
		c3.85986,0,7-3.14014,7-7v-0.2774c0.59528-0.34644,1-0.98419,1-1.7226V28C48,26.89539,47.10455,26,46,26z"/>
</g>
</svg>
