<?xml version="1.0" encoding="utf-8"?>
<!-- Generator: Adobe Illustrator 27.3.1, SVG Export Plug-In . SVG Version: 6.00 Build 0)  -->
<svg version="1.1" id="Glyph" xmlns="http://www.w3.org/2000/svg" xmlns:xlink="http://www.w3.org/1999/xlink" x="0px" y="0px"
	 viewBox="0 0 64 64" enable-background="new 0 0 64 64" xml:space="preserve">
<g>
	<path d="M22,36c0,0.55273,0.44727,1,1,1h18c0.55273,0,1-0.44727,1-1s-0.44727-1-1-1H23C22.44727,35,22,35.44727,22,36z"/>
	<path d="M23,41h3c0.55273,0,1-0.44727,1-1s-0.44727-1-1-1h-3c-0.55273,0-1,0.44727-1,1S22.44727,41,23,41z"/>
	<path d="M41,39H30c-0.55273,0-1,0.44727-1,1s0.44727,1,1,1h11c0.55273,0,1-0.44727,1-1S41.55273,39,41,39z"/>
	<path d="M42,44c0-0.55273-0.44727-1-1-1H23c-0.55273,0-1,0.44727-1,1s0.44727,1,1,1h18C41.55273,45,42,44.55273,42,44z"/>
	<path d="M39.94727,23.02734c-0.1377-0.40625-0.51855-0.67969-0.94727-0.67969h-4.61035l-1.43457-4.64307
		C32.82617,17.28564,32.43848,17,32,17s-0.82617,0.28564-0.95508,0.70459l-1.43457,4.64307H25
		c-0.42871,0-0.80957,0.27344-0.94727,0.67969s-0.00098,0.85449,0.33984,1.11475l3.77246,2.88135l-1.44629,4.68115
		c-0.12891,0.41602,0.02637,0.8667,0.38281,1.11572c0.35547,0.24805,0.83301,0.23828,1.17969-0.02588L32,29.95312l3.71875,2.84131
		C35.89844,32.93115,36.1123,33,36.32617,33c0.2002,0,0.40039-0.05957,0.57227-0.17969
		c0.35645-0.24902,0.51172-0.69971,0.38281-1.11572l-1.44629-4.68115l3.77246-2.88135
		C39.94824,23.88184,40.08496,23.43359,39.94727,23.02734z"/>
	<path d="M18,26c-1.10455,0-2,0.89539-2,2v18c0,1.10455,0.89545,2,2,2s2-0.89545,2-2V28C20,26.89539,19.10455,26,18,26z"/>
	<path d="M55,31.72095V30C55,17.31787,44.68213,7,32,7S9,17.31787,9,30v1.72095C7.75659,33.12952,7,34.97693,7,37
		c0,4.07178,3.06006,7.43591,7,7.93054V29.06946c-1.08295,0.13599-2.09528,0.49506-3,1.01971V30
		c0-5.93866,2.48853-11.29797,6.4646-15.12134l2.14819,2.14819c0.36816,0.36768,0.95898,0.39209,1.35645,0.05322
		C24.05078,14.44922,27.96826,13,32,13s7.94922,1.44922,11.03082,4.08014c0.39618,0.3385,0.9884,0.3147,1.35638-0.05328
		l2.14819-2.14819C50.51147,18.70203,53,24.06134,53,30v0.08917c-0.90472-0.52466-1.91705-0.88373-3-1.01971v15.86108
		c3.93994-0.49463,7-3.85876,7-7.93054C57,34.97693,56.24341,33.12952,55,31.72095z"/>
	<path d="M46,26c-1.10455,0-2,0.89539-2,2v18c0,0.7384,0.40472,1.37616,1,1.7226V48c0,2.75684-2.24316,5-5,5h-2.18427
		C37.40161,51.8385,36.30194,51,35,51h-6c-1.6543,0-3,1.3457-3,3s1.3457,3,3,3h6c1.30194,0,2.40161-0.8385,2.81573-2H40
		c3.85986,0,7-3.14014,7-7v-0.2774c0.59528-0.34644,1-0.98419,1-1.7226V28C48,26.89539,47.10455,26,46,26z"/>
</g>
</svg>
