<svg fill="#000000" xmlns="http://www.w3.org/2000/svg"  viewBox="0 0 48 48" width="24px" height="24px"><path d="M 24.919922 6 C 22.706922 6 20.917969 7.7920469 20.917969 9.9980469 C 20.917969 12.208047 22.706922 14 24.919922 14 C 27.127922 14 28.917969 12.208047 28.917969 9.9980469 C 28.917969 7.7920469 27.127922 6 24.919922 6 z M 34.945312 14.070312 C 34.305996 14.012012 33.649766 14.2625 33.212891 14.796875 L 31.947266 16.345703 C 31.248266 17.200703 31.375469 18.459203 32.230469 19.158203 C 33.085469 19.857203 34.345922 19.731953 35.044922 18.876953 L 36.310547 17.326172 C 37.009547 16.471172 36.882344 15.212672 36.027344 14.513672 C 35.706719 14.251547 35.328902 14.105293 34.945312 14.070312 z M 24.677734 16.398438 C 23.613695 16.397826 22.554255 16.801993 21.732422 17.595703 L 21.722656 17.585938 L 14.716797 24.607422 C 14.703292 24.620585 14.687199 24.629199 14.673828 24.642578 C 14.660075 24.656331 14.652197 24.673608 14.638672 24.6875 L 13.037109 26.291016 L 5.8125 28.482422 C 4.9125 28.755422 4.3189531 29.611781 4.3769531 30.550781 L 5 40.609375 L 5 41.5 A 1.50015 1.50015 0 1 0 8 41.5 L 8 32 L 17 32 L 17.5 32 A 1.50015 1.50015 0 0 0 18.169922 31.851562 C 19.00613 31.754158 19.811312 31.41063 20.482422 30.816406 L 20.505859 30.830078 L 27.541016 23.820312 L 32.798828 26.839844 L 32.779297 26.814453 A 1.50015 1.50015 0 0 0 34.652344 26.460938 L 39.652344 20.460938 A 1.5004328 1.5004328 0 1 0 37.347656 18.539062 L 33.382812 23.296875 L 28.197266 18.273438 C 28.047811 18.052517 27.879161 17.840098 27.683594 17.644531 C 27.452456 17.413394 27.19917 17.221527 26.933594 17.054688 A 1.50015 1.50015 0 0 0 26.382812 16.765625 C 25.839815 16.527387 25.260251 16.398772 24.677734 16.398438 z M 42.6875 20.398438 C 42.048184 20.340137 41.391953 20.588672 40.955078 21.123047 L 39.689453 22.673828 C 38.990453 23.528828 39.117656 24.787328 39.972656 25.486328 C 40.827656 26.185328 42.088109 26.058125 42.787109 25.203125 L 44.052734 23.654297 C 44.751734 22.799297 44.624531 21.540797 43.769531 20.841797 C 43.448906 20.579672 43.07109 20.433418 42.6875 20.398438 z M 28.570312 26.986328 A 1.50015 1.50015 0 0 0 27.404297 27.476562 L 21.306641 34 L 10.5 34 A 1.50015 1.50015 0 1 0 10.5 37 L 21.957031 37 A 1.50015 1.50015 0 0 0 23.052734 36.523438 L 29.595703 29.523438 A 1.50015 1.50015 0 0 0 28.570312 26.986328 z"/></svg>