<svg fill="#000000" xmlns="http://www.w3.org/2000/svg"  viewBox="0 0 48 48" width="24px" height="24px"><path d="M 18.5 5 C 14.91 5 12 7.91 12 11.5 C 12 14.573012 14.134221 17.140517 17 17.818359 L 17 26.5 A 1.50015 1.50015 0 0 0 17.011719 26.697266 A 4 4 0 0 0 21 31 L 33 31 L 38.931641 31 L 40 40.677734 L 40.007812 40.667969 A 1.50015 1.50015 0 0 0 43 40.5 L 43 29.5 A 1.50015 1.50015 0 0 0 42.214844 28.183594 L 42.212891 28.160156 C 37.057875 26.024182 26.611293 23.071386 21.189453 23.005859 A 4 4 0 0 0 21.128906 23.003906 L 20.244141 17.755859 C 22.986072 16.993104 25 14.485113 25 11.5 C 25 7.91 22.09 5 18.5 5 z M 18.5 10 C 19.328 10 20 10.672 20 11.5 C 20 12.328 19.328 13 18.5 13 C 17.672 13 17 12.328 17 11.5 C 17 10.672 17.672 10 18.5 10 z M 10 23 A 4 4 0 0 0 10 31 A 4 4 0 0 0 10 23 z M 7.5 34 A 1.50015 1.50015 0 1 0 7.5 37 L 35.5 37 A 1.50015 1.50015 0 1 0 35.5 34 L 7.5 34 z"/></svg>