<svg fill="#000000" xmlns="http://www.w3.org/2000/svg"  viewBox="0 0 48 48" width="24px" height="24px"><path d="M 19.996094 3 C 17.788094 3 15.998047 4.7920469 15.998047 6.9980469 C 15.998047 9.2080469 17.788094 11 19.996094 11 C 22.209094 11 23.998047 9.2080469 23.998047 6.9980469 C 23.998047 4.7920469 22.209094 3 19.996094 3 z M 20 12.658203 C 18 12.661328 15.999047 13.778 15.998047 16 L 15.998047 25 L 22.712891 25 L 22.916016 23.576172 L 22.861328 23.589844 C 22.646328 23.641844 22.428844 23.667969 22.214844 23.667969 C 21.351844 23.667969 20.530719 23.25725 20.011719 22.53125 L 17.185547 18.580078 C 16.491547 17.610078 18.0875 16.403969 18.8125 17.417969 L 20.09375 19.210938 L 21.214844 21.0625 A 1.50015 1.50015 0 0 0 22.978516 21.707031 L 28.28125 19.917969 C 28.995794 20.583943 29.944965 21 30.998047 21 C 33.205047 21 34.998047 19.208 34.998047 17 C 34.998047 14.792 33.205047 13 30.998047 13 C 28.790047 13 26.998047 14.792 26.998047 17 C 26.998047 17.061458 27.012878 17.118904 27.015625 17.179688 L 23.667969 18.308594 L 23.998047 16 C 23.999047 13.7655 22 12.655078 20 12.658203 z M 30.998047 15.5 C 31.825047 15.5 32.498047 16.172 32.498047 17 C 32.498047 17.828 31.825047 18.5 30.998047 18.5 C 30.170047 18.5 29.498047 17.828 29.498047 17 C 29.498047 16.172 30.170047 15.5 30.998047 15.5 z M 15.998047 27 L 15.998047 28.5 L 15.998047 36.191406 L 13.119141 42.908203 C 12.793141 43.670203 13.146203 44.552906 13.908203 44.878906 C 14.101203 44.960906 14.300047 45 14.498047 45 C 15.080047 45 15.634906 44.659797 15.878906 44.091797 L 18.878906 37.091797 C 18.945906 36.933797 18.979234 36.76475 18.990234 36.59375 L 19 36.621094 L 20 31 L 23 36 L 23.796875 42 L 23.810547 41.871094 L 24.009766 43.666016 C 24.093766 44.433016 24.742094 45 25.496094 45 C 25.551094 45 25.608062 44.996234 25.664062 44.990234 C 26.488062 44.898234 27.082234 44.156984 26.990234 43.333984 L 25.990234 34.333984 C 25.970234 34.157984 25.920797 33.986125 25.841797 33.828125 L 22.427734 27.001953 L 22.427734 27 L 15.998047 27 z"/></svg>