<svg fill="#000000" xmlns="http://www.w3.org/2000/svg"  viewBox="0 0 48 48" width="24px" height="24px"><path d="M 22.490234 8 A 1.50015 1.50015 0 0 0 21.755859 8.1972656 L 14.755859 12.197266 A 1.5002872 1.5002872 0 1 0 16.244141 14.802734 L 22.269531 11.359375 L 25 15 L 17.960938 20.576172 C 16.791881 21.274329 16 22.539039 16 23.998047 C 16 25.0266 16.399974 25.955104 17.037109 26.664062 L 17.027344 26.675781 L 17.132812 26.78125 C 17.161493 26.810844 17.191129 26.838489 17.220703 26.867188 L 21.574219 31.207031 L 14.314453 32.005859 L 14.330078 32.007812 A 1.50015 1.50015 0 0 0 14.5 35 L 26.5 35 A 1.50015 1.50015 0 0 0 27.804688 32.759766 L 23.867188 25.810547 L 29.957031 21.660156 L 33.244141 26.351562 L 33.248047 26.324219 A 1.50015 1.50015 0 0 0 34.5 27 L 41.5 27 A 1.50015 1.50015 0 1 0 41.5 24 L 35.439453 24 L 31.605469 16.080078 A 1.50015 1.50015 0 0 0 31.542969 15.964844 C 31.101866 15.22575 30.495554 14.647528 29.695312 13.867188 C 28.895072 13.086845 27.941015 12.219867 27.019531 11.404297 C 25.176564 9.7731575 23.458984 8.3457031 23.458984 8.3457031 A 1.50015 1.50015 0 0 0 22.490234 8 z M 35.998047 8 C 33.790047 8 32 9.7920469 32 11.998047 C 32 14.208047 33.790047 16 35.998047 16 C 38.211047 16 40 14.208047 40 11.998047 C 40 9.7920469 38.211047 8 35.998047 8 z M 7 17 A 1.0001 1.0001 0 1 0 7 19 L 14 19 A 1.0001 1.0001 0 1 0 14 17 L 7 17 z M 4 22 A 1.0001 1.0001 0 1 0 4 24 L 11 24 A 1.0001 1.0001 0 1 0 11 22 L 4 22 z M 5 27 A 1.0001 1.0001 0 1 0 5 29 L 12 29 A 1.0001 1.0001 0 1 0 12 27 L 5 27 z M 20.404297 37.001953 L 18.423828 40.433594 L 18.300781 40.599609 C 17.803781 41.262609 17.937609 42.204172 18.599609 42.701172 C 18.869609 42.903172 19.184047 43.001953 19.498047 43.001953 C 19.954047 43.001953 20.404219 42.793391 20.699219 42.400391 L 24.75 37.001953 L 20.404297 37.001953 z"/></svg>