<svg fill="#000000" xmlns="http://www.w3.org/2000/svg"  viewBox="0 0 48 48" width="24px" height="24px"><path d="M 31.498047 6 A 4.5 4.5 0 0 0 31.498047 15 A 4.5 4.5 0 0 0 31.498047 6 z M 40.998047 13 A 4 4 0 0 0 37.320312 18.558594 L 34.884766 20.994141 L 30.556641 17.558594 C 30.244829 17.247036 29.683988 16.685941 28.751953 15.753906 C 27.231953 14.232906 24.765141 14.232906 23.244141 15.753906 C 19.800575 19.196569 15.052923 23.944974 13.998047 25 L 5.671875 25 C 4.923875 25 4.2125781 25.358938 3.7675781 25.960938 C 3.3255781 26.561937 3.1901562 27.3465 3.4101562 28.0625 L 7.0644531 39.941406 C 7.8847431 41.40621 10.211896 40.726076 9.9355469 39.091797 L 9.9492188 39.125 L 8.4980469 29.5 L 17.998047 30.113281 C 18.566047 30.113281 19.112672 29.886375 19.513672 29.484375 C 22.066016 26.932031 25.615748 23.382016 28.064453 20.933594 L 33.998047 24.121094 L 34.066406 24.175781 C 34.340406 24.393781 34.670047 24.5 34.998047 24.5 C 35.383047 24.5 35.769547 24.351547 36.060547 24.060547 L 39.441406 20.679688 A 4 4 0 0 0 40.998047 21 A 4 4 0 0 0 40.998047 13 z M 27.841797 23.037109 L 19.878906 31 L 11.498047 31 C 10.669047 31 9.9980469 31.671 9.9980469 32.5 C 9.9980469 33.329 10.669047 34 11.498047 34 L 14.498047 34 L 14.498047 39 L 12.498047 39 C 11.669047 39 10.998047 39.671 10.998047 40.5 C 10.998047 41.329 11.669047 42 12.498047 42 L 19.498047 42 C 20.327047 42 20.998047 41.329 20.998047 40.5 C 20.998047 39.671 20.327047 39 19.498047 39 L 17.498047 39 L 17.498047 34 L 20.498047 34 C 20.896047 34 21.278547 33.841547 21.560547 33.560547 L 30.578125 24.542969 L 27.841797 23.037109 z"/></svg>