<svg fill="#000000" xmlns="http://www.w3.org/2000/svg"  viewBox="0 0 48 48" width="24px" height="24px"><path d="M 12.001953 3.5039062 C 11.71383 3.5244844 11.429672 3.6283125 11.185547 3.8203125 C 10.534547 4.3323125 10.418687 5.2757344 10.929688 5.9277344 L 11.582031 6.7578125 L 7.6503906 9.8164062 L 6.7949219 8.7128906 A 1.50015 1.50015 0 0 0 5.6347656 8.1152344 A 1.50015 1.50015 0 0 0 4.4238281 10.550781 L 5.2832031 11.658203 L 5.078125 11.816406 C 4.424125 12.325406 4.3064531 13.267875 4.8144531 13.921875 C 5.1094531 14.301875 5.552 14.501953 6 14.501953 C 6.322 14.501953 6.6459219 14.398547 6.9199219 14.185547 L 7.1210938 14.029297 L 7.8125 14.919922 A 1.5005926 1.5005926 0 0 0 10.183594 13.080078 L 9.4902344 12.185547 L 10.275391 11.574219 L 14.347656 16.460938 C 14.623656 16.790937 15.027078 16.983094 15.455078 16.996094 L 15.292969 17 L 19.628906 18.484375 C 19.610906 18.583375 19.5755 18.678297 19.5625 18.779297 L 18.009766 30.808594 C 17.903766 31.630594 18.483687 32.382281 19.304688 32.488281 C 19.546688 32.519281 19.781094 32.48325 19.996094 32.40625 L 19.996094 42.5 C 19.996094 43.329 20.668094 44 21.496094 44 C 22.324094 44 22.996094 43.329 22.996094 42.5 L 22.996094 32 L 26.996094 32 L 26.996094 42.5 C 26.996094 43.329 27.668094 44 28.496094 44 C 29.324094 44 29.996094 43.329 29.996094 42.5 L 29.996094 32.408203 C 30.153094 32.464203 30.320141 32.5 30.494141 32.5 C 30.558141 32.5 30.624453 32.496281 30.689453 32.488281 C 31.510453 32.382281 32.090375 31.630594 31.984375 30.808594 L 31.662109 28.308594 L 30.744141 29.226562 C 29.802141 30.169563 28.617203 30.770969 27.408203 30.917969 C 27.218203 30.940969 27.027797 30.953125 26.841797 30.953125 C 25.696797 30.953125 24.644078 30.521031 23.830078 29.707031 C 23.439078 29.316031 23.439078 28.682969 23.830078 28.292969 C 24.221078 27.901969 24.853141 27.901969 25.244141 28.292969 C 25.889141 28.937969 26.647969 28.997594 27.167969 28.933594 C 27.922969 28.841594 28.711078 28.4325 29.330078 27.8125 L 31.339844 25.802734 L 31.337891 25.791016 L 35.521484 21.607422 C 37.830484 19.297422 38.018953 16.501375 36.001953 14.484375 C 34.958953 13.442375 33.607797 12.911844 32.216797 12.964844 C 30.890797 13.023844 29.592453 13.623344 28.564453 14.652344 L 28.173828 15.044922 C 27.270828 14.396922 26.178047 14 24.998047 14 C 24.916047 14 24.838812 14.018484 24.757812 14.021484 C 24.684812 14.010484 24.613109 14 24.537109 14 L 16.199219 14 L 12.642578 9.7324219 L 13.431641 9.1171875 L 14.316406 10.246094 C 14.612406 10.623094 15.052047 10.820313 15.498047 10.820312 C 15.822047 10.820312 16.148828 10.716 16.423828 10.5 C 17.074828 9.989 17.190687 9.0465312 16.679688 8.3945312 L 15.802734 7.2753906 L 15.919922 7.1835938 C 16.573922 6.6745937 16.689641 5.732125 16.181641 5.078125 C 15.673641 4.423125 14.730125 4.3074062 14.078125 4.8164062 L 13.949219 4.9140625 L 13.291016 4.0742188 C 12.971016 3.6667187 12.482158 3.4696094 12.001953 3.5039062 z M 25.0625 4 C 22.8175 4 20.998047 5.791 20.998047 8 C 20.998047 10.209 22.8175 12 25.0625 12 C 27.3185 12 29.953516 9.8942813 31.228516 8.7382812 C 31.668516 8.3392812 31.668516 7.6597187 31.228516 7.2617188 C 29.953516 6.1057188 27.3185 4 25.0625 4 z M 32.273438 15.134766 C 32.893937 15.136891 33.560453 15.370437 34.126953 15.835938 C 35.259953 16.766937 35.563687 18.273266 34.804688 19.197266 C 34.045687 20.121266 32.509953 20.114594 31.376953 19.183594 C 30.243953 18.252594 29.940219 16.748219 30.699219 15.824219 C 31.078719 15.362219 31.652938 15.132641 32.273438 15.134766 z"/></svg>