<svg fill="#000000" xmlns="http://www.w3.org/2000/svg"  viewBox="0 0 48 48" width="24px" height="24px"><path d="M 23.996094 3 C 20.147866 3 16.996094 6.1517752 16.996094 10 C 16.996094 13.848225 20.147866 17 23.996094 17 C 27.844322 17 30.996094 13.848225 30.996094 10 C 30.996094 6.1517752 27.844322 3 23.996094 3 z M 23.996094 6 C 26.223002 6 27.996094 7.7730927 27.996094 10 C 27.996094 12.226907 26.223002 14 23.996094 14 C 21.769185 14 19.996094 12.226907 19.996094 10 C 19.996094 7.7730927 21.769185 6 23.996094 6 z M 18.048828 19 C 16.341794 19 14.714312 19.736588 13.587891 21.019531 C 13.504291 21.114747 13.430383 21.216696 13.353516 21.316406 A 1.50015 1.50015 0 0 0 13.316406 21.361328 L 5.3164062 31.574219 A 1.50015 1.50015 0 0 0 5.4355469 33.560547 L 13.435547 41.560547 A 1.5005306 1.5005306 0 0 0 14.287109 41.982422 C 14.311837 42.17195 14.509766 43.693359 14.509766 43.693359 A 1.50015 1.50015 0 0 0 15.996094 45 L 31.996094 45 A 1.50015 1.50015 0 0 0 33.484375 43.693359 C 33.484375 43.693359 33.682357 42.173493 33.707031 41.984375 A 1.5005306 1.5005306 0 0 0 34.558594 41.560547 L 42.558594 33.560547 A 1.50015 1.50015 0 0 0 42.677734 31.574219 L 34.677734 21.361328 A 1.50015 1.50015 0 0 0 34.642578 21.318359 C 34.565203 21.217894 34.490456 21.115438 34.40625 21.019531 C 33.280217 19.737031 31.6543 19 29.947266 19 L 18.048828 19 z M 18.048828 22 L 18.527344 22 C 18.679026 25.825951 19.744378 29.74682 22.859375 32.023438 C 22.314323 32.967072 21.631897 34.152537 21.160156 34.96875 C 21.028156 35.19775 20.9935 35.469609 21.0625 35.724609 C 21.1305 35.980609 21.296391 36.198078 21.525391 36.330078 C 22.056391 36.636078 22.733672 37.026031 23.263672 37.332031 C 23.492672 37.464031 23.764531 37.500641 24.019531 37.431641 C 24.275531 37.363641 24.493953 37.19775 24.626953 36.96875 C 25.181953 36.00675 26.072906 34.460047 26.628906 33.498047 C 26.760906 33.269047 26.797516 32.997187 26.728516 32.742188 C 26.660516 32.487187 26.492672 32.268719 26.263672 32.136719 C 26.041995 32.008732 25.78878 31.862085 25.537109 31.716797 C 28.344975 29.40459 29.319837 25.657563 29.464844 22 L 29.947266 22 C 30.792231 22 31.594377 22.362547 32.152344 22.998047 C 32.710176 23.633393 32.966695 24.476689 32.857422 25.314453 C 32.038526 31.589257 30.866872 40.564681 30.679688 42 L 17.314453 42 C 17.127268 40.564681 15.955615 31.589257 15.136719 25.314453 C 15.027445 24.476689 15.283964 23.633393 15.841797 22.998047 C 16.399376 22.36299 17.203863 22 18.048828 22 z M 21.527344 22 L 26.464844 22 C 26.316631 24.830992 25.532068 27.341046 23.996094 28.927734 C 22.460461 27.340983 21.675617 24.830797 21.527344 22 z M 35.296875 29.800781 L 37.996094 32.5 L 34.386719 37.488281 L 34.279297 37.595703 C 34.607576 35.07963 34.845513 33.25984 35.296875 29.800781 z M 12.699219 29.824219 C 13.149359 33.27392 13.387546 35.087149 13.714844 37.595703 L 13.470703 37.351562 L 9.9960938 32.5 L 12.699219 29.824219 z"/></svg>