<svg fill="#000000" xmlns="http://www.w3.org/2000/svg"  viewBox="0 0 48 48" width="24px" height="24px"><path d="M 8.9980469 9 A 4 4 0 0 0 8.9980469 17 A 4 4 0 0 0 8.9980469 9 z M 26.957031 11.488281 A 1.50015 1.50015 0 0 0 26.039062 11.847656 L 20.324219 16.609375 L 12.339844 18.296875 C 12.320823 18.300498 12.302189 18.304661 12.283203 18.308594 L 12.189453 18.328125 A 1.50015 1.50015 0 0 0 11.863281 18.435547 C 11.557026 18.538741 11.257167 18.66733 10.976562 18.857422 C 10.967562 18.863422 10.956266 18.870953 10.947266 18.876953 C 9.2762656 20.008953 8.8406562 22.280172 9.9726562 23.951172 C 12.197656 27.234172 15.739297 32.459844 18.029297 35.839844 C 18.618297 36.709844 19.5305 37.309813 20.5625 37.507812 C 21.5945 37.705813 22.66125 37.485484 23.53125 36.896484 C 23.53925 36.890484 23.547641 36.886859 23.556641 36.880859 C 23.952559 36.612607 24.268382 36.270916 24.507812 35.890625 L 30.857422 27.669922 L 38.960938 23.648438 L 39.589844 23.378906 A 1.50015 1.50015 0 0 0 38.945312 20.494141 A 1.50015 1.50015 0 0 0 38.408203 20.621094 L 29.408203 24.472656 A 1.50015 1.50015 0 0 0 29.083984 24.662109 L 22.666016 29.59375 C 20.622168 26.578165 18.317746 23.178408 16.492188 20.484375 L 21.308594 19.466797 A 1.50015 1.50015 0 0 0 21.958984 19.152344 L 27.958984 14.152344 A 1.50015 1.50015 0 0 0 26.957031 11.488281 z M 3.4980469 38 A 1.50015 1.50015 0 1 0 3.4980469 41 L 44.498047 41 A 1.50015 1.50015 0 1 0 44.498047 38 L 3.4980469 38 z"/></svg>