<svg fill="#000000" xmlns="http://www.w3.org/2000/svg"  viewBox="0 0 48 48" width="24px" height="24px"><path d="M 24 1 A 4 4 0 0 0 24 9 A 4 4 0 0 0 24 1 z M 9.5 11 A 1.50015 1.50015 0 1 0 9.5 14 L 12.056641 14 L 13.015625 20.712891 A 1.50015 1.50015 0 0 0 15.105469 21.869141 L 15.183594 21.833984 A 1.50015 1.50015 0 0 0 15.191406 21.830078 L 19.408203 19.910156 L 19.808594 26.730469 L 19.095703 33.144531 L 18.541016 36.673828 A 1.50015 1.50015 0 0 0 18.582031 37.322266 L 21.058594 45.916016 A 1.5002402 1.5002402 0 0 0 23.988281 45.302734 L 24.005859 45.345703 L 23.394531 41.990234 L 29.371094 37.720703 A 1.50015 1.50015 0 0 0 29.988281 36.3125 L 29.986328 36.306641 A 1.50015 1.50015 0 0 0 29.941406 36.085938 L 28.154297 27.382812 L 28.566406 20.353516 L 31.833984 21.841797 A 1.50015 1.50015 0 0 0 33.941406 20.912109 L 35.916016 14 L 39.5 14 A 1.50015 1.50015 0 1 0 39.5 11 L 9.5 11 z M 15.085938 14 L 19.841797 14 C 19.80817 14.039712 19.777499 14.081502 19.746094 14.123047 A 1.50015 1.50015 0 0 0 19.365234 14.361328 L 15.597656 17.585938 L 15.085938 14 z M 28.158203 14 L 32.796875 14 L 31.759766 17.630859 L 28.583984 14.441406 A 1.50015 1.50015 0 0 0 28.353516 14.251953 C 28.353516 14.251953 28.351562 14.251953 28.351562 14.251953 C 28.292464 14.163641 28.226716 14.080911 28.158203 14 z M 23.958984 30.802734 L 26.228516 35.869141 L 22.796875 38.703125 L 22.398438 36.511719 L 23.958984 30.802734 z"/></svg>