<svg fill="#000000" xmlns="http://www.w3.org/2000/svg"  viewBox="0 0 48 48" width="24px" height="24px"><path d="M 23.998047 3 A 4 4 0 0 0 23.998047 11 A 4 4 0 0 0 23.998047 3 z M 23.998047 11 L 11.933594 11 L 11.818359 10.789062 C 11.425359 10.059062 10.516109 9.7866875 9.7871094 10.179688 C 9.4471094 10.363687 9.2117969 10.662 9.0917969 11 L 4.4980469 11 C 3.6690469 11 2.9980469 11.671 2.9980469 12.5 C 2.9980469 13.329 3.6690469 14 4.4980469 14 L 8.9980469 14 L 10.142578 14 L 37.857422 14 L 39 14 L 43.5 14 C 44.329 14 45 13.329 45 12.5 C 45 11.671 44.327047 11 43.498047 11 L 38.908203 11 C 38.788203 10.662 38.552938 10.363687 38.210938 10.179688 C 37.481938 9.7866875 36.570734 10.060063 36.177734 10.789062 L 36.064453 11 L 23.998047 11 z M 11.21875 16 L 12.677734 18.710938 C 12.948734 19.213938 13.466 19.501953 14 19.501953 C 14.24 19.501953 14.482984 19.442312 14.708984 19.320312 L 18.998047 17.011719 L 18.998047 27.251953 L 18.011719 34.806641 C 17.974719 35.090641 18.018625 35.379672 18.140625 35.638672 L 22.140625 44.138672 C 22.396625 44.681672 22.937 45 23.5 45 C 23.714 45 23.931672 44.954422 24.138672 44.857422 C 24.888672 44.504422 25.209422 43.610328 24.857422 42.861328 L 24.179688 41.419922 L 21.5 34.5 L 24 28 L 26.5 33.5 L 25.492188 38.675781 L 25.066406 40.058594 C 24.822406 40.850594 25.266594 41.689594 26.058594 41.933594 C 26.204594 41.978594 26.354 42 26.5 42 C 27.141 42 27.735594 41.584453 27.933594 40.939453 L 29.933594 34.439453 C 30.002594 34.215453 30.017516 33.977094 29.978516 33.746094 L 28.996094 27.998047 C 28.996094 27.998047 28.998047 28 28.998047 28 L 28.998047 17.011719 L 33.287109 19.320312 C 33.513109 19.442312 33.757094 19.501953 33.996094 19.501953 C 34.530094 19.501953 35.047359 19.214937 35.318359 18.710938 L 36.779297 16 L 11.21875 16 z"/></svg>