<svg fill="#000000" xmlns="http://www.w3.org/2000/svg"  viewBox="0 0 48 48" width="24px" height="24px"><path d="M 42.474609 3.9785156 A 1.50015 1.50015 0 0 0 40.998047 5.5 L 40.998047 43.5 A 1.50015 1.50015 0 1 0 43.998047 43.5 L 43.998047 5.5 A 1.50015 1.50015 0 0 0 42.474609 3.9785156 z M 27.998047 5 C 25.790047 5 23.998047 6.7816094 23.998047 8.9746094 C 23.998047 11.167609 25.790047 12.947266 27.998047 12.947266 C 30.206047 12.947266 31.998047 11.167609 31.998047 8.9746094 C 31.998047 6.7816094 30.206047 5 27.998047 5 z M 20.501953 13.179688 C 20.100605 13.178342 19.699675 13.248814 19.318359 13.388672 A 1.50015 1.50015 0 0 0 19.316406 13.388672 C 17.399059 14.095431 11.980469 16.091797 11.980469 16.091797 A 1.50015 1.50015 0 0 0 11.210938 16.728516 L 8.2109375 21.728516 A 1.5006125 1.5006125 0 1 0 10.785156 23.271484 L 13.513672 18.724609 C 13.907839 18.579423 15.936798 17.830929 17.677734 17.189453 C 15.841292 19.930716 14.194028 22.652862 12.775391 25.273438 A 1.50015 1.50015 0 0 0 12.773438 25.275391 A 1.50015 1.50015 0 0 0 12.515625 25.927734 L 10.970703 35.792969 L 5.4257812 41.449219 A 1.5006002 1.5006002 0 1 0 7.5683594 43.550781 L 7.9667969 43.144531 C 8.773377 42.430168 12.732512 38.924936 14.001953 37.800781 C 14.224953 37.602781 14.402344 37.360844 14.527344 37.089844 C 15.082224 35.882087 16.240008 33.36449 17.373047 30.898438 L 23.722656 34 L 24.998047 42.744141 L 25.015625 42.744141 A 1.50015 1.50015 0 0 0 27.998047 42.5 L 27.998047 32.5 A 1.50015 1.50015 0 0 0 27.425781 31.320312 L 21.808594 26.900391 C 23.399009 24.639715 25.039445 22.218184 27.359375 18.8125 L 31.876953 20.865234 A 1.50015 1.50015 0 0 0 32.972656 20.923828 L 38.972656 18.923828 A 1.5008464 1.5008464 0 1 0 38.023438 16.076172 L 32.582031 17.890625 L 27.619141 15.634766 A 1.50015 1.50015 0 0 0 27.525391 15.595703 C 27.525391 15.595703 23.343791 14.021563 21.689453 13.398438 L 21.6875 13.398438 C 21.305065 13.254164 20.903301 13.181033 20.501953 13.179688 z"/></svg>