<svg fill="#000000" xmlns="http://www.w3.org/2000/svg"  viewBox="0 0 48 48" width="24px" height="24px"><path d="M 11.994141 7 C 9.7861406 7.004 7.9969531 8.7960469 8.0019531 10.998047 C 8.0059531 13.200047 9.8027656 14.984469 12.009766 14.980469 C 14.217766 14.975469 16.005953 13.184422 16.001953 10.982422 C 15.996953 8.7804219 14.201141 6.996 11.994141 7 z M 9.578125 16.007812 C 8.8061465 15.951229 8.0082344 16.11725 7.2871094 16.53125 C 6.6547873 16.894268 6.1741482 17.411454 5.8320312 18 L 5.8027344 17.984375 L 0.44140625 28.457031 L 0.48046875 28.478516 C 0.025394165 29.583752 0.052835142 30.874708 0.69335938 31.990234 C 1.5109555 33.416188 3.0763442 34.143972 4.6132812 33.970703 L 4.609375 34 L 13.998047 32.5 L 22.279297 37.595703 L 22.335938 37.642578 A 1.5009405 1.5009405 0 0 0 24.25 35.330078 L 15.955078 28.466797 A 1.50015 1.50015 0 0 0 14.986328 28.123047 A 1.50015 1.50015 0 0 0 14.878906 28.126953 L 9.3945312 28.566406 L 12.894531 21.787109 C 12.895708 21.784708 12.895313 21.7817 12.896484 21.779297 L 12.925781 21.724609 L 12.919922 21.720703 C 13.164571 21.198116 13.283465 20.627796 13.289062 20.048828 L 24.111328 22.949219 A 1.5001812 1.5001812 0 1 0 24.886719 20.050781 L 10.630859 16.230469 A 1.50015 1.50015 0 0 0 10.507812 16.203125 C 10.205006 16.106396 9.8961739 16.031125 9.578125 16.007812 z M 42.498047 18.019531 C 40.793047 18.019531 39.324674 18.712133 38.384766 19.769531 C 38.323573 19.838373 38.306944 19.928752 38.25 20 L 29.498047 20 A 1.50015 1.50015 0 1 0 29.498047 23 L 37.095703 23 C 37.080993 23.171915 37.009766 23.33786 37.009766 23.509766 C 37.009766 24.840599 37.444857 26.192602 38.384766 27.25 C 38.687156 27.59019 39.049101 27.886869 39.451172 28.140625 L 33.603516 39 L 7.9980469 39 L 7.9980469 36.962891 C 7.9980469 36.442891 7.7918281 35.942219 7.4238281 35.574219 C 7.0558281 35.206219 6.5561562 35 6.0351562 35 L 2.9628906 35 C 2.4428906 35 1.9422188 35.206219 1.5742188 35.574219 C 1.2062188 35.942219 0.99804688 36.442891 0.99804688 36.962891 L 0.99804688 40.253906 A 1.50015 1.50015 0 0 0 2.4980469 42 L 34.498047 42 A 1.50015 1.50015 0 0 0 35.820312 41.210938 L 42.398438 28.994141 C 42.432124 28.994685 42.464171 29 42.498047 29 C 44.203046 29 45.673372 28.307398 46.613281 27.25 C 47.55319 26.192602 47.988281 24.840599 47.988281 23.509766 C 47.988281 22.178932 47.55319 20.826929 46.613281 19.769531 C 45.673372 18.712133 44.203046 18.019531 42.498047 18.019531 z M 42.498047 21.019531 C 43.453046 21.019531 43.981003 21.32482 44.371094 21.763672 C 44.761184 22.202524 44.988281 22.845599 44.988281 23.509766 C 44.988281 24.173932 44.761184 24.817007 44.371094 25.255859 C 43.981003 25.694711 43.453046 26 42.498047 26 C 41.543048 26 41.017044 25.694712 40.626953 25.255859 C 40.236862 24.817007 40.009766 24.173932 40.009766 23.509766 C 40.009766 22.845599 40.236863 22.202524 40.626953 21.763672 C 41.017044 21.32482 41.543048 21.019531 42.498047 21.019531 z"/></svg>