<svg fill="#000000" xmlns="http://www.w3.org/2000/svg"  viewBox="0 0 48 48" width="24px" height="24px"><path d="M 19.498047 6 C 17.566047 6 16 7.5680469 16 9.4980469 C 16 11.432047 17.566047 13 19.498047 13 C 21.435047 13 23 11.432047 23 9.4980469 C 23 7.5680469 21.435047 6 19.498047 6 z M 16.748047 14 C 16.619054 14 16.496746 14.024405 16.371094 14.037109 C 16.239288 14.041935 16.114926 14.060212 15.990234 14.076172 C 15.923987 14.084651 15.852875 14.086236 15.789062 14.097656 L 15.871094 14.085938 L 8.3183594 15.011719 A 1.50015 1.50015 0 0 0 7.3007812 15.599609 L 4.3007812 19.599609 A 1.50015 1.50015 0 1 0 6.6992188 21.400391 L 9.3066406 17.923828 L 13 18 L 11.476562 22.626953 C 11.248431 23.111774 11.109375 23.647833 11.109375 24.21875 C 11.109375 24.235511 11.115016 24.250869 11.115234 24.267578 L 10.574219 30.681641 L 5.8769531 33.134766 A 1.50015 1.50015 0 0 0 5.6738281 33.240234 A 1.50015 1.50015 0 0 0 5.6660156 33.246094 L 5.6054688 33.277344 L 5.6152344 33.279297 A 1.50015 1.50015 0 0 0 7.0566406 35.892578 L 13.078125 33.482422 A 1.50015 1.50015 0 0 0 14.039062 32.035156 L 15.019531 28.052734 L 20.414062 29.169922 L 22 35 L 22.064453 34.935547 A 1.5008187 1.5008187 0 0 0 23.554688 36 A 1.5008187 1.5008187 0 0 0 24.96875 34.191406 L 23.447266 26.960938 A 1.50015 1.50015 0 0 0 22.462891 25.849609 L 22.189453 25.755859 L 18.457031 24.273438 L 19.339844 20.935547 L 21.662109 22.833984 L 21.669922 22.84375 A 1.50015 1.50015 0 0 0 22.677734 23.417969 L 27.316406 23.988281 A 1.50015 1.50015 0 1 0 27.683594 21.011719 L 23.666016 20.517578 L 20.146484 15.9375 L 20.240234 16.072266 C 19.930594 15.562095 19.543859 15.174058 19.125 14.869141 C 18.475515 14.334993 17.656018 14 16.748047 14 z M 23.554688 36 L 22.5 36 A 1.50015 1.50015 0 0 0 21 37.5 L 21 41 L 16.5 41 A 1.50015 1.50015 0 1 0 16.5 44 L 22.5 44 A 1.50015 1.50015 0 0 0 24 42.5 L 24 39 L 28.5 39 A 1.50015 1.50015 0 0 0 30 37.5 L 30 34 L 34.5 34 A 1.50015 1.50015 0 0 0 36 32.5 L 36 29 L 40.5 29 A 1.50015 1.50015 0 1 0 40.5 26 L 34.5 26 A 1.50015 1.50015 0 0 0 33 27.5 L 33 31 L 28.5 31 A 1.50015 1.50015 0 0 0 27 32.5 L 27 36 L 23.554688 36 z"/></svg>