<?xml version="1.0" encoding="utf-8"?>
<!-- Generator: Adobe Illustrator 27.3.1, SVG Export Plug-In . SVG Version: 6.00 Build 0)  -->
<svg version="1.1" id="Outline" xmlns="http://www.w3.org/2000/svg" xmlns:xlink="http://www.w3.org/1999/xlink" x="0px" y="0px"
	 viewBox="0 0 64 64" enable-background="new 0 0 64 64" xml:space="preserve">
<g>
	<path d="M56,7h-7c-0.55273,0-1,0.44727-1,1s0.44727,1,1,1h6v2H25c-0.26562,0-0.51953,0.10547-0.70703,0.29297L20.58594,15H9V9h32
		c0.55273,0,1-0.44727,1-1s-0.44727-1-1-1H8C7.44727,7,7,7.44727,7,8v48c0,0.55273,0.44727,1,1,1h48c0.55273,0,1-0.44727,1-1V8
		C57,7.44727,56.55273,7,56,7z M25.41406,13H55v2H23.41406L25.41406,13z M9,55V17h46v38H9z"/>
	<path d="M52,19H36c-0.55273,0-1,0.44727-1,1v1.17395C33.09784,20.40704,31.05353,20,29,20c-8.82227,0-16,7.17773-16,16v0.54047
		C11.77576,37.63965,11,39.22894,11,41c0,3.30859,2.69141,6,6,6h0.18433c0.41412,1.1615,1.51373,2,2.81567,2c1.6543,0,3-1.3457,3-3
		V36c0-1.6543-1.3457-3-3-3c-1.30194,0-2.40161,0.8385-2.81573,2H17c-0.68945,0-1.3493,0.12274-1.96643,0.33771
		C15.38281,27.92645,21.50385,22,29,22c2.10333,0,4.11432,0.47693,6,1.37341V30c0,0.55273,0.44727,1,1,1h6.05908
		c0.53369,1.39618,0.83746,2.84894,0.90717,4.33765C42.34918,35.12268,41.68939,35,41,35h-0.18427
		C40.40161,33.8385,39.30194,33,38,33c-1.6543,0-3,1.3457-3,3v10c0,1.30194,0.8385,2.40155,2,2.81567V49c0,1.10254-0.89746,2-2,2h-6
		c-0.55273,0-1,0.44727-1,1s0.44727,1,1,1h6c2.20605,0,4-1.79395,4-4v-0.18427c0.84717-0.30206,1.51367-0.96857,1.81573-1.81573H41
		c3.30859,0,6-2.69141,6-6c0-1.77106-0.77576-3.36035-2-4.45953V36c0-1.7113-0.27563-3.38629-0.80731-5h3.4743
		c0,0,3.7334,2.7998,3.73367,2.80001C52.0538,34.29314,53,33.81385,53,33c0-0.00005,0-13,0-13C53,19.44727,52.55273,19,52,19z
		 M20,35c0.55176,0,1,0.44824,1,1v10c0,0.55176-0.44824,1-1,1s-1-0.44824-1-1V36C19,35.44824,19.44824,35,20,35z M17,45
		c-2.20605,0-4-1.79395-4-4s1.79395-4,4-4V45z M38,47c-0.55176,0-1-0.44824-1-1V36c0-0.55176,0.44824-1,1-1s1,0.44824,1,1v10
		C39,46.55176,38.55176,47,38,47z M41,45v-8c2.20605,0,4,1.79395,4,4S43.20605,45,41,45z M51,31l-2.40039-1.7998
		C48.42676,29.07031,48.2168,29,48,29h-5.25348c-0.00397,0.00006-0.00769-0.00006-0.0116,0H37v-8h14V31z"/>
	<circle cx="44" cy="25" r="1"/>
	<circle cx="48" cy="25" r="1"/>
	<circle cx="40" cy="25" r="1"/>
	<circle cx="16" cy="12" r="1"/>
	<circle cx="20" cy="12" r="1"/>
	<circle cx="12" cy="12" r="1"/>
	<circle cx="45" cy="8" r="1"/>
</g>
</svg>
