<?xml version="1.0" encoding="utf-8"?>
<!-- Generator: Adobe Illustrator 27.3.1, SVG Export Plug-In . SVG Version: 6.00 Build 0)  -->
<svg version="1.1" id="Outline" xmlns="http://www.w3.org/2000/svg" xmlns:xlink="http://www.w3.org/1999/xlink" x="0px" y="0px"
	 viewBox="0 0 64 64" enable-background="new 0 0 64 64" xml:space="preserve">
<g>
	<path d="M56.65723,48.24609c-5.07953-4.43262-10.51831-6.75336-15.14325-7.96606C46.74268,37.03589,50,31.29852,50,25
		c0-9.9248-8.0752-18-18-18s-18,8.0752-18,18c0,6.2829,3.24817,12.01581,8.4624,15.26648
		c-7.54932,2.02203-12.81091,5.96497-15.11963,7.98059c-0.25586,0.22266-0.38086,0.55859-0.33301,0.89453l1,7
		C8.08008,56.63379,8.50195,57,9,57h11c0.44629,0,0.83887-0.2959,0.96191-0.72559l1.89648-6.6377
		C26.49707,47.34863,30.12891,47,32,47c4.21387,0,7.43749,1.56934,9.1416,2.6377l1.89648,6.63672
		C43.16113,56.7041,43.55371,57,44,57h11c0.49805,0,0.91992-0.36621,0.99023-0.8584l1-7
		C57.03809,48.80566,56.91309,48.46973,56.65723,48.24609z M16,25c0-8.82227,7.17773-16,16-16s16,7.17773,16,16
		c0,6.34869-3.72333,12.05212-9.50171,14.61151C35.75574,39.11816,33.47076,39,32,39c-2.31946,0-4.5047,0.21991-6.55249,0.58978
		C19.70172,37.0144,16,31.32245,16,25z M9.86719,55l-0.28577-2h10.2359l-0.57123,2H9.86719z M32,45
		c-2.14746,0-6.37402,0.41113-10.55078,3.16504c-0.19922,0.13184-0.34473,0.33008-0.41113,0.56055L20.38849,51H9.29565
		l-0.22827-1.59766C12.38086,46.61523,20.49121,41,32,41c3.94238,0,13.98145,0.82812,22.93262,8.40137L54.70422,51H43.61151
		l-0.6496-2.27441c-0.06641-0.23047-0.21191-0.42871-0.41113-0.56055C40.75879,46.9834,37.00488,45,32,45z M44.75391,55l-0.57123-2
		h10.23584l-0.28571,2H44.75391z"/>
	<path d="M25.53809,26c1.56934,0,2.84668-1.27637,2.84668-2.8457s-1.27734-2.84668-2.84668-2.84668h-1.8457
		c-0.55273,0-1,0.44727-1,1s0.44727,1,1,1h1.8457c0.4668,0,0.84668,0.37988,0.84668,0.84668S26.00488,24,25.53809,24
		c-1.56934,0-2.8457,1.27637-2.8457,2.8457v1.84668c0,0.55273,0.44727,1,1,1h3.69238c0.55273,0,1-0.44727,1-1s-0.44727-1-1-1
		h-2.69238V26.8457C24.69238,26.37891,25.07129,26,25.53809,26z"/>
	<path d="M30.1543,26h2.69141v2.69238c0,0.55273,0.44727,1,1,1s1-0.44727,1-1v-7.38477c0-0.55273-0.44727-1-1-1s-1,0.44727-1,1V24
		H31.1543v-2.69238c0-0.55273-0.44727-1-1-1s-1,0.44727-1,1V25C29.1543,25.55273,29.60156,26,30.1543,26z"/>
	<path d="M36.61523,20.30762c-0.55274,0-1,0.44727-1,1v7.38477c0,0.55273,0.44726,1,1,1c0.55273,0,1-0.44727,1-1V26.8457
		c0-0.4668,0.37988-0.8457,0.84668-0.8457s0.8457,0.37891,0.8457,0.8457v1.84668c0,0.55273,0.44727,1,1,1s1-0.44727,1-1V26.8457
		c0-1.56934-1.27637-2.8457-2.8457-2.8457c-0.29492,0-0.5791,0.04492-0.84668,0.12891v-2.82129
		C37.61523,20.75488,37.16797,20.30762,36.61523,20.30762z"/>
	<path d="M45,25c0-5.53711-3.50977-10.4707-8.7334-12.27539c-0.51953-0.17871-1.08984,0.09668-1.27148,0.61914
		c-0.18066,0.52148,0.09668,1.09082,0.61914,1.27148C40.03223,16.1416,43,20.31445,43,25c0,6.06543-4.93457,11-11,11
		s-11-4.93457-11-11c0-4.68555,2.96777-8.8584,7.38574-10.38477c0.52246-0.18066,0.7998-0.75,0.61914-1.27148
		c-0.18164-0.52246-0.75391-0.79883-1.27148-0.61914C22.50977,14.5293,19,19.46289,19,25c0,7.16797,5.83203,13,13,13
		S45,32.16797,45,25z"/>
	<circle cx="32" cy="13" r="1"/>
</g>
</svg>
