<?xml version="1.0" encoding="utf-8"?>
<!-- Generator: Adobe Illustrator 27.3.1, SVG Export Plug-In . SVG Version: 6.00 Build 0)  -->
<svg version="1.1" id="Outline" xmlns="http://www.w3.org/2000/svg" xmlns:xlink="http://www.w3.org/1999/xlink" x="0px" y="0px"
	 viewBox="0 0 64 64" enable-background="new 0 0 64 64" xml:space="preserve">
<g>
	<path d="M24.20605,29.5c0.18555,0.3208,0.52148,0.5,0.86719,0.5c0.16992,0,0.3418-0.04297,0.49902-0.13379l1.3728-0.7926
		l-0.10718,0.39954c-0.14355,0.5332,0.17383,1.08154,0.70709,1.22462c0.52524,0.1416,1.08432-0.18022,1.22455-0.70705
		l0.62506-2.33148L31,26.7323v1.85364l-1.70703,1.70703c-0.39062,0.39062-0.39062,1.02344,0,1.41406s1.02344,0.39062,1.41406,0
		L31,31.41406V33c0,0.55225,0.44727,1,1,1s1-0.44775,1-1v-1.58594c0,0,0.29277,0.29277,0.29297,0.29297
		c0.38627,0.38627,1.0284,0.38566,1.41406,0c0.39062-0.39062,0.39062-1.02344,0-1.41406L33,28.58594V26.7323l1.60541,0.92694
		l0.62506,2.33148c0.12012,0.44678,0.52344,0.7417,0.96484,0.7417c0.08594,0,0.17285-0.01123,0.25977-0.03467
		c0.5332-0.14307,0.85059-0.69141,0.70703-1.22461l-0.10718-0.39954c0,0,1.3728,0.7926,1.37284,0.79263
		c0.4752,0.27447,1.09171,0.1085,1.36617-0.36623c0.27637-0.47803,0.1123-1.08984-0.36621-1.36621l-1.37292-0.79272l0.40027-0.10718
		c0.5332-0.14258,0.84961-0.69092,0.70703-1.22461c-0.1416-0.53369-0.68945-0.85059-1.22462-0.70703l-2.33196,0.62463L34.00024,25
		l1.60529-0.92688c0,0,2.33196,0.62463,2.33205,0.62465c0.52642,0.14191,1.08422-0.1809,1.22453-0.70705
		c0.14258-0.53369-0.17383-1.08203-0.70703-1.22461l-0.40027-0.10718l1.37292-0.79272
		c0.47852-0.27637,0.64258-0.88818,0.36621-1.36621c-0.27734-0.47949-0.88965-0.64209-1.36621-0.36621l-1.3728,0.7926
		l0.10718-0.39954c0.14355-0.5332-0.17383-1.08154-0.70703-1.22461c-0.53223-0.1416-1.08105,0.17383-1.22461,0.70703
		l-0.62506,2.33148L33,23.2677v-1.85364l1.70703-1.70703c0.39062-0.39062,0.39062-1.02344,0-1.41406s-1.02344-0.39062-1.41406,0
		L33,18.58594V17c0-0.55225-0.44727-1-1-1s-1,0.44775-1,1v1.58594l-0.29297-0.29297c-0.39062-0.39062-1.02344-0.39062-1.41406,0
		s-0.39062,1.02344,0,1.41406L31,21.41406v1.85364l-1.60541-0.92694l-0.62506-2.33148
		c-0.14355-0.53418-0.69141-0.84912-1.22461-0.70703c-0.5332,0.14307-0.85059,0.69141-0.70703,1.22461l0.10718,0.39954
		l-1.3728-0.7926c-0.47852-0.27588-1.08984-0.11328-1.36621,0.36621c-0.27637,0.47803-0.1123,1.08984,0.36621,1.36621
		l1.37292,0.79272l-0.40027,0.10718c-0.53318,0.14257-0.84958,0.69086-0.70705,1.22453
		c0.14027,0.52522,0.70087,0.84835,1.22462,0.70711l2.33198-0.62463L29.99976,25l-1.60529,0.92688l-2.33198-0.62463
		c-0.5332-0.14307-1.08202,0.17334-1.2246,0.70703s0.17383,1.08203,0.70703,1.22461l0.40027,0.10718l-1.37292,0.79272
		C24.09375,28.41016,23.92969,29.02197,24.20605,29.5z"/>
	<path d="M55,31.72998V30C55,17.32001,44.67999,7,32,7S9,17.32001,9,30v1.72998C7.76001,33.14001,7,34.97998,7,37
		c0,4.07001,3.06,7.44,7,7.92999V45c0,1.64996,1.34998,3,3,3s3-1.35004,3-3V29c0-1.65002-1.34998-3-3-3s-3,1.34998-3,3v0.07001
		c-1.08002,0.13995-2.09998,0.48999-3,1.00995V30c0-5.94,2.48999-11.29999,6.46002-15.12c0,0,2.13995,2.13995,2.14996,2.14996
		c0.34003,0.34003,0.96002,0.39001,1.35999,0.04999c2.08002-1.77997,4.57001-3.03998,7.21002-3.64996
		c0.47998-0.08002,0.84003-0.48999,0.84003-0.98999c0-0.63-0.61005-1.12-1.22003-0.98004
		c-2.67999,0.62-5.21997,1.82001-7.40997,3.52002L18.96997,13.56C22.56,10.70996,27.08002,9,32,9s9.44,1.70996,13.03003,4.56
		l-1.42004,1.41998c-2.19-1.70001-4.72998-2.90002-7.40997-3.52002C35.59003,11.32001,34.97998,11.81,34.97998,12.44
		c0,0.47998,0.34003,0.88995,0.80005,0.97998c2.64996,0.60999,5.15997,1.87,7.25,3.65997
		c0.37,0.32001,0.97998,0.33002,1.35999-0.04999L46.53998,14.88C50.51001,18.70001,53,24.06,53,30v0.07996
		c-0.90002-0.51996-1.91998-0.87-3-1.00995V29c0-1.65002-1.34998-3-3-3s-3,1.34998-3,3v16c0,1.29999,0.84003,2.39996,2,2.82001V48
		c0,2.76001-2.23999,5-5,5h-3.17999C37.40002,51.83997,36.29999,51,35,51h-6c-1.65002,0-3,1.34998-3,3c0,1.64996,1.34998,3,3,3h6
		c1.29999,0,2.40002-0.84003,2.82001-2H41c3.85999,0,7-3.14001,7-7v-0.17999c1.15997-0.42004,2-1.52002,2-2.82001v-0.07001
		C53.94,44.44,57,41.07001,57,37C57,34.97998,56.23999,33.14001,55,31.72998z M16,29c0-0.54999,0.45001-1,1-1s1,0.45001,1,1v16
		c0,0.54999-0.45001,1-1,1s-1-0.45001-1-1V29z M14,31.07996v11.84003C11.16998,42.44,9,39.96997,9,37
		C9,34.02997,11.16998,31.56,14,31.07996z M35,55h-6c-0.54999,0-1-0.45001-1-1s0.45001-1,1-1h6c0.54999,0,1,0.45001,1,1
		S35.54999,55,35,55z M48,45c0,0.54999-0.45001,1-1,1s-1-0.45001-1-1V29c0-0.54999,0.45001-1,1-1s1,0.45001,1,1V45z M50,42.91998
		V31.07996C52.83002,31.56,55,34.02997,55,37C55,39.96997,52.83002,42.44,50,42.91998z"/>
	<path d="M22,37c0,0.55225,0.44727,1,1,1h18c0.55273,0,1-0.44775,1-1s-0.44727-1-1-1H23C22.44727,36,22,36.44775,22,37z"/>
	<path d="M23,42h3c0.55273,0,1-0.44775,1-1s-0.44727-1-1-1h-3c-0.55273,0-1,0.44775-1,1S22.44727,42,23,42z"/>
	<path d="M41,40H30c-0.55273,0-1,0.44775-1,1s0.44727,1,1,1h11c0.55273,0,1-0.44775,1-1S41.55273,40,41,40z"/>
	<path d="M42,45c0-0.55225-0.44727-1-1-1H23c-0.55273,0-1,0.44775-1,1s0.44727,1,1,1h18C41.55273,46,42,45.55225,42,45z"/>
	<circle cx="32" cy="12" r="1"/>
</g>
</svg>
