<?xml version="1.0" encoding="utf-8"?>
<!-- Generator: Adobe Illustrator 27.3.1, SVG Export Plug-In . SVG Version: 6.00 Build 0)  -->
<svg version="1.1" id="Outline" xmlns="http://www.w3.org/2000/svg" xmlns:xlink="http://www.w3.org/1999/xlink" x="0px" y="0px"
	 viewBox="0 0 64 64" enable-background="new 0 0 64 64" xml:space="preserve">
<g>
	<path d="M37.62012,31H36c-0.55273,0-1,0.44775-1,1s0.44727,1,1,1h1.62012C40.03516,33,42,31.03516,42,28.62012
		c0-2.21387-1.6582-4.04883-3.85547-4.33203C37.20117,22.86328,35.61426,22,33.87988,22c-1.38477,0-2.68555,0.54932-3.6377,1.50488
		c-0.49902-0.25146-1.05176-0.38477-1.62207-0.38477c-1.65625,0-3.05566,1.12061-3.48438,2.66211
		C23.36719,26.02051,22,27.54297,22,29.37988C22,31.37598,23.62402,33,25.62012,33H28c0.55273,0,1-0.44775,1-1s-0.44727-1-1-1
		h-2.37988C24.72656,31,24,30.27344,24,29.37988c0-0.89893,0.72656-1.62988,1.62052-1.62988C26.27569,27.75016,27,27.58816,27,26.75
		c0-0.89893,0.72656-1.62988,1.62012-1.62988c0.53418,0,0.90234,0.2456,1.11718,0.45214
		c0.42517,0.40874,1.17711,0.35927,1.52637-0.17089C31.84375,24.52393,32.82227,24,33.87988,24
		c1.17676,0,2.24219,0.65332,2.7793,1.70508c0.1709,0.33447,0.58496,0.54492,0.96094,0.54492
		C38.93262,26.25,40,27.31299,40,28.62012C40,29.93262,38.93262,31,37.62012,31z"/>
	<path d="M55,31.72998V30C55,17.32001,44.67999,7,32,7S9,17.32001,9,30v1.72998C7.76001,33.14001,7,34.97998,7,37
		c0,4.07001,3.06,7.44,7,7.92999V45c0,1.64996,1.34998,3,3,3s3-1.35004,3-3V29c0-1.65002-1.34998-3-3-3s-3,1.34998-3,3v0.07001
		c-1.08002,0.13995-2.09998,0.48999-3,1.00995V30c0-5.94,2.48999-11.29999,6.46002-15.12l2.14996,2.14996
		c0.37,0.37,0.96002,0.39001,1.35999,0.04999C24.04999,14.45001,27.96997,13,32,13s7.95001,1.45001,11.03006,4.07998
		c0.40283,0.33938,0.98136,0.30964,1.35996-0.05001L46.53998,14.88C50.51001,18.70001,53,24.06,53,30v0.07996
		c-0.90002-0.51996-1.91998-0.87-3-1.00995V29c0-1.65002-1.34998-3-3-3s-3,1.34998-3,3v16c0,1.29999,0.84003,2.39996,2,2.82001V48
		c0,2.76001-2.23999,5-5,5h-3.17999C37.40002,51.83997,36.29999,51,35,51h-6c-1.65002,0-3,1.34998-3,3c0,1.64996,1.34998,3,3,3h6
		c1.29999,0,2.40002-0.84003,2.82001-2H41c3.85999,0,7-3.14001,7-7v-0.17999c1.15997-0.42004,2-1.52002,2-2.82001v-0.07001
		C53.94,44.44,57,41.07001,57,37C57,34.97998,56.23999,33.14001,55,31.72998z M16,29c0-0.54999,0.45001-1,1-1s1,0.45001,1,1v16
		c0,0.54999-0.45001,1-1,1s-1-0.45001-1-1V29z M14,31.07996v11.84003C11.16998,42.44,9,39.96997,9,37
		C9,34.02997,11.16998,31.56,14,31.07996z M43.60999,14.97998C40.28998,12.40997,36.20001,11,32,11
		s-8.28998,1.40997-11.60999,3.97998L18.96997,13.56C22.56,10.70996,27.08002,9,32,9s9.44,1.70996,13.03003,4.56L43.60999,14.97998z
		 M35,55h-6c-0.54999,0-1-0.45001-1-1s0.45001-1,1-1h6c0.54999,0,1,0.45001,1,1S35.54999,55,35,55z M48,45c0,0.54999-0.45001,1-1,1
		s-1-0.45001-1-1V29c0-0.54999,0.45001-1,1-1s1,0.45001,1,1V45z M50,42.91998V31.07996C52.83002,31.56,55,34.02997,55,37
		C55,39.96997,52.83002,42.44,50,42.91998z"/>
	<path d="M23,37h18c0.55273,0,1-0.44775,1-1s-0.44727-1-1-1H23c-0.55273,0-1,0.44775-1,1S22.44727,37,23,37z"/>
	<path d="M23,41h3c0.55273,0,1-0.44775,1-1s-0.44727-1-1-1h-3c-0.55273,0-1,0.44775-1,1S22.44727,41,23,41z"/>
	<path d="M41,39H30c-0.55273,0-1,0.44775-1,1s0.44727,1,1,1h11c0.55273,0,1-0.44775,1-1S41.55273,39,41,39z"/>
	<path d="M42,44c0-0.55225-0.44727-1-1-1H23c-0.55273,0-1,0.44775-1,1s0.44727,1,1,1h18C41.55273,45,42,44.55225,42,44z"/>
	<circle cx="32" cy="32" r="1"/>
</g>
</svg>
