<?xml version="1.0" encoding="utf-8"?>
<!-- Generator: Adobe Illustrator 27.3.1, SVG Export Plug-In . SVG Version: 6.00 Build 0)  -->
<svg version="1.1" id="Outline" xmlns="http://www.w3.org/2000/svg" xmlns:xlink="http://www.w3.org/1999/xlink" x="0px" y="0px"
	 viewBox="0 0 64 64" enable-background="new 0 0 64 64" xml:space="preserve">
<g>
	<path d="M56.0415,28.00098c-1.33838-0.05566-2.05811-0.98242-2.28516-1.83105c-0.22754-0.84766-0.06738-2.01074,1.06396-2.72754
		c0.45264-0.28711,0.59863-0.88086,0.33057-1.34473l-3-5.19531c-0.26904-0.46484-0.854-0.63672-1.32959-0.38574
		c-1.18701,0.62012-2.27344,0.17871-2.89502-0.44336c-0.62061-0.62109-1.06299-1.70801-0.44189-2.89355
		c0.24854-0.47559,0.07812-1.06152-0.38623-1.33008l-5.19629-3c-0.46387-0.26758-1.05615-0.12109-1.34424,0.33008
		c-0.71777,1.13184-1.87891,1.28906-2.72852,1.06445c-0.84814-0.22754-1.77441-0.94727-1.83008-2.28613
		C35.97705,7.42285,35.53613,7,35,7h-6c-0.53613,0-0.97705,0.42285-0.99902,0.95801
		c-0.05566,1.33887-0.98193,2.05859-1.83008,2.28613c-0.84863,0.22461-2.01123,0.06738-2.72852-1.06445
		c-0.28711-0.45117-0.87939-0.59766-1.34424-0.33008l-5.19629,3c-0.46436,0.26855-0.63477,0.85449-0.38623,1.33008
		c0.62109,1.18555,0.17871,2.27246-0.44189,2.89355c-0.62158,0.62207-1.70947,1.06348-2.89502,0.44336
		c-0.47705-0.25098-1.06104-0.0791-1.32959,0.38574l-3,5.19531c-0.26807,0.46387-0.12207,1.05762,0.33057,1.34473
		c1.13135,0.7168,1.2915,1.87988,1.06396,2.72754c-0.22705,0.84863-0.94678,1.77539-2.28516,1.83105
		C7.42285,28.02344,7,28.46387,7,29v6c0,0.53613,0.42285,0.97656,0.9585,0.99902c1.33838,0.05566,2.05811,0.98242,2.28516,1.83105
		c0.22754,0.84766,0.06738,2.01074-1.06396,2.72754c-0.45264,0.28711-0.59863,0.88086-0.33057,1.34473l3,5.19531
		c0.26855,0.46484,0.85254,0.63672,1.32959,0.38574c1.18701-0.62109,2.27344-0.17773,2.89502,0.44336
		c0.62061,0.62109,1.06299,1.70801,0.44189,2.89355c-0.24854,0.47559-0.07813,1.06152,0.38623,1.33008l5.19629,3
		c0.46484,0.26855,1.05713,0.12207,1.34424-0.33008c0.71729-1.13184,1.88037-1.28906,2.72852-1.06445
		c0.84814,0.22754,1.77441,0.94727,1.83008,2.28613C28.02295,56.57715,28.46387,57,29,57h6
		c0.53613,0,0.97705-0.42285,0.99902-0.95801c0.05566-1.33887,0.98193-2.05859,1.83008-2.28613
		c0.84912-0.22461,2.01074-0.06738,2.72852,1.06445c0.28809,0.45215,0.88037,0.59863,1.34424,0.33008l5.19629-3
		c0.46435-0.26855,0.63477-0.85449,0.38623-1.33008c-0.62109-1.18555-0.17871-2.27246,0.44189-2.89355
		c0.62158-0.62109,1.70947-1.06445,2.89502-0.44336c0.47559,0.25098,1.06055,0.0791,1.32959-0.38574l3-5.19531
		c0.26807-0.46387,0.12207-1.05762-0.33057-1.34473c-1.13135-0.7168-1.2915-1.87988-1.06396-2.72754
		c0.22705-0.84863,0.94678-1.77539,2.28516-1.83105C56.57715,35.97656,57,35.53613,57,35v-6
		C57,28.46387,56.57715,28.02344,56.0415,28.00098z M55,34.13965c-1.54395,0.39258-2.74463,1.56348-3.17578,3.17285
		c-0.43066,1.6084,0.02344,3.22266,1.16455,4.33496l-2.14014,3.70508c-1.53418-0.43066-3.15967-0.0166-4.33691,1.16113
		c-1.17676,1.17676-1.59033,2.80176-1.15869,4.33496l-3.70654,2.13965c-1.11182-1.14062-2.72607-1.59277-4.33496-1.16406
		c-1.6084,0.43164-2.7793,1.63184-3.17139,3.17578h-4.28027c-0.39209-1.54395-1.56299-2.74414-3.17139-3.17578
		c-1.60547-0.42871-3.22314,0.02344-4.33496,1.16406l-3.70654-2.13965c0.43164-1.5332,0.01807-3.1582-1.15869-4.33496
		c-1.17773-1.17871-2.80273-1.59277-4.33691-1.16113l-2.14014-3.70508c1.14111-1.1123,1.59521-2.72656,1.16455-4.33496
		C11.74463,35.70312,10.54395,34.53223,9,34.13965v-4.2793c1.54395-0.39258,2.74463-1.56348,3.17578-3.17285
		c0.43066-1.6084-0.02344-3.22266-1.16455-4.33496l2.14014-3.70508c1.53516,0.43164,3.16016,0.01758,4.33691-1.16113
		c1.17676-1.17676,1.59033-2.80176,1.15869-4.33496l3.70654-2.13965c1.11182,1.1416,2.72705,1.59375,4.33496,1.16406
		c1.6084-0.43164,2.7793-1.63184,3.17139-3.17578h4.28027c0.39209,1.54395,1.56299,2.74414,3.17139,3.17578
		c1.60791,0.42969,3.22363-0.02246,4.33496-1.16406l3.70654,2.13965c-0.43164,1.5332-0.01807,3.1582,1.15869,4.33496
		c1.17725,1.17871,2.80176,1.5918,4.33691,1.16113l2.14014,3.70508c-1.14111,1.1123-1.59521,2.72656-1.16455,4.33496
		c0.43115,1.60938,1.63184,2.78027,3.17578,3.17285V34.13965z"/>
	<path d="M48,32.54047V32c0-7.11462-4.90564-13.54913-11.77539-15.43359c-0.53369-0.14844-1.08301,0.16602-1.229,0.69922
		c-0.146,0.53223,0.16699,1.08301,0.69971,1.22852c1.33875,0.3681,2.58636,0.94318,3.72705,1.66925l-1.4375,1.43719
		c-3.63086-2.09961-8.33887-2.09961-11.96973,0l-1.4494-1.4491c1.14044-0.71802,2.39069-1.2879,3.73798-1.65637
		c0.53271-0.14551,0.84668-0.69629,0.70068-1.22852c-0.14551-0.5332-0.69629-0.84473-1.22803-0.70117
		C20.84277,18.46191,16,24.80859,16,32v0.54047C14.77576,33.63965,14,35.22894,14,37c0,3.30859,2.69141,6,6,6h0.18433
		c0.41412,1.1615,1.51373,2,2.81567,2c1.6543,0,3-1.3457,3-3V32c0-1.6543-1.3457-3-3-3c-1.30194,0-2.40161,0.8385-2.81573,2H20
		c-0.69165,0-1.35358,0.1236-1.97235,0.3399c0.18652-3.93457,2.02063-7.52533,4.90771-9.99048l2.22772,2.22772
		c0.33838,0.33887,0.86865,0.3916,1.26611,0.12207c3.29785-2.22266,7.84375-2.22266,11.14172,0.00008
		c0.39652,0.26805,0.92869,0.21516,1.266-0.12215c0,0,2.20923-2.20923,2.20923-2.20923
		c2.87994,2.47717,4.73486,6.07806,4.92554,9.97174C45.35309,31.12354,44.69141,31,44,31h-0.18427
		C43.40161,29.8385,42.30194,29,41,29c-1.6543,0-3,1.3457-3,3v10c0,1.30194,0.8385,2.40155,2,2.81567V45c0,1.10254-0.89697,2-2,2h-6
		c-0.55225,0-1,0.44727-1,1s0.44775,1,1,1h6c2.20557,0,4-1.79395,4-4v-0.18427c0.84717-0.30206,1.51367-0.96857,1.81573-1.81573H44
		c3.30859,0,6-2.69141,6-6C50,35.22894,49.22424,33.63965,48,32.54047z M23,31c0.55127,0,1,0.44824,1,1v10c0,0.55176-0.44873,1-1,1
		s-1-0.44824-1-1V32C22,31.44824,22.44873,31,23,31z M20,41c-2.20557,0-4-1.79395-4-4s1.79443-4,4-4V41z M41,43
		c-0.55127,0-1-0.44824-1-1V32c0-0.55176,0.44873-1,1-1s1,0.44824,1,1v10C42,42.55176,41.55127,43,41,43z M44,41v-8
		c2.20557,0,4,1.79395,4,4S46.20557,41,44,41z"/>
	<circle cx="32" cy="17" r="1"/>
</g>
</svg>
