<?xml version="1.0" encoding="utf-8"?>
<!-- Generator: Adobe Illustrator 27.3.1, SVG Export Plug-In . SVG Version: 6.00 Build 0)  -->
<svg version="1.1" id="Outline" xmlns="http://www.w3.org/2000/svg" xmlns:xlink="http://www.w3.org/1999/xlink" x="0px" y="0px"
	 viewBox="0 0 64 64" enable-background="new 0 0 64 64" xml:space="preserve">
<g>
	<path d="M55,31.72998V30C55,17.32001,44.67999,7,32,7S9,17.32001,9,30v1.72998C7.76001,33.14001,7,34.97998,7,37
		c0,4.07001,3.06,7.44,7,7.92999V45c0,1.64996,1.34998,3,3,3s3-1.35004,3-3v-1.22003l3.23999-0.81C23.69,42.85999,24,42.45996,24,42
		V32c0-0.46002-0.31-0.85999-0.76001-0.97003L20,30.21997V29c0-1.65002-1.34998-3-3-3s-3,1.34998-3,3v0.07001
		c-1.08002,0.13995-2.09998,0.48999-3,1.00995V30c0-5.94,2.48999-11.29999,6.46002-15.12l2.14996,2.14996
		c0.37,0.37,0.96002,0.39001,1.35999,0.04999C24.04999,14.45001,27.96997,13,32,13c4.02995,0,7.94986,1.44996,11.02985,4.07981
		c0.4021,0.34333,0.98426,0.30725,1.36016-0.04984L46.53998,14.88C50.51001,18.70001,53,24.06,53,30v0.07996
		c-0.90002-0.51996-1.91998-0.87-3-1.00995V29c0-1.65002-1.34998-3-3-3s-3,1.34998-3,3v1.21997l-3.23999,0.81
		C40.31,31.14001,40,31.53998,40,32v10c0,0.45996,0.31,0.85999,0.76001,0.96997L44,43.77997V45c0,1.29999,0.84003,2.39996,2,2.82001
		V48c0,2.76001-2.23999,5-5,5h-3.17999C37.40002,51.83997,36.29999,51,35,51h-6c-1.65002,0-3,1.34998-3,3c0,1.64996,1.34998,3,3,3h6
		c1.29999,0,2.40002-0.84003,2.82001-2H41c3.85999,0,7-3.14001,7-7v-0.17999c1.15997-0.42004,2-1.52002,2-2.82001v-0.07001
		C53.94,44.44,57,41.07001,57,37C57,34.97998,56.23999,33.14001,55,31.72998z M16,29c0-0.54999,0.45001-1,1-1s1,0.45001,1,1v4
		c0,0.54999,0.45001,1,1,1s1-0.45001,1-1v-0.72003l2,0.5v8.44l-2,0.5V41c0-0.54999-0.45001-1-1-1s-1,0.45001-1,1v4
		c0,0.54999-0.45001,1-1,1s-1-0.45001-1-1V29z M14,31.07996v11.84003C11.16998,42.44,9,39.96997,9,37
		C9,34.02997,11.16998,31.56,14,31.07996z M43.60999,14.97998C40.28998,12.40997,36.20001,11,32,11
		s-8.28998,1.40997-11.60999,3.97998L18.96997,13.56C22.56,10.70996,27.08002,9,32,9s9.44,1.70996,13.03003,4.56L43.60999,14.97998z
		 M44,41.71997l-2-0.5v-8.44l2-0.5V41.71997z M35,55h-6c-0.54999,0-1-0.45001-1-1s0.45001-1,1-1h6c0.54999,0,1,0.45001,1,1
		S35.54999,55,35,55z M48,45c0,0.54999-0.45001,1-1,1s-1-0.45001-1-1V29c0-0.54999,0.45001-1,1-1s1,0.45001,1,1V45z M50,42.91998
		V31.07996C52.83002,31.56,55,34.02997,55,37C55,39.96997,52.83002,42.44,50,42.91998z"/>
	<path d="M41,18H23c-0.55273,0-1,0.44775-1,1s0.44727,1,1,1h18c0.55273,0,1-0.44775,1-1S41.55273,18,41,18z"/>
	<path d="M23,24h3c0.55273,0,1-0.44775,1-1s-0.44727-1-1-1h-3c-0.55273,0-1,0.44775-1,1S22.44727,24,23,24z"/>
	<path d="M41,22H30c-0.55273,0-1,0.44775-1,1s0.44727,1,1,1h11c0.55273,0,1-0.44775,1-1S41.55273,22,41,22z"/>
	<path d="M23,28h18c0.55273,0,1-0.44775,1-1s-0.44727-1-1-1H23c-0.55273,0-1,0.44775-1,1S22.44727,28,23,28z"/>
	<circle cx="19" cy="37" r="1"/>
</g>
</svg>
