<?xml version="1.0" encoding="utf-8"?>
<!-- Generator: Adobe Illustrator 27.3.1, SVG Export Plug-In . SVG Version: 6.00 Build 0)  -->
<svg version="1.1" id="Outline" xmlns="http://www.w3.org/2000/svg" xmlns:xlink="http://www.w3.org/1999/xlink" x="0px" y="0px"
	 viewBox="0 0 64 64" enable-background="new 0 0 64 64" xml:space="preserve">
<g>
	<path d="M52,11h-3V8c0-0.55225-0.44727-1-1-1H22c-0.26514,0-0.51953,0.10547-0.70703,0.29297l-10,10
		C11.10547,17.48047,11,17.73486,11,18v17c0,0.55225,0.44775,1,1,1s1-0.44775,1-1V19h2v32h-2v-8c0-0.55225-0.44775-1-1-1
		s-1,0.44775-1,1v9c0,0.55225,0.44775,1,1,1h3v3c0,0.55225,0.44775,1,1,1h36c0.55273,0,1-0.44775,1-1V12
		C53,11.44775,52.55273,11,52,11z M47,11H23V9h24V11z M14.41406,17L21,10.41406V17H14.41406z M51,55H17V19h5
		c0.55225,0,1-0.44775,1-1v-5h28V55z"/>
	<path d="M26,15c-0.55225,0-1,0.44775-1,1s0.44775,1,1,1h22c0.55273,0,1-0.44775,1-1s-0.44727-1-1-1H26z"/>
	<path d="M43,21c0.55273,0,1-0.44775,1-1s-0.44727-1-1-1H31c-0.55225,0-1,0.44775-1,1s0.44775,1,1,1H43z"/>
	<path d="M25,27c0-1.6543-1.3457-3-3-3s-3,1.3457-3,3c0,1.30194,0.8385,2.40155,2,2.81567v4.36859
		C19.8385,34.59839,19,35.69806,19,37s0.8385,2.40155,2,2.81567v4.36859C19.8385,44.59839,19,45.69806,19,47c0,1.6543,1.3457,3,3,3
		s3-1.3457,3-3c0-1.30194-0.8385-2.40161-2-2.81573v-4.36853c1.1615-0.41412,2-1.51379,2-2.81573s-0.8385-2.40161-2-2.81573
		v-4.36853C24.1615,29.40161,25,28.30194,25,27z M22,26c0.55127,0,1,0.44873,1,1s-0.44873,1-1,1s-1-0.44873-1-1S21.44873,26,22,26z
		 M22,48c-0.55127,0-1-0.44873-1-1s0.44873-1,1-1s1,0.44873,1,1S22.55127,48,22,48z M22,38c-0.55127,0-1-0.44873-1-1s0.44873-1,1-1
		s1,0.44873,1,1S22.55127,38,22,38z"/>
	<path d="M27,25c0,0.55225,0.44775,1,1,1h4c0.55225,0,1-0.44775,1-1s-0.44775-1-1-1h-4C27.44775,24,27,24.44775,27,25z"/>
	<path d="M48,24H36c-0.55273,0-1,0.44775-1,1s0.44727,1,1,1h12c0.55273,0,1-0.44775,1-1S48.55273,24,48,24z"/>
	<path d="M28,30h14c0.55273,0,1-0.44775,1-1s-0.44727-1-1-1H28c-0.55225,0-1,0.44775-1,1S27.44775,30,28,30z"/>
	<path d="M48,28h-2c-0.55273,0-1,0.44775-1,1s0.44727,1,1,1h2c0.55273,0,1-0.44775,1-1S48.55273,28,48,28z"/>
	<path d="M28,38h4c0.55225,0,1-0.44775,1-1s-0.44775-1-1-1h-4c-0.55225,0-1,0.44775-1,1S27.44775,38,28,38z"/>
	<path d="M36,36c-0.55273,0-1,0.44775-1,1s0.44727,1,1,1h4c0.55273,0,1-0.44775,1-1s-0.44727-1-1-1H36z"/>
	<path d="M48,36h-4c-0.55273,0-1,0.44775-1,1s0.44727,1,1,1h4c0.55273,0,1-0.44775,1-1S48.55273,36,48,36z"/>
	<path d="M32,50h-4c-0.55225,0-1,0.44775-1,1s0.44775,1,1,1h4c0.55225,0,1-0.44775,1-1S32.55225,50,32,50z"/>
	<path d="M40,50h-4c-0.55273,0-1,0.44775-1,1s0.44727,1,1,1h4c0.55273,0,1-0.44775,1-1S40.55273,50,40,50z"/>
	<path d="M48,50h-4c-0.55273,0-1,0.44775-1,1s0.44727,1,1,1h4c0.55273,0,1-0.44775,1-1S48.55273,50,48,50z"/>
	<path d="M48,46H28c-0.55225,0-1,0.44775-1,1s0.44775,1,1,1h20c0.55273,0,1-0.44775,1-1S48.55273,46,48,46z"/>
	<path d="M28,44h6c0.55273,0,1-0.44775,1-1s-0.44727-1-1-1h-6c-0.55225,0-1,0.44775-1,1S27.44775,44,28,44z"/>
	<path d="M48,42H38c-0.55273,0-1,0.44775-1,1s0.44727,1,1,1h10c0.55273,0,1-0.44775,1-1S48.55273,42,48,42z"/>
	<circle cx="12" cy="39" r="1"/>
</g>
</svg>
