<?xml version="1.0" encoding="utf-8"?>
<!-- Generator: Adobe Illustrator 27.3.1, SVG Export Plug-In . SVG Version: 6.00 Build 0)  -->
<svg version="1.1" id="Outline" xmlns="http://www.w3.org/2000/svg" xmlns:xlink="http://www.w3.org/1999/xlink" x="0px" y="0px"
	 viewBox="0 0 64 64" enable-background="new 0 0 64 64" xml:space="preserve">
<g>
	<circle cx="12" cy="18" r="1"/>
	<circle cx="50" cy="34" r="1"/>
	<circle cx="50" cy="30" r="1"/>
	<circle cx="50" cy="26" r="1"/>
	<path d="M56,13h-9V8c0-0.54999-0.45001-1-1-1H18c-0.54999,0-1,0.45001-1,1v5H8c-0.54999,0-1,0.45001-1,1v30
		c0,0.54999,0.45001,1,1,1h18v0.39001C26,47.38,25.46002,49.31,24.44,51H20c-0.54999,0-1,0.45001-1,1v4c0,0.54999,0.45001,1,1,1h8
		c0.54999,0,1-0.45001,1-1s-0.45001-1-1-1h-7v-2h22v2h-7c-0.54999,0-1,0.45001-1,1s0.45001,1,1,1h8c0.54999,0,1-0.45001,1-1v-4
		c0-0.54999-0.45001-1-1-1h-4.44C38.53998,49.29999,38,47.38,38,45.39001V45h18c0.54999,0,1-0.45001,1-1V14
		C57,13.45001,56.54999,13,56,13z M19,9h26v28H19V9z M9,15h8v22H9V15z M26.71997,51C27.56,49.26001,28,47.34998,28,45.39001V45h8
		v0.39001c0,1.95996,0.44,3.87,1.28003,5.60999H26.71997z M55,43H9v-4h46V43z M55,37h-8V15h8V37z"/>
	<path d="M23,14h18c0.55273,0,1-0.44775,1-1s-0.44727-1-1-1H23c-0.55225,0-1,0.44775-1,1S22.44775,14,23,14z"/>
	<path d="M39,17c0-0.55225-0.44727-1-1-1H26c-0.55225,0-1,0.44775-1,1s0.44775,1,1,1h12C38.55273,18,39,17.55225,39,17z"/>
	<path d="M24,26c1.6543,0,3-1.3457,3-3s-1.3457-3-3-3s-3,1.3457-3,3S22.3457,26,24,26z M24,22c0.55127,0,1,0.44873,1,1
		s-0.44873,1-1,1s-1-0.44873-1-1S23.44873,22,24,22z"/>
	<path d="M34,20h-4c-0.55225,0-1,0.44775-1,1s0.44775,1,1,1h4c0.55273,0,1-0.44775,1-1S34.55273,20,34,20z"/>
	<path d="M34,24h-4c-0.55225,0-1,0.44775-1,1s0.44775,1,1,1h4c0.55273,0,1-0.44775,1-1S34.55273,24,34,24z"/>
	<path d="M38,20c-0.55273,0-1,0.44775-1,1s0.44727,1,1,1h4c0.55273,0,1-0.44775,1-1s-0.44727-1-1-1H38z"/>
	<path d="M42,24h-4c-0.55273,0-1,0.44775-1,1s0.44727,1,1,1h4c0.55273,0,1-0.44775,1-1S42.55273,24,42,24z"/>
	<path d="M24,34c1.6543,0,3-1.3457,3-3s-1.3457-3-3-3s-3,1.3457-3,3S22.3457,34,24,34z M24,30c0.55127,0,1,0.44873,1,1
		s-0.44873,1-1,1s-1-0.44873-1-1S23.44873,30,24,30z"/>
	<path d="M36,28h-6c-0.55225,0-1,0.44775-1,1s0.44775,1,1,1h6c0.55273,0,1-0.44775,1-1S36.55273,28,36,28z"/>
	<path d="M36,32h-6c-0.55225,0-1,0.44775-1,1s0.44775,1,1,1h6c0.55273,0,1-0.44775,1-1S36.55273,32,36,32z"/>
	<path d="M42,28h-2c-0.55273,0-1,0.44775-1,1s0.44727,1,1,1h2c0.55273,0,1-0.44775,1-1S42.55273,28,42,28z"/>
	<path d="M42,32h-2c-0.55273,0-1,0.44775-1,1s0.44727,1,1,1h2c0.55273,0,1-0.44775,1-1S42.55273,32,42,32z"/>
	<circle cx="32" cy="56" r="1"/>
</g>
</svg>
