<?xml version="1.0" encoding="utf-8"?>
<!-- Generator: Adobe Illustrator 27.3.1, SVG Export Plug-In . SVG Version: 6.00 Build 0)  -->
<svg version="1.1" id="Outline" xmlns="http://www.w3.org/2000/svg" xmlns:xlink="http://www.w3.org/1999/xlink" x="0px" y="0px"
	 viewBox="0 0 64 64" enable-background="new 0 0 64 64" xml:space="preserve">
<g>
	<path d="M55,31.72998V30C55,17.32001,44.67999,7,32,7S9,17.32001,9,30v1.72998C7.76001,33.14001,7,34.97998,7,37
		c0,4.07001,3.06,7.44,7,7.92999V45c0,1.64996,1.34998,3,3,3s3-1.35004,3-3V29c0-1.65002-1.34998-3-3-3s-3,1.34998-3,3v0.07001
		c-1.08002,0.13995-2.09998,0.48999-3,1.00995V30c0-5.94,2.48999-11.29999,6.46002-15.12l2.14996,2.14996
		c0.37,0.36005,0.96002,0.39001,1.35999,0.04999C24.04999,14.45001,27.96997,13,32,13s7.95001,1.45001,11.03037,4.08025
		c0.39425,0.33188,0.98949,0.3194,1.35964-0.05028c0,0,2.14996-2.14996,2.14996-2.14996C50.51001,18.70001,53,24.06,53,30v0.07996
		c-0.90002-0.51996-1.91998-0.87-3-1.00995V29c0-1.65002-1.34998-3-3-3s-3,1.34998-3,3v4c0,0.54999,0.45001,1,1,1s1-0.45001,1-1v-4
		c0-0.54999,0.45001-1,1-1s1,0.45001,1,1v16c0,0.54999-0.45001,1-1,1s-1-0.45001-1-1v-4c0-0.54999-0.45001-1-1-1s-1,0.45001-1,1v4
		c0,1.29999,0.84003,2.39996,2,2.82001V48c0,2.76001-2.23999,5-5,5h-3.17999C37.40002,51.83997,36.29999,51,35,51h-6
		c-1.65002,0-3,1.34998-3,3c0,1.64996,1.34998,3,3,3h6c1.29999,0,2.40002-0.84003,2.82001-2H41c3.85999,0,7-3.14001,7-7v-0.17999
		c1.15997-0.42004,2-1.52002,2-2.82001v-0.07001C53.94,44.44,57,41.07001,57,37C57,34.97998,56.23999,33.14001,55,31.72998z M16,29
		c0-0.54999,0.45001-1,1-1s1,0.45001,1,1v16c0,0.54999-0.45001,1-1,1s-1-0.45001-1-1V29z M14,31.07996v11.84003
		C11.16998,42.44,9,39.96997,9,37C9,34.02997,11.16998,31.56,14,31.07996z M43.60999,14.97998C40.28998,12.40997,36.20001,11,32,11
		s-8.28998,1.40997-11.60999,3.97998L18.96997,13.56C22.56,10.70996,27.08002,9,32,9s9.44,1.70996,13.03003,4.56L43.60999,14.97998z
		 M35,55h-6c-0.54999,0-1-0.45001-1-1s0.45001-1,1-1h6c0.54999,0,1,0.45001,1,1S35.54999,55,35,55z M50,42.91998V31.07996
		C52.83002,31.56,55,34.02997,55,37C55,39.96997,52.83002,42.44,50,42.91998z"/>
	<path d="M25,27c-1.6543,0-3,1.3457-3,3v2c0,0.55225,0.44775,1,1,1h4c0.55225,0,1-0.44775,1-1s-0.44775-1-1-1h-3v-1
		c0-0.55127,0.44873-1,1-1c1.6543,0,3-1.3457,3-3s-1.3457-3-3-3h-2c-0.55225,0-1,0.44775-1,1s0.44775,1,1,1h2
		c0.55127,0,1,0.44873,1,1S25.55127,27,25,27z"/>
	<path d="M30,23c-0.55225,0-1,0.44775-1,1v4c0,0.55225,0.44775,1,1,1h3v3c0,0.55225,0.44775,1,1,1s1-0.44775,1-1v-8
		c0-0.55225-0.44775-1-1-1s-1,0.44775-1,1v3h-2v-3C31,23.44775,30.55225,23,30,23z"/>
	<path d="M37,23c-0.55225,0-1,0.44775-1,1v8c0,0.55225,0.44775,1,1,1s1-0.44775,1-1v-2c0-0.55127,0.44873-1,1-1s1,0.44873,1,1v2
		c0,0.55225,0.44775,1,1,1s1-0.44775,1-1v-2c0-1.6543-1.3457-3-3-3c-0.35059,0-0.68701,0.06055-1,0.17139V24
		C38,23.44775,37.55225,23,37,23z"/>
	<path d="M23,37h18c0.55225,0,1-0.44775,1-1s-0.44775-1-1-1H23c-0.55225,0-1,0.44775-1,1S22.44775,37,23,37z"/>
	<path d="M23,41h3c0.55225,0,1-0.44775,1-1s-0.44775-1-1-1h-3c-0.55225,0-1,0.44775-1,1S22.44775,41,23,41z"/>
	<path d="M41,39H30c-0.55225,0-1,0.44775-1,1s0.44775,1,1,1h11c0.55225,0,1-0.44775,1-1S41.55225,39,41,39z"/>
	<path d="M42,44c0-0.55225-0.44775-1-1-1H23c-0.55225,0-1,0.44775-1,1s0.44775,1,1,1h18C41.55225,45,42,44.55225,42,44z"/>
	<circle cx="45" cy="37" r="1"/>
</g>
</svg>
