<?xml version="1.0" encoding="utf-8"?>
<!-- Generator: Adobe Illustrator 27.3.1, SVG Export Plug-In . SVG Version: 6.00 Build 0)  -->
<svg version="1.1" id="Outline" xmlns="http://www.w3.org/2000/svg" xmlns:xlink="http://www.w3.org/1999/xlink" x="0px" y="0px"
	 viewBox="0 0 64 64" enable-background="new 0 0 64 64" xml:space="preserve">
<g>
	<path d="M55,31.72998V30C55,17.32001,44.67999,7,32,7S9,17.32001,9,30v1.72998C7.76001,33.14001,7,34.97998,7,37
		c0,4.07001,3.06,7.44,7,7.92999V45c0,1.64996,1.34998,3,3,3s3-1.35004,3-3v-3c0-0.54999-0.45001-1-1-1s-1,0.45001-1,1v3
		c0,0.54999-0.45001,1-1,1s-1-0.45001-1-1V29c0-0.54999,0.45001-1,1-1s1,0.45001,1,1v4c0,0.54999,0.45001,1,1,1s1-0.45001,1-1v-4
		c0-1.65002-1.34998-3-3-3s-3,1.34998-3,3v0.07001c-1.08002,0.13995-2.09998,0.48999-3,1.00995V30
		c0-5.94,2.48999-11.29999,6.46002-15.12l2.14996,2.14996c0.37,0.37,0.96002,0.39001,1.35999,0.04999
		C24.04999,14.45001,27.96997,13,32,13s7.95001,1.45001,11.03003,4.07996c0.39996,0.34003,0.98999,0.32001,1.35999-0.04999
		L46.53998,14.88C50.51001,18.70001,53,24.06,53,30v0.07996c-0.90002-0.51996-1.91998-0.87-3-1.00995V29c0-1.65002-1.34998-3-3-3
		s-3,1.34998-3,3v16c0,1.29999,0.84003,2.39996,2,2.82001V48c0,2.76001-2.23999,5-5,5h-3.17999C37.40002,51.83997,36.29999,51,35,51
		h-6c-1.65002,0-3,1.34998-3,3c0,1.64996,1.34998,3,3,3h6c1.29999,0,2.40002-0.84003,2.82001-2H41c3.85999,0,7-3.14001,7-7v-0.17999
		c1.15997-0.42004,2-1.52002,2-2.82001v-0.07001C53.94,44.44,57,41.07001,57,37C57,34.97998,56.23999,33.14001,55,31.72998z
		 M14,31.07996v11.84003C11.16998,42.44,9,39.96997,9,37C9,34.02997,11.16998,31.56,14,31.07996z M43.60999,14.97998
		C40.28998,12.40997,36.20001,11,32,11s-8.28998,1.40997-11.60999,3.97998L18.96997,13.56C22.56,10.70996,27.08002,9,32,9
		s9.44,1.70996,13.03003,4.56L43.60999,14.97998z M35,55h-6c-0.54999,0-1-0.45001-1-1s0.45001-1,1-1h6c0.54999,0,1,0.45001,1,1
		S35.54999,55,35,55z M48,45c0,0.54999-0.45001,1-1,1s-1-0.45001-1-1V29c0-0.54999,0.45001-1,1-1s1,0.45001,1,1V45z M50,42.91998
		V31.07996C52.83002,31.56,55,34.02997,55,37C55,39.96997,52.83002,42.44,50,42.91998z"/>
	<path d="M22,36c0,0.55273,0.44727,1,1,1h18c0.55273,0,1-0.44727,1-1s-0.44727-1-1-1H23C22.44727,35,22,35.44727,22,36z"/>
	<path d="M23,41h3c0.55273,0,1-0.44727,1-1s-0.44727-1-1-1h-3c-0.55273,0-1,0.44727-1,1S22.44727,41,23,41z"/>
	<path d="M41,39H30c-0.55273,0-1,0.44727-1,1s0.44727,1,1,1h11c0.55273,0,1-0.44727,1-1S41.55273,39,41,39z"/>
	<path d="M42,44c0-0.55273-0.44727-1-1-1H23c-0.55273,0-1,0.44727-1,1s0.44727,1,1,1h18C41.55273,45,42,44.55273,42,44z"/>
	<path d="M39.9299,23.03322c-0.12796-0.3781-0.46476-0.68557-0.9299-0.68557h-4.61035c0,0-1.43125-4.63231-1.43456-4.64305
		c-0.28499-0.92239-1.62529-0.92586-1.91016-0.00002l-1.43457,4.64307c0,0-4.57696,0-4.61017,0
		c-0.94255,0-1.35558,1.22327-0.6076,1.79443l3.77246,2.88135c0,0-1.43292,4.63789-1.4462,4.68085
		c-0.28371,0.91829,0.79871,1.67206,1.56241,1.09014L32,29.95312c0,0,3.71678,2.83981,3.71875,2.84131
		c0.71528,0.54651,1.86111-0.12615,1.5625-1.08984l-1.44629-4.68115c0,0,3.73433-2.85222,3.77217-2.88113
		C39.97705,23.85978,40.05783,23.41121,39.9299,23.03322z M34.06641,25.85791c-0.33301,0.25439-0.47168,0.68945-0.34766,1.08984
		l0.72852,2.3584l-1.83984-1.40576C32.42773,27.76318,32.21387,27.69482,32,27.69482s-0.42773,0.06836-0.60742,0.20557
		l-1.83984,1.40576l0.72852-2.3584c0.12402-0.40039-0.01465-0.83545-0.34766-1.08984l-1.97754-1.51025h2.3916
		c0.43848,0,0.82617-0.28564,0.95508-0.70459L32,21.38721l0.69727,2.25586c0.12891,0.41895,0.5166,0.70459,0.95508,0.70459h2.3916
		L34.06641,25.85791z"/>
	<circle cx="19" cy="37" r="1"/>
</g>
</svg>
